<svg width="151" height="76" viewBox="0 0 151 76" fill="none" xmlns="http://www.w3.org/2000/svg">
<g clip-path="url(#clip0_24_362)">
<circle cx="36" cy="40" r="36" fill="#EFA443"/>
<mask id="mask0_24_362" style="mask-type:alpha" maskUnits="userSpaceOnUse" x="15" y="25" width="42" height="50">
<path d="M17.4519 67.4154L22.956 30.893C23.4292 27.7531 26.9179 26.0777 29.6643 27.6714L53.1383 41.2929C55.8847 42.8866 56.1612 46.7468 53.6699 48.7156L24.6918 71.6166C21.4899 74.147 16.8437 71.4508 17.4519 67.4154Z" fill="white" stroke="#4D0F04" stroke-width="3"/>
</mask>
<g mask="url(#mask0_24_362)">
<path d="M57.3272 53.8717C57.3272 68.3263 45.1046 80.0793 29.9831 80.0793C14.8615 80.0793 2.63898 68.3263 2.63898 53.8717C2.63898 39.417 14.8615 27.6641 29.9831 27.6641C45.1046 27.6641 57.3272 39.417 57.3272 53.8717Z" fill="#FDDCC3" stroke="#4D0F04"/>
<path d="M23.7324 56.7129C19.1864 56.031 13.8827 63.0583 13.5039 65.2366C13.2198 67.4149 14.7541 69.8962 20.8911 71.4873C27.0282 73.0784 26.8577 68.7408 26.2895 65.2366C26.1948 63.6266 28.2783 57.3948 23.7324 56.7129Z" fill="#4D0F04" stroke="#4D0F04"/>
<path d="M24.3006 32.5624C28.8466 31.8805 31.6089 37.4573 31.9877 39.6356C32.2718 41.8139 32.7106 47.7346 26.5736 49.3257C20.4365 50.9168 22.88 44.022 23.4482 40.5179C23.5429 38.9078 19.7546 33.2443 24.3006 32.5624Z" fill="#4D0F04" stroke="#4D0F04"/>
<path d="M43.2406 47.7307C40.1368 44.34 36.0304 46.4012 34.3652 47.8557C32.7736 49.3698 30.5324 53.6726 34.3007 58.7712C38.0689 63.8698 42.511 63.3029 42.4673 58.8419C42.4235 54.3809 46.3445 51.1214 43.2406 47.7307Z" fill="#4D0F04" stroke="#4D0F04"/>
<path d="M17.4519 67.4154L22.956 30.893C23.4292 27.7531 26.9179 26.0777 29.6643 27.6714L53.1383 41.2929C55.8847 42.8866 56.1612 46.7468 53.6699 48.7156L24.6918 71.6166C21.4899 74.147 16.8437 71.4508 17.4519 67.4154Z" stroke="#4D0F04" stroke-width="3"/>
</g>
<rect x="23.9973" y="20.1211" width="44.447" height="5.5237" rx="2.76185" transform="rotate(30 23.9973 20.1211)" fill="#EDB18C" stroke="#4D0F04" stroke-width="3" stroke-linejoin="round"/>
<path fill-rule="evenodd" clip-rule="evenodd" d="M34.4607 7.39593C33.7825 7.27128 32.1417 7.62044 31.0033 10.0143C30.3269 11.4366 29.4379 12.4653 28.6262 13.4045C27.7303 14.4413 26.9285 15.3691 26.6106 16.5971C26.3343 17.6644 27.7084 17.6821 29.2487 17.7019C30.1268 17.7132 31.0589 17.7252 31.7699 17.9327C33.3907 17.9661 36.7345 17.9088 37.1431 17.4125C37.654 16.7921 40.8147 18.161 35.7516 18.9366C34.4866 19.63 32.2267 21.4473 33.3069 23.1696L34.356 22.2117L34.4381 23.0601C34.5993 22.759 35.1478 22.135 36.0528 22.0474C36.9578 21.9598 39.5012 22.2845 40.6598 22.4578C40.5107 21.9013 42.5572 21.4177 42.5572 21.4177C42.5572 21.4177 42.3595 24.873 42.9161 27.6736C41.639 29.2245 41.215 30.6112 44.8715 32.9976L41.9887 32.7057L39.6899 35.4974L40.6205 36.2636L42.2351 35.251L42.3173 36.0994L43.3663 35.1414C44.461 34.6549 47.0847 34.0393 48.8217 35.4696L48.6574 33.7728L51.2484 36.9474C49.6036 37.2522 50.3993 37.8968 50.6517 38.1013C50.7292 38.164 50.7554 38.1853 50.6439 38.1424C50.1695 37.96 48.6947 37.6651 48.0166 37.5404L45.6357 39.4837L45.7178 40.3321L47.3325 39.3194L46.9038 40.7882L48.5458 40.0583L49.1662 40.5691L50.8082 39.8392L51.9942 40.2953L53.6362 39.5654L53.2338 37.289C54.0038 36.9792 55.1213 37.2169 56.1777 37.4415C57.2576 37.6712 58.2734 37.8872 58.7887 37.491C59.3946 37.0251 60.049 36.2729 60.6583 35.3488C60.5002 42.5354 57.2871 50.6478 54.0823 54.1148C45.884 62.9837 24.0429 66.5987 18.8119 63.5152C13.5808 60.4318 8.65754 59.9425 8.65754 59.9425C8.65754 59.9425 17.6056 64.5077 20.3196 67.913C23.0336 71.3182 47.6786 68.5394 55.0227 62.377C64.0176 54.8294 66.1211 37.2744 62.9694 29.3187C63.2224 27.1961 62.7719 25.1885 61.0622 23.9752C60.8919 23.8543 60.8248 23.3584 60.7257 22.6253C60.2854 19.3687 59.2122 11.4308 45.6452 10.8803C44.3467 10.2448 41.9194 8.95742 42.5981 8.89171C43.4465 8.80957 47.0314 1.61165 39.2773 4.07508C39.2773 4.07508 40.9357 2.76242 39.7711 2.16744C38.6065 1.57246 35.0152 3.68845 34.4607 7.39593Z" fill="#390702"/>
<path d="M31.0033 10.0143L31.9064 10.4437L31.9064 10.4437L31.0033 10.0143ZM34.4607 7.39593L34.2799 8.37945C34.5464 8.42844 34.8214 8.36716 35.0419 8.20964C35.2624 8.05213 35.4096 7.81186 35.4497 7.54385L34.4607 7.39593ZM28.6262 13.4045L27.8696 12.7507L27.8696 12.7507L28.6262 13.4045ZM26.6106 16.5971L27.5787 16.8477L27.5787 16.8477L26.6106 16.5971ZM29.2487 17.7019L29.2616 16.702L29.2616 16.702L29.2487 17.7019ZM31.7699 17.9327L31.4897 18.8926C31.5741 18.9173 31.6614 18.9307 31.7493 18.9325L31.7699 17.9327ZM37.1431 17.4125L36.3712 16.7768L36.3712 16.7768L37.1431 17.4125ZM35.7516 18.9366L35.6002 17.9481C35.4848 17.9658 35.3733 18.0036 35.271 18.0597L35.7516 18.9366ZM33.3069 23.1696L32.4598 23.7009C32.6173 23.9522 32.8782 24.1205 33.172 24.1605C33.4658 24.2005 33.7622 24.108 33.9812 23.9081L33.3069 23.1696ZM34.356 22.2117L35.3513 22.1153C35.3148 21.7383 35.0685 21.4143 34.7149 21.2783C34.3614 21.1424 33.9614 21.2178 33.6817 21.4732L34.356 22.2117ZM34.4381 23.0601L33.4428 23.1565C33.4853 23.5951 33.8098 23.9542 34.2419 24.0407C34.674 24.1271 35.1118 23.9205 35.3198 23.532L34.4381 23.0601ZM40.6598 22.4578L40.5118 23.4468C40.8452 23.4966 41.1812 23.3752 41.4057 23.1237C41.6302 22.8723 41.7129 22.5247 41.6257 22.1991L40.6598 22.4578ZM42.5572 21.4177L43.5556 21.4748C43.5736 21.1596 43.4418 20.8544 43.1999 20.6515C42.958 20.4486 42.6345 20.3719 42.3273 20.4445L42.5572 21.4177ZM42.9161 27.6736L43.6881 28.3093C43.8788 28.0778 43.9554 27.7729 43.897 27.4787L42.9161 27.6736ZM44.8715 32.9976L44.7708 33.9925C45.2297 34.0389 45.6608 33.7655 45.8144 33.3306C45.968 32.8957 45.8043 32.4122 45.418 32.1601L44.8715 32.9976ZM41.9887 32.7057L42.0894 31.7108C41.7568 31.6772 41.4293 31.812 41.2168 32.0701L41.9887 32.7057ZM39.6899 35.4974L38.918 34.8617C38.7494 35.0664 38.669 35.3298 38.6946 35.5937C38.7201 35.8577 38.8495 36.1007 39.0542 36.2693L39.6899 35.4974ZM40.6205 36.2636L39.9848 37.0356C40.3171 37.3092 40.7871 37.3395 41.1518 37.1108L40.6205 36.2636ZM42.2351 35.251L43.2305 35.1546C43.1971 34.8096 42.9874 34.5066 42.6764 34.3536C42.3654 34.2007 41.9974 34.2196 41.7038 34.4038L42.2351 35.251ZM42.3173 36.0994L41.3219 36.1957C41.3584 36.5727 41.6048 36.8968 41.9583 37.0327C42.3119 37.1687 42.7119 37.0932 42.9916 36.8378L42.3173 36.0994ZM43.3663 35.1414L42.9602 34.2276C42.8619 34.2713 42.7714 34.3305 42.692 34.403L43.3663 35.1414ZM48.8217 35.4696L48.186 36.2416C48.4983 36.4987 48.9346 36.5424 49.2916 36.3523C49.6487 36.1623 49.856 35.7758 49.817 35.3733L48.8217 35.4696ZM48.6574 33.7728L49.4321 33.1405C49.1535 32.7991 48.6842 32.6804 48.2768 32.8481C47.8693 33.0159 47.6196 33.4306 47.6621 33.8692L48.6574 33.7728ZM51.2484 36.9474L51.4306 37.9307C51.778 37.8663 52.0656 37.6234 52.1872 37.2917C52.3089 36.96 52.2465 36.5888 52.0231 36.3151L51.2484 36.9474ZM50.6517 38.1013L50.0222 38.8783L50.0222 38.8783L50.6517 38.1013ZM50.6439 38.1424L50.285 39.0758L50.285 39.0758L50.6439 38.1424ZM48.0166 37.5404L48.1974 36.5569C47.9088 36.5039 47.6116 36.5802 47.3843 36.7657L48.0166 37.5404ZM45.6357 39.4837L45.0033 38.709C44.7443 38.9204 44.6081 39.2472 44.6403 39.58L45.6357 39.4837ZM45.7178 40.3321L44.7224 40.4284C44.7558 40.7734 44.9655 41.0765 45.2765 41.2294C45.5875 41.3824 45.9555 41.3634 46.2491 41.1792L45.7178 40.3321ZM47.3325 39.3194L48.2924 39.5996C48.4087 39.201 48.2667 38.7721 47.9355 38.5217C47.6043 38.2713 47.1529 38.2516 46.8011 38.4722L47.3325 39.3194ZM46.9038 40.7882L45.9438 40.508C45.8347 40.8818 45.9525 41.2849 46.2457 41.5411C46.5389 41.7973 46.9541 41.8601 47.3099 41.702L46.9038 40.7882ZM48.5458 40.0583L49.1815 39.2863C48.8891 39.0455 48.4857 38.9906 48.1396 39.1445L48.5458 40.0583ZM49.1662 40.5691L48.5305 41.3411C48.8229 41.5819 49.2262 41.6368 49.5723 41.4829L49.1662 40.5691ZM50.8082 39.8392L51.1671 38.9059C50.9196 38.8107 50.6444 38.8177 50.402 38.9254L50.8082 39.8392ZM51.9942 40.2953L51.6352 41.2287C51.8828 41.3239 52.158 41.3168 52.4004 41.2091L51.9942 40.2953ZM53.6362 39.5654L54.0424 40.4792C54.4623 40.2926 54.7009 39.8439 54.621 39.3914L53.6362 39.5654ZM53.2338 37.289L52.8605 36.3613C52.4219 36.5378 52.1668 36.9975 52.2491 37.4631L53.2338 37.289ZM56.1777 37.4415L55.9697 38.4197L55.9697 38.4197L56.1777 37.4415ZM58.7887 37.491L58.1791 36.6983L58.1791 36.6983L58.7887 37.491ZM60.6583 35.3488L61.6581 35.3708C61.6679 34.9252 61.3816 34.527 60.9562 34.3942C60.5307 34.2615 60.0688 34.4263 59.8234 34.7983L60.6583 35.3488ZM54.0823 54.1148L53.3479 53.436L53.3479 53.436L54.0823 54.1148ZM18.8119 63.5152L19.3197 62.6538L19.3197 62.6538L18.8119 63.5152ZM8.65754 59.9425L8.75644 58.9474C8.27796 58.8998 7.83338 59.1995 7.69799 59.6609C7.56261 60.1223 7.77476 60.6147 8.20307 60.8332L8.65754 59.9425ZM20.3196 67.913L21.1016 67.2897L21.1016 67.2897L20.3196 67.913ZM55.0227 62.377L55.6654 63.1431L55.6654 63.1431L55.0227 62.377ZM62.9694 29.3187L61.9764 29.2004C61.9568 29.3653 61.9785 29.5326 62.0397 29.687L62.9694 29.3187ZM61.0622 23.9752L61.6409 23.1597L61.6409 23.1597L61.0622 23.9752ZM60.7257 22.6253L61.7167 22.4913L61.7167 22.4913L60.7257 22.6253ZM45.6452 10.8803L45.2056 11.7785C45.3302 11.8395 45.4661 11.8739 45.6046 11.8795L45.6452 10.8803ZM42.5981 8.89171L42.5018 7.89636L42.5018 7.89636L42.5981 8.89171ZM39.2773 4.07508L38.6567 3.29097C38.278 3.59065 38.1676 4.11808 38.3943 4.54445C38.6209 4.97082 39.1199 5.17435 39.5801 5.02814L39.2773 4.07508ZM39.7711 2.16744L40.2261 1.27693L40.2261 1.27693L39.7711 2.16744ZM31.9064 10.4437C32.8912 8.37281 34.1337 8.35258 34.2799 8.37945L34.6414 6.4124C33.4314 6.18997 31.3922 6.86806 30.1002 9.5848L31.9064 10.4437ZM29.3828 14.0584C30.191 13.1232 31.165 12.0026 31.9064 10.4437L30.1002 9.5848C29.4887 10.8707 28.6848 11.8074 27.8696 12.7507L29.3828 14.0584ZM27.5787 16.8477C27.8281 15.8844 28.4571 15.1296 29.3828 14.0584L27.8696 12.7507C27.0035 13.7529 26.0289 14.8537 25.6425 16.3464L27.5787 16.8477ZM29.2616 16.702C28.4357 16.6913 27.8636 16.676 27.5179 16.5793C27.3528 16.5331 27.4101 16.5111 27.4897 16.6172C27.6066 16.7731 27.5629 16.9086 27.5787 16.8477L25.6425 16.3464C25.5201 16.8192 25.5446 17.3571 25.8896 17.8172C26.1973 18.2274 26.6426 18.4112 26.979 18.5053C27.6364 18.6892 28.5215 18.6926 29.2359 18.7018L29.2616 16.702ZM32.0501 16.9728C31.1802 16.7188 30.0948 16.7127 29.2616 16.702L29.2359 18.7018C30.1588 18.7137 30.9376 18.7315 31.4897 18.8926L32.0501 16.9728ZM36.3712 16.7768C36.4976 16.6233 36.6157 16.6037 36.5173 16.6398C36.4559 16.6623 36.345 16.6929 36.174 16.7251C35.8353 16.7889 35.3742 16.8384 34.845 16.8734C33.7932 16.9431 32.5827 16.9492 31.7905 16.9329L31.7493 18.9325C32.5779 18.9496 33.8497 18.9437 34.9772 18.869C35.5376 18.8319 36.0903 18.7761 36.5442 18.6906C36.7694 18.6481 36.9994 18.5931 37.2055 18.5176C37.3745 18.4557 37.6865 18.3258 37.9151 18.0482L36.3712 16.7768ZM35.903 19.9251C37.1942 19.7273 38.0938 19.4758 38.6645 19.1571C38.9451 19.0003 39.2651 18.7626 39.4478 18.3935C39.6662 17.9523 39.6094 17.4869 39.3907 17.1293C39.2049 16.8255 38.9327 16.64 38.7269 16.532C38.5063 16.4164 38.2655 16.3389 38.0343 16.2964C37.806 16.2544 37.5416 16.238 37.2769 16.2811C37.0298 16.3213 36.6513 16.4366 36.3712 16.7768L37.9151 18.0482C37.8368 18.1432 37.7529 18.1951 37.6982 18.2213C37.6447 18.2468 37.6075 18.2536 37.5984 18.2551C37.5846 18.2573 37.6113 18.2521 37.6722 18.2633C37.73 18.274 37.776 18.2917 37.7978 18.3031C37.8342 18.3223 37.7597 18.2958 37.6845 18.1728C37.5764 17.996 37.5431 17.7332 37.6553 17.5064C37.7319 17.3516 37.8163 17.34 37.6892 17.411C37.4445 17.5476 36.8405 17.7581 35.6002 17.9481L35.903 19.9251ZM34.1541 22.6383C33.9429 22.3015 33.9608 21.8965 34.4393 21.2811C34.9155 20.6686 35.672 20.1206 36.2323 19.8135L35.271 18.0597C34.5663 18.4459 33.5603 19.1533 32.8604 20.0534C32.1627 20.9507 31.5908 22.3154 32.4598 23.7009L34.1541 22.6383ZM33.6817 21.4732L32.6326 22.4312L33.9812 23.9081L35.0303 22.9502L33.6817 21.4732ZM35.4335 22.9637L35.3513 22.1153L33.3606 22.3081L33.4428 23.1565L35.4335 22.9637ZM35.9564 21.0521C34.6337 21.1801 33.8304 22.0765 33.5565 22.5882L35.3198 23.532C35.3189 23.5337 35.3237 23.5247 35.3363 23.5067C35.3484 23.4893 35.3656 23.4667 35.3881 23.4406C35.4335 23.388 35.4946 23.3282 35.5699 23.2712C35.719 23.1583 35.9109 23.0658 36.1492 23.0428L35.9564 21.0521ZM40.8077 21.4688C40.2166 21.3804 39.2756 21.2538 38.3634 21.16C37.4894 21.0702 36.5257 20.997 35.9564 21.0521L36.1492 23.0428C36.4848 23.0103 37.2453 23.0556 38.1589 23.1495C39.0344 23.2395 39.9443 23.3619 40.5118 23.4468L40.8077 21.4688ZM42.5572 21.4177C42.3273 20.4445 42.3271 20.4445 42.327 20.4446C42.3269 20.4446 42.3268 20.4446 42.3266 20.4446C42.3264 20.4447 42.3261 20.4448 42.3258 20.4448C42.3252 20.445 42.3245 20.4451 42.3237 20.4453C42.322 20.4458 42.3198 20.4463 42.3171 20.4469C42.3117 20.4482 42.3045 20.45 42.2954 20.4522C42.2773 20.4567 42.252 20.463 42.2206 20.471C42.1579 20.4872 42.07 20.5105 41.9656 20.5403C41.7596 20.599 41.4771 20.6862 41.1922 20.7962C40.9227 20.9004 40.5844 21.0498 40.3074 21.2502C40.1703 21.3493 39.989 21.5025 39.8513 21.7219C39.7008 21.962 39.5864 22.3153 39.6938 22.7164L41.6257 22.1991C41.6959 22.4611 41.6128 22.6775 41.5457 22.7846C41.4914 22.8711 41.4455 22.8953 41.4794 22.8708C41.5442 22.8239 41.6895 22.7482 41.913 22.6619C42.1211 22.5814 42.3409 22.513 42.5139 22.4636C42.5991 22.4394 42.67 22.4206 42.7185 22.4081C42.7428 22.4018 42.7613 22.3972 42.7731 22.3943C42.779 22.3929 42.7832 22.3918 42.7856 22.3913C42.7868 22.391 42.7876 22.3908 42.7878 22.3907C42.788 22.3907 42.788 22.3907 42.7879 22.3907C42.7878 22.3907 42.7877 22.3908 42.7876 22.3908C42.7876 22.3908 42.7875 22.3908 42.7874 22.3908C42.7873 22.3909 42.7872 22.3909 42.5572 21.4177ZM43.897 27.4787C43.6356 26.1638 43.5476 24.6681 43.5278 23.4788C43.518 22.8889 43.5251 22.3842 43.5347 22.0281C43.5394 21.8502 43.5448 21.7097 43.5489 21.6148C43.5509 21.5673 43.5527 21.5313 43.5539 21.5076C43.5545 21.4958 43.5549 21.487 43.5552 21.4815C43.5554 21.4788 43.5555 21.4768 43.5555 21.4757C43.5556 21.4751 43.5556 21.4748 43.5556 21.4746C43.5556 21.4746 43.5556 21.4745 43.5556 21.4746C43.5556 21.4746 43.5556 21.4746 43.5556 21.4746C43.5556 21.4747 43.5556 21.4748 42.5572 21.4177C41.5589 21.3606 41.5588 21.3607 41.5588 21.3608C41.5588 21.3609 41.5588 21.361 41.5588 21.3611C41.5588 21.3614 41.5588 21.3617 41.5588 21.362C41.5587 21.3627 41.5587 21.3636 41.5586 21.3647C41.5585 21.3669 41.5583 21.37 41.5581 21.3739C41.5577 21.3816 41.5571 21.3926 41.5564 21.4068C41.555 21.4351 41.553 21.476 41.5507 21.5285C41.5462 21.6334 41.5405 21.7848 41.5354 21.9746C41.5252 22.3538 41.5177 22.888 41.5281 23.512C41.5487 24.7505 41.64 26.3828 41.9353 27.8685L43.897 27.4787ZM45.418 32.1601C43.6104 30.9804 43.1156 30.2246 43.0187 29.7998C42.9416 29.462 43.0638 29.0674 43.6881 28.3093L42.1442 27.0379C41.4913 27.8308 40.763 28.905 41.0688 30.2448C41.3547 31.4977 42.4761 32.6283 44.3249 33.835L45.418 32.1601ZM41.888 33.7007L44.7708 33.9925L44.9722 32.0026L42.0894 31.7108L41.888 33.7007ZM40.4619 36.1331L42.7607 33.3414L41.2168 32.0701L38.918 34.8617L40.4619 36.1331ZM41.2561 35.4917L40.3256 34.7254L39.0542 36.2693L39.9848 37.0356L41.2561 35.4917ZM41.7038 34.4038L40.0891 35.4165L41.1518 37.1108L42.7665 36.0981L41.7038 34.4038ZM43.3126 36.003L43.2305 35.1546L41.2398 35.3473L41.3219 36.1957L43.3126 36.003ZM42.692 34.403L41.643 35.3609L42.9916 36.8378L44.0406 35.8799L42.692 34.403ZM49.4574 34.6977C48.335 33.7734 46.9709 33.5463 45.8176 33.5873C44.6647 33.6283 43.6097 33.9389 42.9602 34.2276L43.7725 36.0552C44.2176 35.8574 45.0218 35.6169 45.8887 35.586C46.7552 35.5552 47.5714 35.7355 48.186 36.2416L49.4574 34.6977ZM47.6621 33.8692L47.8264 35.566L49.817 35.3733L49.6528 33.6765L47.6621 33.8692ZM52.0231 36.3151L49.4321 33.1405L47.8827 34.4051L50.4737 37.5797L52.0231 36.3151ZM51.2812 37.3243C51.214 37.2698 51.1757 37.2367 51.1511 37.2094C51.1408 37.1979 51.1503 37.2061 51.1664 37.2345C51.1818 37.2618 51.2198 37.3368 51.2326 37.452C51.2467 37.5803 51.2251 37.7238 51.1575 37.8539C51.0947 37.9745 51.019 38.033 50.9977 38.0479C50.9782 38.0615 50.9924 38.0473 51.0699 38.0202C51.1449 37.994 51.2608 37.9621 51.4306 37.9307L51.0662 35.9641C50.6067 36.0493 50.1813 36.179 49.8539 36.4072C49.472 36.6734 49.1833 37.1166 49.2447 37.6719C49.2924 38.1031 49.5395 38.4081 49.6632 38.5458C49.8074 38.7064 49.9632 38.8305 50.0222 38.8783L51.2812 37.3243ZM50.285 39.0758C50.3105 39.0856 50.3803 39.1127 50.4565 39.132C50.4617 39.1334 50.6199 39.1795 50.816 39.1598C50.9028 39.151 51.2289 39.1095 51.4828 38.8085C51.7854 38.4498 51.7285 38.0495 51.6774 37.8772C51.6292 37.7147 51.5511 37.6051 51.5252 37.5695C51.49 37.5211 51.4574 37.4854 51.4394 37.4663C51.4033 37.4281 51.3705 37.3992 51.3569 37.3872C51.3278 37.3619 51.2944 37.335 51.2811 37.3243L50.0222 38.8783C50.0477 38.899 50.0466 38.8983 50.0408 38.8932C50.0387 38.8914 50.0153 38.8712 49.9859 38.8401C49.9712 38.8246 49.9414 38.792 49.9082 38.7464C49.8843 38.7136 49.8075 38.6063 49.7599 38.4458C49.7094 38.2754 49.6524 37.8767 49.954 37.519C50.2069 37.2192 50.5313 37.1783 50.6156 37.1698C50.7322 37.1581 50.823 37.1703 50.8568 37.1753C50.8997 37.1816 50.9326 37.1895 50.9497 37.1938C51.0018 37.2071 51.033 37.2207 51.0029 37.2091L50.285 39.0758ZM47.8358 38.524C48.1664 38.5847 48.6935 38.6875 49.1931 38.7967C49.7229 38.9125 50.132 39.017 50.285 39.0758L51.0029 37.2091C50.6814 37.0855 50.1159 36.9512 49.6203 36.8428C49.0943 36.7279 48.5448 36.6208 48.1974 36.5569L47.8358 38.524ZM46.268 40.2584L48.6489 38.3152L47.3843 36.7657L45.0033 38.709L46.268 40.2584ZM46.7131 40.2357L46.631 39.3873L44.6403 39.58L44.7224 40.4284L46.7131 40.2357ZM46.8011 38.4722L45.1865 39.4849L46.2491 41.1792L47.8638 40.1666L46.8011 38.4722ZM47.8637 41.0683L48.2924 39.5996L46.3725 39.0392L45.9438 40.508L47.8637 41.0683ZM48.1396 39.1445L46.4976 39.8744L47.3099 41.702L48.952 40.9721L48.1396 39.1445ZM49.8018 39.7972L49.1815 39.2863L47.9101 40.8302L48.5305 41.3411L49.8018 39.7972ZM50.402 38.9254L48.76 39.6553L49.5723 41.4829L51.2144 40.753L50.402 38.9254ZM52.3531 39.362L51.1671 38.9059L50.4493 40.7726L51.6352 41.2287L52.3531 39.362ZM53.23 38.6517L51.588 39.3815L52.4004 41.2091L54.0424 40.4792L53.23 38.6517ZM52.2491 37.4631L52.6515 39.7395L54.621 39.3914L54.2186 37.115L52.2491 37.4631ZM56.3857 36.4634C55.8701 36.3538 55.2688 36.2247 54.694 36.1695C54.1293 36.1152 53.4668 36.1174 52.8605 36.3613L53.6071 38.2167C53.7708 38.1509 54.052 38.117 54.5027 38.1603C54.9432 38.2026 55.429 38.3047 55.9697 38.4197L56.3857 36.4634ZM58.1791 36.6983C58.2304 36.6588 58.174 36.7334 57.7679 36.7036C57.3968 36.6765 56.9455 36.5825 56.3857 36.4634L55.9697 38.4197C56.4898 38.5303 57.0864 38.6591 57.6219 38.6983C58.1226 38.735 58.8317 38.7194 59.3983 38.2837L58.1791 36.6983ZM59.8234 34.7983C59.2492 35.6693 58.666 36.3239 58.1791 36.6983L59.3983 38.2838C60.1231 37.7264 60.8487 36.8766 61.4931 35.8993L59.8234 34.7983ZM54.8166 54.7936C56.5433 52.9256 58.2046 49.8951 59.4524 46.4689C60.7056 43.028 61.5761 39.0943 61.6581 35.3708L59.6585 35.3268C59.5823 38.79 58.7673 42.5058 57.5732 45.7845C56.3737 49.0778 54.826 51.837 53.3479 53.436L54.8166 54.7936ZM18.3041 64.3767C19.8676 65.2983 22.4588 65.6385 25.3919 65.5943C28.3845 65.5492 31.9314 65.0983 35.5565 64.2721C42.7587 62.6308 50.5103 59.4521 54.8166 54.7936L53.3479 53.436C49.4559 57.6464 42.1879 60.7096 35.1121 62.3221C31.5983 63.1229 28.1918 63.5519 25.3617 63.5945C22.4722 63.6381 20.3716 63.2738 19.3197 62.6538L18.3041 64.3767ZM8.65754 59.9425C8.55863 60.9375 8.5584 60.9375 8.55819 60.9375C8.55814 60.9375 8.55795 60.9375 8.55785 60.9375C8.55767 60.9375 8.55756 60.9374 8.55752 60.9374C8.55745 60.9374 8.55767 60.9375 8.55819 60.9375C8.55922 60.9376 8.56142 60.9378 8.56479 60.9382C8.57152 60.9389 8.58288 60.9402 8.59873 60.942C8.63042 60.9457 8.68006 60.9517 8.74653 60.9606C8.87948 60.9785 9.0796 61.0077 9.33796 61.0524C9.8549 61.1419 10.6036 61.2931 11.5129 61.5381C13.3342 62.0288 15.7845 62.8915 18.3041 64.3767L19.3197 62.6538C16.6082 61.0555 13.9814 60.1318 12.0332 59.607C11.0578 59.3442 10.2488 59.1804 9.67912 59.0817C9.39418 59.0324 9.1688 58.9993 9.01208 58.9784C8.9337 58.9679 8.87246 58.9604 8.82948 58.9554C8.80799 58.9529 8.79107 58.951 8.77885 58.9497C8.77274 58.949 8.76781 58.9485 8.76406 58.9481C8.76219 58.9479 8.76062 58.9478 8.75935 58.9476C8.75872 58.9476 8.75816 58.9475 8.75767 58.9475C8.75743 58.9475 8.75712 58.9474 8.757 58.9474C8.75671 58.9474 8.75644 58.9474 8.65754 59.9425ZM21.1016 67.2897C20.3414 66.3358 19.1901 65.3505 17.9489 64.4283C16.6948 63.4965 15.2936 62.589 13.9905 61.7964C12.6855 61.0027 11.4681 60.3177 10.5773 59.8313C10.1316 59.5879 9.76685 59.3938 9.51284 59.2602C9.38582 59.1934 9.28643 59.1417 9.2184 59.1065C9.18438 59.0889 9.15819 59.0754 9.14031 59.0662C9.13136 59.0616 9.1245 59.0581 9.11976 59.0557C9.11739 59.0544 9.11555 59.0535 9.11426 59.0528C9.11361 59.0525 9.1131 59.0522 9.11272 59.0521C9.11253 59.052 9.11235 59.0519 9.11226 59.0518C9.11211 59.0517 9.112 59.0517 8.65754 59.9425C8.20307 60.8332 8.20303 60.8332 8.20302 60.8332C8.20306 60.8332 8.20309 60.8332 8.20317 60.8333C8.20334 60.8334 8.20364 60.8335 8.20408 60.8337C8.20495 60.8342 8.20636 60.8349 8.20831 60.8359C8.21219 60.8379 8.2182 60.841 8.22627 60.8451C8.24241 60.8534 8.2668 60.866 8.29898 60.8826C8.36335 60.9159 8.45886 60.9656 8.58181 61.0303C8.82775 61.1597 9.18328 61.3488 9.61885 61.5867C10.4907 62.0627 11.6798 62.7319 12.9512 63.5051C14.2243 64.2795 15.5691 65.1517 16.7561 66.0337C17.9559 66.9252 18.9409 67.7875 19.5376 68.5362L21.1016 67.2897ZM54.3799 61.611C52.6953 63.0245 49.9278 64.3059 46.5813 65.3674C43.2591 66.4212 39.4614 67.229 35.7961 67.7425C32.1279 68.2564 28.6269 68.4708 25.8976 68.3521C24.5301 68.2926 23.3898 68.1508 22.5321 67.9356C21.6237 67.7076 21.2239 67.4432 21.1016 67.2897L19.5376 68.5362C20.0938 69.2341 21.0579 69.6277 22.0454 69.8755C23.0837 70.136 24.3714 70.2876 25.8107 70.3502C28.6952 70.4756 32.3233 70.2486 36.0736 69.7232C39.8268 69.1973 43.7369 68.3678 47.186 67.2738C50.6108 66.1875 53.678 64.8107 55.6654 63.1431L54.3799 61.611ZM62.0397 29.687C63.5196 33.4226 63.8049 39.5878 62.5702 45.8061C61.3366 52.0185 58.6334 58.0418 54.3799 61.611L55.6654 63.1431C60.4069 59.1646 63.2529 52.6366 64.5319 46.1957C65.8097 39.7606 65.5709 33.1705 63.8991 28.9504L62.0397 29.687ZM60.4835 24.7907C61.7715 25.7048 62.2075 27.2619 61.9764 29.2004L63.9624 29.437C64.2373 27.1304 63.7724 24.6723 61.6409 23.1597L60.4835 24.7907ZM59.7347 22.7592C59.7821 23.1096 59.8292 23.4639 59.8903 23.7434C59.9211 23.8843 59.9643 24.0493 60.0311 24.2069C60.0905 24.3468 60.2176 24.6021 60.4835 24.7907L61.6409 23.1597C61.7376 23.2283 61.7958 23.3009 61.826 23.3446C61.8562 23.3884 61.8698 23.4199 61.8723 23.4259C61.8756 23.4336 61.8638 23.4061 61.8442 23.3163C61.8044 23.1343 61.7685 22.8741 61.7167 22.4913L59.7347 22.7592ZM45.6046 11.8795C52.1859 12.1465 55.5433 14.1893 57.335 16.3724C59.1583 18.5941 59.5149 21.1332 59.7347 22.7592L61.7167 22.4913C61.4962 20.8608 61.0961 17.8026 58.881 15.1036C56.6342 12.366 52.6715 10.1646 45.6857 9.88114L45.6046 11.8795ZM42.5018 7.89636C42.3995 7.90626 42.1671 7.93746 41.9396 8.09389C41.8118 8.18176 41.6763 8.31611 41.5841 8.50819C41.4911 8.70196 41.4699 8.89697 41.4852 9.06203C41.5122 9.3542 41.6519 9.55815 41.7107 9.63802C41.7847 9.73849 41.8659 9.81947 41.9291 9.87754C42.1651 10.0941 42.5264 10.3268 42.8667 10.5304C43.5861 10.961 44.5463 11.4559 45.2056 11.7785L46.0848 9.98212C45.4456 9.66929 44.5428 9.20273 43.8937 8.81426C43.5497 8.60839 43.3503 8.46723 43.2814 8.40402C43.2685 8.39217 43.2895 8.4091 43.3213 8.45232C43.338 8.47494 43.4536 8.62845 43.4767 8.87788C43.49 9.02158 43.4718 9.19715 43.3872 9.37353C43.3034 9.54821 43.1814 9.6672 43.0728 9.74189C42.8837 9.87193 42.7119 9.88536 42.6945 9.88705L42.5018 7.89636ZM39.5801 5.02814C41.4663 4.4289 42.3904 4.5171 42.7803 4.69055C43.0234 4.79868 43.1752 4.99488 43.1639 5.50683C43.1519 6.05193 42.9331 6.72917 42.6389 7.29956C42.4952 7.57806 42.3527 7.79332 42.2441 7.92562C42.1886 7.9933 42.1599 8.01712 42.1621 8.01537C42.164 8.01383 42.1878 7.99473 42.2326 7.97197C42.2744 7.95076 42.3677 7.90934 42.5018 7.89636L42.6945 9.88705C43.0407 9.85354 43.2923 9.67221 43.4096 9.57866C43.5537 9.46365 43.6815 9.32681 43.79 9.19462C44.0095 8.92719 44.2257 8.58588 44.4163 8.21652C44.7905 7.49117 45.1424 6.5075 45.1634 5.55078C45.1852 4.56091 44.8323 3.4144 43.5932 2.86319C42.5009 2.3773 40.9653 2.48955 38.9745 3.12202L39.5801 5.02814ZM39.3162 3.05796C39.3544 3.07748 39.3176 3.0675 39.2697 3.00029C39.2163 2.92536 39.1892 2.83531 39.1861 2.75659C39.1816 2.64455 39.2252 2.64555 39.1295 2.78871C39.0507 2.90666 38.9357 3.03321 38.8241 3.14078C38.7714 3.19164 38.7255 3.23246 38.6941 3.25944C38.6786 3.27282 38.6669 3.28248 38.6603 3.28796C38.657 3.29069 38.6549 3.29235 38.6543 3.29287C38.6539 3.29314 38.654 3.29312 38.6544 3.2928C38.6546 3.29265 38.6548 3.29242 38.6552 3.29211C38.6554 3.29196 38.6556 3.29179 38.6559 3.2916C38.656 3.2915 38.6562 3.29135 38.6562 3.2913C38.6565 3.29114 38.6567 3.29097 39.2773 4.07508C39.8979 4.85919 39.8981 4.85902 39.8984 4.85884C39.8984 4.85877 39.8987 4.85858 39.8988 4.85845C39.8992 4.85818 39.8996 4.85789 39.8999 4.85758C39.9007 4.85695 39.9016 4.85625 39.9026 4.85546C39.9046 4.85388 39.907 4.85196 39.9097 4.84973C39.9153 4.84525 39.9224 4.83947 39.931 4.83244C39.948 4.81839 39.9709 4.79928 39.9984 4.7756C40.0532 4.72847 40.1278 4.66208 40.2123 4.58059C40.3753 4.42344 40.6021 4.18464 40.7923 3.90005C40.9657 3.64068 41.2056 3.20195 41.1845 2.67645C41.1588 2.03558 40.768 1.55378 40.2261 1.27693L39.3162 3.05796ZM35.4497 7.54385C35.6838 5.97829 36.564 4.73132 37.5235 3.93962C38.0034 3.54373 38.4741 3.28623 38.8492 3.15906C39.2751 3.01464 39.3899 3.0956 39.3162 3.05796L40.2261 1.27693C39.5701 0.9418 38.7993 1.06414 38.2069 1.26499C37.5637 1.48309 36.8836 1.87475 36.2507 2.39691C34.9848 3.44133 33.792 5.10609 33.4717 7.248L35.4497 7.54385Z" fill="#390702"/>
<path d="M31.814 12.5566C32.1603 11.1714 33.5456 11.1714 33.8919 11.5177C34.2382 11.864 33.4763 12.8336 31.814 12.5566Z" fill="#FDDCC3" stroke="#FDDCC3" stroke-linecap="round"/>
<path d="M50.5145 13.8424C51.1494 13.9683 52.4538 14.4216 52.5924 15.2276" stroke="#FDDCC3" stroke-linecap="round"/>
<path d="M47.0515 14.535C47.6863 14.6609 48.9908 15.1142 49.1293 15.9202" stroke="#FDDCC3" stroke-linecap="round"/>
<path d="M57.955 34.865C58.3965 34.8558 59.3629 35.0222 59.6968 35.7615" stroke="#FDDCC3" stroke-linecap="round"/>
<path d="M34.5829 16.4715C34.4775 16.0426 34.0667 15.1521 33.2661 15.021" stroke="#FDDCC3" stroke-linecap="round"/>
<path d="M58.8259 32.5428C59.2491 32.6688 60.1187 33.1221 60.2111 33.9281" stroke="#FDDCC3" stroke-linecap="round"/>
<path d="M36.6005 15.0292C36.3693 14.6529 35.7064 13.9303 34.904 14.0497" stroke="#FDDCC3" stroke-linecap="round"/>
<path d="M60.6163 30.9138C60.9312 31.2234 61.487 32.0314 61.191 32.7867" stroke="#FDDCC3" stroke-linecap="round"/>
<path d="M51.2072 16.6128C51.6304 16.7387 52.5 17.1921 52.5924 17.998" stroke="#FDDCC3" stroke-linecap="round"/>
</g>
<path d="M96.392 26.264L96.356 27.488C94.436 28.52 92.036 29.324 89.156 29.9C91.22 30.452 93.212 30.728 95.132 30.728H95.888C97.208 32.672 98.06 35.096 98.444 38H89.12C88.88 36.32 88.388 34.88 87.644 33.68C86.924 32.456 86.036 31.628 84.98 31.196C84.956 31.604 84.944 32.42 84.944 33.644C84.944 34.868 85.016 36.32 85.16 38H77.312C76.616 34.52 76.268 31.292 76.268 28.316C76.268 25.316 76.436 22.544 76.772 20H95.564C96.116 22.424 96.392 24.512 96.392 26.264ZM85.736 22.412C85.448 24.524 85.232 26.6 85.088 28.64C86.408 28.448 87.488 27.98 88.328 27.236C87.872 25.628 87.008 24.02 85.736 22.412ZM124.258 37.712V38H115.906C115.81 36.68 115.606 35.264 115.294 33.752C113.614 35.432 111.934 36.848 110.254 38H101.866C101.698 37.016 101.614 35.72 101.614 34.112C101.614 32.48 101.854 30.848 102.334 29.216C104.062 28.712 105.718 27.86 107.302 26.66C108.91 25.46 110.074 24.164 110.794 22.772C110.122 21.716 109.438 20.792 108.742 20H120.694C123.07 25.208 124.258 31.112 124.258 37.712ZM114.646 31.124C114.046 29.06 113.23 27.044 112.198 25.076C111.07 28.388 110.422 31.52 110.254 34.472C112.03 33.512 113.494 32.396 114.646 31.124ZM141.898 22.34C141.274 26.132 140.962 29.228 140.962 31.628C140.962 34.028 141.058 36.152 141.25 38H133.402C132.586 34.184 132.178 30.08 132.178 25.688C132.178 24.944 132.202 23.828 132.25 22.34C130.21 22.94 128.962 24.32 128.506 26.48L124.942 26.264L126.238 20H150.178C149.698 22.64 149.146 24.8 148.522 26.48L144.886 26.264C144.982 25.88 145.03 25.496 145.03 25.112C145.03 24.176 144.742 23.48 144.166 23.024C143.59 22.568 142.834 22.34 141.898 22.34Z" fill="#390702"/>
<path d="M80.4432 58.2237C79.2699 58.2237 78.2607 57.9751 77.4155 57.478C76.5753 56.9759 75.929 56.2798 75.4766 55.3899C75.0291 54.5 74.8054 53.4759 74.8054 52.3175C74.8054 51.1442 75.0316 50.1151 75.484 49.2301C75.9414 48.3402 76.5902 47.6467 77.4304 47.1495C78.2706 46.6474 79.2699 46.3963 80.4283 46.3963C81.4276 46.3963 82.3026 46.5778 83.0533 46.9407C83.804 47.3036 84.3981 47.8132 84.8356 48.4695C85.2731 49.1257 85.5142 49.8963 85.5589 50.7812H82.5611C82.4766 50.2095 82.2528 49.7496 81.8899 49.4016C81.532 49.0487 81.0621 48.8722 80.4805 48.8722C79.9883 48.8722 79.5582 49.0064 79.1903 49.2749C78.8274 49.5384 78.544 49.9237 78.3402 50.4308C78.1364 50.9379 78.0344 51.5518 78.0344 52.2727C78.0344 53.0036 78.1339 53.625 78.3327 54.1371C78.5366 54.6491 78.8224 55.0394 79.1903 55.3079C79.5582 55.5763 79.9883 55.7106 80.4805 55.7106C80.8434 55.7106 81.169 55.636 81.4574 55.4869C81.7507 55.3377 81.9918 55.1214 82.1808 54.8381C82.3746 54.5497 82.5014 54.2042 82.5611 53.8015H85.5589C85.5092 54.6765 85.2706 55.4471 84.843 56.1133C84.4205 56.7745 83.8363 57.2915 83.0906 57.6644C82.3448 58.0373 81.4624 58.2237 80.4432 58.2237ZM93.4431 58.2237C92.2649 58.2237 91.2507 57.9851 90.4005 57.5078C89.5553 57.0256 88.9041 56.3445 88.4467 55.4645C87.9893 54.5795 87.7606 53.533 87.7606 52.3249C87.7606 51.1467 87.9893 50.1126 88.4467 49.2227C88.9041 48.3327 89.5479 47.6392 90.3781 47.142C91.2134 46.6449 92.1928 46.3963 93.3163 46.3963C94.072 46.3963 94.7755 46.5181 95.4268 46.7617C96.083 47.0004 96.6548 47.3608 97.142 47.843C97.6342 48.3253 98.017 48.9318 98.2904 49.6626C98.5639 50.3885 98.7006 51.2386 98.7006 52.2131V53.0856H89.0283V51.1168H95.7102C95.7102 50.6594 95.6107 50.2543 95.4119 49.9013C95.213 49.5483 94.9371 49.2724 94.5841 49.0735C94.2361 48.8697 93.8309 48.7678 93.3685 48.7678C92.8863 48.7678 92.4587 48.8796 92.0859 49.1033C91.718 49.3221 91.4296 49.6179 91.2208 49.9908C91.012 50.3587 90.9051 50.7688 90.9002 51.2212V53.093C90.9002 53.6598 91.0046 54.1495 91.2134 54.5621C91.4271 54.9748 91.7279 55.293 92.1157 55.5167C92.5035 55.7404 92.9634 55.8523 93.4953 55.8523C93.8483 55.8523 94.1715 55.8026 94.4648 55.7031C94.7581 55.6037 95.0092 55.4545 95.218 55.2557C95.4268 55.0568 95.5859 54.8132 95.6953 54.5249L98.6335 54.7188C98.4843 55.4247 98.1786 56.0412 97.7162 56.5682C97.2588 57.0902 96.6672 57.4979 95.9413 57.7912C95.2205 58.0795 94.3877 58.2237 93.4431 58.2237ZM104.581 51.3778V58H101.404V46.5455H104.431V48.5664H104.566C104.819 47.9002 105.244 47.3732 105.841 46.9854C106.437 46.5927 107.161 46.3963 108.011 46.3963C108.806 46.3963 109.5 46.5703 110.092 46.9183C110.683 47.2663 111.143 47.7635 111.471 48.4098C111.799 49.0511 111.963 49.8168 111.963 50.7067V58H108.787V51.2734C108.792 50.5724 108.613 50.0256 108.25 49.6328C107.887 49.2351 107.387 49.0362 106.751 49.0362C106.323 49.0362 105.945 49.1282 105.617 49.3121C105.294 49.4961 105.04 49.7646 104.857 50.1175C104.678 50.4656 104.586 50.8857 104.581 51.3778ZM121.19 46.5455V48.9318H114.292V46.5455H121.19ZM115.858 43.8011H119.035V54.4801C119.035 54.7734 119.079 55.0021 119.169 55.1662C119.258 55.3253 119.383 55.4371 119.542 55.5018C119.706 55.5664 119.895 55.5987 120.109 55.5987C120.258 55.5987 120.407 55.5863 120.556 55.5614C120.705 55.5316 120.82 55.5092 120.899 55.4943L121.399 57.8583C121.24 57.908 121.016 57.9652 120.728 58.0298C120.439 58.0994 120.089 58.1417 119.676 58.1566C118.91 58.1864 118.239 58.0845 117.663 57.8509C117.091 57.6172 116.646 57.2543 116.328 56.7621C116.009 56.2699 115.853 55.6484 115.858 54.8977V43.8011ZM123.889 58V46.5455H126.969V48.544H127.089C127.297 47.8331 127.648 47.2962 128.14 46.9332C128.632 46.5653 129.199 46.3814 129.84 46.3814C129.999 46.3814 130.171 46.3913 130.355 46.4112C130.539 46.4311 130.7 46.4585 130.84 46.4933V49.3121C130.69 49.2674 130.484 49.2276 130.221 49.1928C129.957 49.158 129.716 49.1406 129.497 49.1406C129.03 49.1406 128.612 49.2425 128.244 49.4464C127.882 49.6452 127.593 49.9237 127.379 50.2816C127.171 50.6396 127.066 51.0522 127.066 51.5195V58H123.889ZM136.05 58.2163C135.319 58.2163 134.668 58.0895 134.096 57.8359C133.525 57.5774 133.072 57.1971 132.739 56.695C132.411 56.1879 132.247 55.5565 132.247 54.8008C132.247 54.1644 132.364 53.63 132.598 53.1974C132.831 52.7649 133.149 52.4169 133.552 52.1534C133.955 51.8899 134.412 51.6911 134.924 51.5568C135.441 51.4226 135.983 51.3281 136.55 51.2734C137.216 51.2038 137.753 51.1392 138.161 51.0795C138.568 51.0149 138.864 50.9205 139.048 50.7962C139.232 50.6719 139.324 50.4879 139.324 50.2443V50.1996C139.324 49.7273 139.175 49.3619 138.877 49.1033C138.583 48.8448 138.166 48.7156 137.624 48.7156C137.052 48.7156 136.597 48.8423 136.259 49.0959C135.921 49.3445 135.697 49.6577 135.588 50.0355L132.65 49.7969C132.799 49.1009 133.092 48.4993 133.53 47.9922C133.967 47.4801 134.531 47.0874 135.223 46.8139C135.919 46.5355 136.724 46.3963 137.639 46.3963C138.275 46.3963 138.884 46.4709 139.466 46.62C140.052 46.7692 140.572 47.0004 141.024 47.3136C141.482 47.6268 141.842 48.0295 142.106 48.5217C142.369 49.0089 142.501 49.593 142.501 50.2741V58H139.488V56.4116H139.399C139.215 56.7695 138.969 57.0852 138.66 57.3587C138.352 57.6271 137.982 57.8384 137.549 57.9925C137.117 58.1417 136.617 58.2163 136.05 58.2163ZM136.96 56.0238C137.427 56.0238 137.84 55.9318 138.198 55.7479C138.556 55.5589 138.837 55.3054 139.041 54.9872C139.245 54.669 139.346 54.3086 139.346 53.9059V52.6903C139.247 52.755 139.11 52.8146 138.936 52.8693C138.767 52.919 138.576 52.9663 138.362 53.011C138.148 53.0508 137.935 53.0881 137.721 53.1229C137.507 53.1527 137.313 53.18 137.139 53.2049C136.766 53.2596 136.441 53.3466 136.162 53.4659C135.884 53.5852 135.667 53.7468 135.513 53.9506C135.359 54.1495 135.282 54.3981 135.282 54.6964C135.282 55.1289 135.439 55.4595 135.752 55.6882C136.07 55.9119 136.473 56.0238 136.96 56.0238ZM148.772 42.7273V58H145.596V42.7273H148.772Z" fill="#390702"/>
<defs>
<clipPath id="clip0_24_362">
<rect width="72" height="76" fill="white"/>
</clipPath>
</defs>
</svg>
