<svg width="151" height="76" viewBox="0 0 151 76" fill="none" xmlns="http://www.w3.org/2000/svg">
<g clip-path="url(#clip0_70_152)">
<circle cx="35.5" cy="39.5" r="35.5" fill="#EFA443"/>
<mask id="mask0_70_152" style="mask-type:alpha" maskUnits="userSpaceOnUse" x="16" y="25" width="41" height="49">
<path d="M17.7436 66.44L23.0992 30.9038C23.5724 27.7639 27.061 26.0885 29.8075 27.6822L52.6475 40.9359C55.394 42.5296 55.6705 46.3898 53.1792 48.3586L24.9836 70.6412C21.7817 73.1716 17.1355 70.4754 17.7436 66.44Z" fill="white" stroke="#4D0F04" stroke-width="3"/>
</mask>
<g mask="url(#mask0_70_152)">
<path d="M56.8969 53.36C56.8969 67.5733 44.8784 79.1306 30.0085 79.1306C15.1385 79.1306 3.12003 67.5733 3.12003 53.36C3.12003 39.1468 15.1385 27.5895 30.0085 27.5895C44.8784 27.5895 56.8969 39.1468 56.8969 53.36Z" fill="#FDDCC3" stroke="#4D0F04"/>
<path d="M23.86 56.1548C19.3884 55.484 14.1716 62.3964 13.799 64.539C13.5195 66.6816 15.0286 69.1223 21.0653 70.6874C27.1019 72.2525 26.9342 67.9858 26.3753 64.539C26.2821 62.9553 28.3316 56.8255 23.86 56.1548Z" fill="#4D0F04" stroke="#4D0F04"/>
<path d="M24.419 32.3995C28.8905 31.7288 31.6077 37.2143 31.9803 39.3569C32.2598 41.4995 32.6914 47.3234 26.6547 48.8884C20.6181 50.4535 23.0216 43.6716 23.5805 40.2248C23.6737 38.6411 19.9474 33.0702 24.419 32.3995Z" fill="#4D0F04" stroke="#4D0F04"/>
<path d="M43.049 47.3196C39.996 43.9843 35.9568 46.0119 34.3189 47.4425C32.7533 48.9318 30.5488 53.1642 34.2554 58.1794C37.9619 63.1945 42.3313 62.6369 42.2883 58.2489C42.2453 53.8609 46.1021 50.6548 43.049 47.3196Z" fill="#4D0F04" stroke="#4D0F04"/>
<path d="M17.7436 66.44L23.0992 30.9038C23.5724 27.7639 27.061 26.0885 29.8075 27.6822L52.6475 40.9359C55.394 42.5296 55.6705 46.3898 53.1792 48.3586L24.9836 70.6412C21.7817 73.1716 17.1355 70.4754 17.7436 66.44Z" stroke="#4D0F04" stroke-width="3"/>
</g>
<rect x="24.1296" y="20.1954" width="43.6706" height="5.38421" rx="2.69211" transform="rotate(30 24.1296 20.1954)" fill="#EDB18C" stroke="#4D0F04" stroke-width="3" stroke-linejoin="round"/>
<mask id="path-9-outside-1_70_152" maskUnits="userSpaceOnUse" x="6.03191" y="-0.595886" width="60" height="72" fill="black">
<rect fill="white" x="6.03191" y="-0.595886" width="60" height="72"/>
<path fill-rule="evenodd" clip-rule="evenodd" d="M34.4128 7.64487C33.7458 7.52226 32.1318 7.86571 31.012 10.2204C30.3466 11.6194 29.4722 12.6313 28.6738 13.5552C27.7925 14.5749 27.0039 15.4875 26.6912 16.6954C26.4194 17.7453 27.7711 17.7627 29.2861 17.7822C30.1498 17.7933 31.0667 17.8051 31.7661 18.0092C33.3603 18.0421 36.6494 17.9857 37.0513 17.4975C37.5538 16.8873 40.6628 18.2337 35.6826 18.9967C34.4383 19.6787 32.2154 21.4663 33.2779 23.1604L34.3098 22.2182L34.3906 23.0527C34.5491 22.7566 35.0887 22.1428 35.9789 22.0566C36.869 21.9704 39.3708 22.2898 40.5104 22.4602C40.3638 21.9128 42.3768 21.4372 42.3768 21.4372C42.3768 21.4372 42.1824 24.8359 42.7299 27.5907C41.4737 29.1162 41.0566 30.4802 44.6532 32.8275L41.8176 32.5405L39.5565 35.2864L40.4718 36.0402L42.06 35.0441L42.1408 35.8786L43.1727 34.9363C44.2495 34.4577 46.8302 33.8522 48.5388 35.2592L48.3772 33.5901L50.9258 36.7127C49.3079 37.0126 50.0906 37.6466 50.3388 37.8477C50.415 37.9095 50.4408 37.9304 50.3312 37.8882C49.8646 37.7088 48.4139 37.4187 47.7469 37.2961L45.4049 39.2075L45.4857 40.042L47.0739 39.0459L46.6522 40.4906L48.2674 39.7727L48.8776 40.2752L50.4928 39.5573L51.6594 40.0059L53.2745 39.2879L52.8787 37.0488C53.6361 36.744 54.7354 36.9778 55.7745 37.1988C56.8366 37.4247 57.8359 37.6372 58.3427 37.2475C58.9386 36.7892 59.5823 36.0493 60.1817 35.1403C60.0262 42.2094 56.8656 50.1889 53.7132 53.5992C45.6492 62.3229 24.1655 65.8788 19.0201 62.8458C13.8746 59.8128 9.03191 59.3315 9.03191 59.3315C9.03191 59.3315 17.8336 63.822 20.5031 67.1716C23.1727 70.5211 47.4144 67.7877 54.6383 61.7262C63.486 54.3021 65.5551 37.0344 62.455 29.2089C62.7038 27.1211 62.2608 25.1463 60.579 23.9528C60.4115 23.8339 60.3455 23.3462 60.248 22.625C59.8149 19.4217 58.7592 11.6137 45.4143 11.0722C44.137 10.4472 41.7495 9.18081 42.4171 9.11618C43.2516 9.03538 46.7778 1.95525 39.1506 4.37838C39.1506 4.37838 40.7819 3.0872 39.6364 2.50195C38.4908 1.91671 34.9582 3.99807 34.4128 7.64487Z"/>
</mask>
<path fill-rule="evenodd" clip-rule="evenodd" d="M34.4128 7.64487C33.7458 7.52226 32.1318 7.86571 31.012 10.2204C30.3466 11.6194 29.4722 12.6313 28.6738 13.5552C27.7925 14.5749 27.0039 15.4875 26.6912 16.6954C26.4194 17.7453 27.7711 17.7627 29.2861 17.7822C30.1498 17.7933 31.0667 17.8051 31.7661 18.0092C33.3603 18.0421 36.6494 17.9857 37.0513 17.4975C37.5538 16.8873 40.6628 18.2337 35.6826 18.9967C34.4383 19.6787 32.2154 21.4663 33.2779 23.1604L34.3098 22.2182L34.3906 23.0527C34.5491 22.7566 35.0887 22.1428 35.9789 22.0566C36.869 21.9704 39.3708 22.2898 40.5104 22.4602C40.3638 21.9128 42.3768 21.4372 42.3768 21.4372C42.3768 21.4372 42.1824 24.8359 42.7299 27.5907C41.4737 29.1162 41.0566 30.4802 44.6532 32.8275L41.8176 32.5405L39.5565 35.2864L40.4718 36.0402L42.06 35.0441L42.1408 35.8786L43.1727 34.9363C44.2495 34.4577 46.8302 33.8522 48.5388 35.2592L48.3772 33.5901L50.9258 36.7127C49.3079 37.0126 50.0906 37.6466 50.3388 37.8477C50.415 37.9095 50.4408 37.9304 50.3312 37.8882C49.8646 37.7088 48.4139 37.4187 47.7469 37.2961L45.4049 39.2075L45.4857 40.042L47.0739 39.0459L46.6522 40.4906L48.2674 39.7727L48.8776 40.2752L50.4928 39.5573L51.6594 40.0059L53.2745 39.2879L52.8787 37.0488C53.6361 36.744 54.7354 36.9778 55.7745 37.1988C56.8366 37.4247 57.8359 37.6372 58.3427 37.2475C58.9386 36.7892 59.5823 36.0493 60.1817 35.1403C60.0262 42.2094 56.8656 50.1889 53.7132 53.5992C45.6492 62.3229 24.1655 65.8788 19.0201 62.8458C13.8746 59.8128 9.03191 59.3315 9.03191 59.3315C9.03191 59.3315 17.8336 63.822 20.5031 67.1716C23.1727 70.5211 47.4144 67.7877 54.6383 61.7262C63.486 54.3021 65.5551 37.0344 62.455 29.2089C62.7038 27.1211 62.2608 25.1463 60.579 23.9528C60.4115 23.8339 60.3455 23.3462 60.248 22.625C59.8149 19.4217 58.7592 11.6137 45.4143 11.0722C44.137 10.4472 41.7495 9.18081 42.4171 9.11618C43.2516 9.03538 46.7778 1.95525 39.1506 4.37838C39.1506 4.37838 40.7819 3.0872 39.6364 2.50195C38.4908 1.91671 34.9582 3.99807 34.4128 7.64487Z" fill="#FDDCC3"/>
<path d="M31.012 10.2204L32.8181 11.0793L32.8181 11.0793L31.012 10.2204ZM34.4128 7.64487L34.0512 9.61192C34.5843 9.7099 35.1343 9.58735 35.5753 9.27231C36.0163 8.95728 36.3106 8.47674 36.3908 7.94071L34.4128 7.64487ZM28.6738 13.5552L30.187 14.8629L30.187 14.8629L28.6738 13.5552ZM26.6912 16.6954L28.6274 17.1967L28.6274 17.1967L26.6912 16.6954ZM29.2861 17.7822L29.2604 19.782L29.2604 19.782L29.2861 17.7822ZM31.7661 18.0092L31.2057 19.9291C31.3745 19.9784 31.5491 20.0052 31.7249 20.0088L31.7661 18.0092ZM37.0513 17.4975L35.5074 16.2262L35.5074 16.2262L37.0513 17.4975ZM35.6826 18.9967L35.3798 17.0198C35.1489 17.0551 34.9261 17.1306 34.7213 17.2429L35.6826 18.9967ZM33.2779 23.1604L31.5836 24.2231C31.8987 24.7255 32.4205 25.0622 33.0081 25.1422C33.5957 25.2222 34.1886 25.0372 34.6265 24.6374L33.2779 23.1604ZM34.3098 22.2182L36.3005 22.0255C36.2275 21.2714 35.7348 20.6234 35.0277 20.3515C34.3207 20.0796 33.5206 20.2305 32.9612 20.7413L34.3098 22.2182ZM34.3906 23.0527L32.3999 23.2454C32.4849 24.1227 33.134 24.8409 33.9982 25.0138C34.8624 25.1868 35.738 24.7736 36.1539 23.9966L34.3906 23.0527ZM35.9789 22.0566L36.1716 24.0473L36.1716 24.0473L35.9789 22.0566ZM40.5104 22.4602L40.2146 24.4382C40.8813 24.5379 41.5534 24.2951 42.0024 23.7922C42.4513 23.2893 42.6167 22.594 42.4423 21.9428L40.5104 22.4602ZM42.3768 21.4372L44.3736 21.5514C44.4096 20.921 44.1459 20.3106 43.6621 19.9049C43.1784 19.4991 42.5314 19.3456 41.9169 19.4908L42.3768 21.4372ZM42.7299 27.5907L44.2738 28.8621C44.6551 28.399 44.8084 27.7892 44.6915 27.2009L42.7299 27.5907ZM44.6532 32.8275L44.4518 34.8174C45.3696 34.9103 46.2318 34.3634 46.539 33.4937C46.8463 32.6239 46.5188 31.6568 45.7463 31.1527L44.6532 32.8275ZM41.8176 32.5405L42.0191 30.5507C41.3538 30.4833 40.6988 30.7529 40.2737 31.2691L41.8176 32.5405ZM39.5565 35.2864L38.0126 34.0151C37.6754 34.4246 37.5147 34.9512 37.5658 35.4792C37.6169 36.0071 37.8756 36.4932 38.2851 36.8304L39.5565 35.2864ZM40.4718 36.0402L39.2004 37.5841C39.865 38.1313 40.8051 38.1919 41.5344 37.7345L40.4718 36.0402ZM42.06 35.0441L44.0507 34.8513C43.9839 34.1614 43.5646 33.5552 42.9426 33.2493C42.3206 32.9435 41.5846 32.9814 40.9974 33.3497L42.06 35.0441ZM42.1408 35.8786L40.1501 36.0713C40.2231 36.8253 40.7159 37.4734 41.4229 37.7453C42.13 38.0172 42.93 37.8663 43.4894 37.3555L42.1408 35.8786ZM43.1727 34.9363L42.3604 33.1087C42.1639 33.1961 41.9829 33.3145 41.8241 33.4594L43.1727 34.9363ZM48.5388 35.2592L47.2674 36.8031C47.8919 37.3173 48.7646 37.4047 49.4787 37.0246C50.1927 36.6444 50.6074 35.8716 50.5295 35.0664L48.5388 35.2592ZM48.3772 33.5901L49.9267 32.3255C49.3694 31.6427 48.4309 31.4052 47.6159 31.7407C46.8009 32.0762 46.3016 32.9056 46.3865 33.7828L48.3772 33.5901ZM50.9258 36.7127L51.2902 38.6793C51.985 38.5505 52.5602 38.0647 52.8035 37.4014C53.0468 36.738 52.922 35.9955 52.4752 35.4481L50.9258 36.7127ZM50.3388 37.8477L49.0798 39.4017L49.0798 39.4017L50.3388 37.8477ZM50.3312 37.8882L51.0491 36.0215L51.0491 36.0215L50.3312 37.8882ZM47.7469 37.2961L48.1084 35.329C47.5314 35.223 46.9368 35.3756 46.4823 35.7466L47.7469 37.2961ZM45.4049 39.2075L44.1403 37.6581C43.6222 38.0809 43.3498 38.7346 43.4142 39.4002L45.4049 39.2075ZM45.4857 40.042L43.495 40.2348C43.5618 40.9247 43.9811 41.5308 44.6031 41.8367C45.2251 42.1426 45.9611 42.1046 46.5483 41.7364L45.4857 40.042ZM47.0739 39.0459L48.9938 39.6063C49.2265 38.8092 48.9424 37.9512 48.28 37.4505C47.6176 36.9498 46.7147 36.9104 46.0113 37.3516L47.0739 39.0459ZM46.6522 40.4906L44.7324 39.9303C44.5142 40.6778 44.7497 41.4841 45.3361 41.9965C45.9225 42.509 46.753 42.6345 47.4646 42.3182L46.6522 40.4906ZM48.2674 39.7727L49.5388 38.2288C48.954 37.7472 48.1473 37.6374 47.4551 37.9451L48.2674 39.7727ZM48.8776 40.2752L47.6063 41.8191C48.1911 42.3007 48.9977 42.4105 49.69 42.1028L48.8776 40.2752ZM50.4928 39.5573L51.2107 37.6905C50.7156 37.5001 50.1652 37.5142 49.6805 37.7297L50.4928 39.5573ZM51.6594 40.0059L50.9415 41.8726C51.4366 42.063 51.987 42.0489 52.4717 41.8335L51.6594 40.0059ZM53.2745 39.2879L54.0869 41.1155C54.9266 40.7423 55.404 39.8448 55.244 38.9398L53.2745 39.2879ZM52.8787 37.0488L52.1321 35.1934C51.2548 35.5464 50.7447 36.4657 50.9093 37.3969L52.8787 37.0488ZM55.7745 37.1988L56.1905 35.2425L56.1905 35.2425L55.7745 37.1988ZM58.3427 37.2475L59.5618 38.8329L59.5618 38.8329L58.3427 37.2475ZM60.1817 35.1403L62.1812 35.1843C62.2008 34.2932 61.6283 33.4966 60.7774 33.2311C59.9265 32.9656 59.0026 33.2952 58.512 34.0394L60.1817 35.1403ZM53.7132 53.5992L52.2446 52.2416L52.2446 52.2416L53.7132 53.5992ZM19.0201 62.8458L20.0357 61.1228L20.0356 61.1228L19.0201 62.8458ZM9.03191 59.3315L9.22972 57.3413C8.27276 57.2462 7.38359 57.8456 7.11282 58.7684C6.84205 59.6911 7.26635 60.676 8.12298 61.113L9.03191 59.3315ZM20.5031 67.1716L18.9391 68.4181L18.9391 68.4181L20.5031 67.1716ZM54.6383 61.7262L55.9238 63.2583L55.9238 63.2583L54.6383 61.7262ZM62.455 29.2089L60.469 28.9722C60.4297 29.3021 60.4732 29.6366 60.5956 29.9455L62.455 29.2089ZM60.579 23.9528L59.4215 25.5839L59.4215 25.5839L60.579 23.9528ZM60.248 22.625L58.266 22.8929L58.266 22.8929L60.248 22.625ZM45.4143 11.0722L44.5351 12.8686C44.7842 12.9906 45.056 13.0594 45.3332 13.0706L45.4143 11.0722ZM42.4171 9.11618L42.6098 11.1069L42.4171 9.11618ZM39.1506 4.37838L37.9093 2.81016C37.1521 3.40951 36.9313 4.46436 37.3846 5.31711C37.8378 6.16985 38.8357 6.5769 39.7561 6.2845L39.1506 4.37838ZM39.6364 2.50195L38.7264 4.28298L38.7264 4.28298L39.6364 2.50195ZM32.8181 11.0793C33.6308 9.37046 34.4481 9.68488 34.0512 9.61192L34.7744 5.67783C33.0434 5.35965 30.6327 6.36096 29.2058 9.36143L32.8181 11.0793ZM30.187 14.8629C30.9784 13.9471 32.023 12.7514 32.8181 11.0793L29.2058 9.36143C28.6703 10.4875 27.966 11.3154 27.1606 12.2474L30.187 14.8629ZM28.6274 17.1967C28.803 16.5182 29.2461 15.9516 30.187 14.8629L27.1606 12.2474C26.339 13.1982 25.2048 14.4569 24.755 16.1942L28.6274 17.1967ZM29.3119 15.7823C28.9212 15.7773 28.6042 15.7728 28.3269 15.7556C28.0383 15.7377 27.9011 15.7114 27.8574 15.6992C27.7821 15.6781 28.0939 15.7387 28.369 16.1055C28.5203 16.3072 28.6122 16.5406 28.6438 16.7699C28.6733 16.9839 28.6428 17.137 28.6274 17.1967L24.755 16.1942C24.5804 16.8685 24.5948 17.7399 25.1689 18.5053C25.6683 19.1713 26.3617 19.4343 26.7797 19.5512C27.5848 19.7765 28.6144 19.7737 29.2604 19.782L29.3119 15.7823ZM32.3264 16.0893C31.3093 15.7924 30.0859 15.7923 29.3119 15.7823L29.2604 19.782C30.2138 19.7943 30.824 19.8177 31.2057 19.9291L32.3264 16.0893ZM35.5074 16.2262C35.6819 16.0143 35.8573 15.9022 35.9339 15.8575C36.019 15.8077 36.0777 15.7862 36.0861 15.7831C36.0992 15.7783 36.0506 15.7961 35.9099 15.8226C35.6354 15.8743 35.2283 15.9197 34.7236 15.9531C33.7275 16.0191 32.5679 16.0253 31.8073 16.0096L31.7249 20.0088C32.5584 20.026 33.8405 20.0204 34.988 19.9444C35.5551 19.9068 36.1453 19.8486 36.6503 19.7535C36.8994 19.7066 37.1862 19.6401 37.4624 19.5389C37.6646 19.4648 38.19 19.261 38.5953 18.7689L35.5074 16.2262ZM35.9855 20.9736C37.2814 20.7751 38.3164 20.5069 39.0434 20.1009C39.3975 19.9031 39.9178 19.5425 40.2292 18.9133C40.612 18.1398 40.5104 17.312 40.1292 16.6887C39.8138 16.173 39.3698 15.8828 39.0813 15.7314C38.7633 15.5646 38.4274 15.4582 38.1119 15.4001C37.8023 15.3431 37.4215 15.316 37.0196 15.3815C36.6527 15.4412 36.0029 15.6245 35.5074 16.2262L38.5953 18.7689C38.2255 19.218 37.7827 19.3099 37.6625 19.3294C37.5074 19.3547 37.413 19.3386 37.3877 19.334C37.3565 19.3282 37.3028 19.3154 37.2231 19.2736C37.173 19.2473 36.9234 19.1135 36.7167 18.7756C36.4444 18.3302 36.3658 17.7017 36.6443 17.139C36.7542 16.9169 36.8862 16.7776 36.9638 16.7071C37.0045 16.6702 37.0378 16.6453 37.0587 16.6307C37.0798 16.616 37.0922 16.6091 37.0929 16.6087C37.0938 16.6082 37.0858 16.6127 37.0671 16.6213C37.0485 16.6298 37.0212 16.6415 36.984 16.6558C36.9087 16.6848 36.8016 16.7208 36.656 16.7613C36.3624 16.843 35.9479 16.9327 35.3798 17.0198L35.9855 20.9736ZM34.9723 22.0978C34.9679 22.0908 34.9839 22.1157 34.9931 22.1665C35.0021 22.2159 34.9977 22.2516 34.9959 22.2612C34.9949 22.2665 34.9994 22.2389 35.0308 22.1765C35.0623 22.1138 35.1141 22.0296 35.1941 21.9267C35.5489 21.4704 36.1661 21.0124 36.6439 20.7505L34.7213 17.2429C33.9548 17.663 32.8384 18.4399 32.0364 19.4713C31.2387 20.4971 30.3945 22.3272 31.5836 24.2231L34.9723 22.0978ZM32.9612 20.7413L31.9293 21.6835L34.6265 24.6374L35.6584 23.6951L32.9612 20.7413ZM36.3813 22.86L36.3005 22.0255L32.3191 22.4109L32.3999 23.2454L36.3813 22.86ZM35.7861 20.0659C34.0605 20.233 33.0114 21.3914 32.6274 22.1088L36.1539 23.9966C36.1423 24.0183 36.1323 24.0351 36.1249 24.047C36.1174 24.0591 36.1114 24.0682 36.107 24.0743C36.1027 24.0806 36.0995 24.0848 36.0975 24.0873C36.0956 24.0898 36.0945 24.091 36.0944 24.0911C36.0944 24.0912 36.0967 24.0885 36.1012 24.0842C36.1057 24.08 36.1111 24.0754 36.1171 24.0708C36.1295 24.0615 36.1398 24.056 36.1469 24.053C36.1503 24.0516 36.1534 24.0506 36.1565 24.0498C36.1596 24.049 36.1644 24.048 36.1716 24.0473L35.7861 20.0659ZM40.8063 20.4822C40.2129 20.3935 39.2715 20.2668 38.3556 20.1727C37.516 20.0863 36.4649 20.0002 35.7861 20.0659L36.1716 24.0473C36.383 24.0268 37.0278 24.0572 37.9466 24.1517C38.7891 24.2383 39.6683 24.3565 40.2146 24.4382L40.8063 20.4822ZM42.3768 21.4372C41.9169 19.4908 41.9166 19.4908 41.9164 19.4909C41.9163 19.4909 41.916 19.491 41.9158 19.491C41.9154 19.4911 41.9149 19.4912 41.9144 19.4914C41.9135 19.4916 41.9124 19.4918 41.9112 19.4921C41.9088 19.4927 41.9059 19.4934 41.9025 19.4942C41.8958 19.4958 41.8871 19.4979 41.8766 19.5005C41.8556 19.5057 41.8273 19.5128 41.7927 19.5217C41.7238 19.5394 41.6287 19.5646 41.5163 19.5967C41.2969 19.6592 40.9871 19.7545 40.6679 19.8778C40.3793 19.9893 39.9485 20.1738 39.5682 20.4488C39.3809 20.5842 39.0871 20.8252 38.8542 21.1964C38.5955 21.609 38.3826 22.246 38.5785 22.9776L42.4423 21.9428C42.5151 22.2144 42.5201 22.4916 42.4686 22.7497C42.419 22.9983 42.3252 23.1905 42.2428 23.3218C42.1616 23.4514 42.0803 23.5398 42.0282 23.5909C41.9747 23.6433 41.9323 23.6755 41.9122 23.6901C41.8759 23.7163 41.8716 23.7141 41.9206 23.69C41.9645 23.6683 42.0275 23.6407 42.1094 23.6091C42.2751 23.545 42.4595 23.4872 42.6129 23.4434C42.6869 23.4223 42.748 23.4061 42.7886 23.3957C42.8087 23.3905 42.8235 23.3868 42.832 23.3848C42.8362 23.3837 42.8387 23.3831 42.8396 23.3829C42.84 23.3828 42.84 23.3828 42.8395 23.3829C42.8393 23.383 42.839 23.3831 42.8385 23.3832C42.8383 23.3832 42.838 23.3833 42.8377 23.3833C42.8376 23.3834 42.8373 23.3834 42.8373 23.3835C42.837 23.3835 42.8368 23.3836 42.3768 21.4372ZM44.6915 27.2009C44.4517 25.9943 44.3668 24.5926 44.3478 23.4477C44.3384 22.8848 44.3452 22.4033 44.3543 22.0648C44.3588 21.8958 44.3639 21.7632 44.3677 21.6749C44.3696 21.6308 44.3712 21.5978 44.3722 21.5768C44.3728 21.5664 44.3732 21.559 44.3734 21.5547C44.3735 21.5525 44.3736 21.5512 44.3736 21.5506C44.3736 21.5504 44.3736 21.5503 44.3736 21.5504C44.3736 21.5505 44.3736 21.5506 44.3736 21.5508C44.3736 21.5508 44.3736 21.551 44.3736 21.551C44.3736 21.5512 44.3736 21.5514 42.3768 21.4372C40.3801 21.3229 40.3801 21.3231 40.3801 21.3234C40.3801 21.3235 40.3801 21.3237 40.3801 21.3239C40.38 21.3243 40.38 21.3247 40.38 21.3252C40.3799 21.3261 40.3799 21.3273 40.3798 21.3287C40.3796 21.3314 40.3794 21.335 40.3792 21.3393C40.3787 21.3481 40.3781 21.3601 40.3773 21.3752C40.3758 21.4054 40.3738 21.4481 40.3714 21.5023C40.3667 21.6106 40.3609 21.7651 40.3557 21.9578C40.3454 22.3425 40.3378 22.8829 40.3483 23.5141C40.369 24.7573 40.4605 26.4323 40.7682 27.9806L44.6915 27.2009ZM45.7463 31.1527C44.923 30.6153 44.4204 30.1917 44.1248 29.8732C43.832 29.5576 43.814 29.4225 43.8216 29.456C43.862 29.6328 43.6743 29.5901 44.2738 28.8621L41.186 26.3194C40.5292 27.1169 39.5049 28.5189 39.9219 30.3459C40.2991 31.9991 41.7205 33.3018 43.5602 34.5024L45.7463 31.1527ZM41.6162 34.5303L44.4518 34.8174L44.8547 30.8377L42.0191 30.5507L41.6162 34.5303ZM41.1004 36.5578L43.3616 33.8119L40.2737 31.2691L38.0126 34.0151L41.1004 36.5578ZM41.7431 34.4963L40.8278 33.7425L38.2851 36.8304L39.2004 37.5841L41.7431 34.4963ZM40.9974 33.3497L39.4091 34.3458L41.5344 37.7345L43.1227 36.7384L40.9974 33.3497ZM44.1315 35.6858L44.0507 34.8513L40.0693 35.2368L40.1501 36.0713L44.1315 35.6858ZM41.8241 33.4594L40.7922 34.4017L43.4894 37.3555L44.5213 36.4133L41.8241 33.4594ZM49.8101 33.7152C48.4481 32.5936 46.8279 32.3464 45.5477 32.3919C44.2683 32.4374 43.1032 32.7785 42.3604 33.1087L43.9851 36.7639C44.319 36.6155 44.9826 36.4145 45.6899 36.3894C46.3965 36.3643 46.9209 36.5177 47.2674 36.8031L49.8101 33.7152ZM46.3865 33.7828L46.5481 35.4519L50.5295 35.0664L50.3679 33.3974L46.3865 33.7828ZM52.4752 35.4481L49.9267 32.3255L46.8278 34.8547L49.3763 37.9773L52.4752 35.4481ZM51.5978 36.2937C51.5275 36.2368 51.5496 36.2505 51.5862 36.2913C51.6085 36.3161 51.6672 36.3841 51.7298 36.4949C51.7912 36.6034 51.8886 36.8098 51.9204 37.0973C51.9551 37.4109 51.9032 37.7559 51.7381 38.0734C51.5829 38.3717 51.3807 38.5451 51.2604 38.6289C51.0614 38.7677 50.9824 38.7363 51.2902 38.6793L50.5613 34.7462C50.0603 34.8391 49.4724 34.9994 48.9728 35.3477C48.3644 35.7718 47.8344 36.5408 47.9447 37.5372C48.0274 38.2853 48.4487 38.7842 48.6104 38.9642C48.813 39.1898 49.026 39.3581 49.0798 39.4017L51.5978 36.2937ZM49.6133 39.7549C49.6361 39.7637 49.7561 39.8109 49.8962 39.8466C49.9006 39.8477 50.2128 39.9394 50.6022 39.9002C50.7747 39.8828 51.426 39.8001 51.9333 39.1987C52.5379 38.4818 52.4241 37.6821 52.3222 37.3384C52.2262 37.0145 52.0707 36.7964 52.0199 36.7266C51.9504 36.6311 51.8867 36.5613 51.8524 36.525C51.7835 36.4522 51.7227 36.3988 51.7013 36.3801C51.655 36.3396 51.6045 36.2991 51.5978 36.2937L49.0798 39.4017C49.1112 39.4272 49.0925 39.4124 49.0691 39.392C49.0591 39.3832 49.0075 39.3384 48.9453 39.2725C48.9143 39.2397 48.8532 39.173 48.7857 39.0803C48.7369 39.0133 48.5827 38.7975 48.4872 38.4755C48.3859 38.1337 48.2719 37.3355 48.8756 36.6197C49.382 36.0194 50.0316 35.9374 50.2016 35.9203C50.436 35.8967 50.6194 35.9211 50.689 35.9314C50.7769 35.9444 50.8455 35.9607 50.8825 35.9701C50.9991 35.9998 51.0811 36.0338 51.0491 36.0215L49.6133 39.7549ZM47.3853 39.2631C47.702 39.3213 48.209 39.4202 48.687 39.5247C48.9264 39.577 49.1472 39.6283 49.3278 39.6746C49.4179 39.6977 49.4906 39.7177 49.5459 39.734C49.6061 39.7518 49.624 39.759 49.6133 39.7549L51.0491 36.0215C50.6473 35.867 50.0116 35.7198 49.5414 35.617C49.0107 35.5009 48.4588 35.3934 48.1084 35.329L47.3853 39.2631ZM46.6695 40.7569L49.0115 38.8455L46.4823 35.7466L44.1403 37.6581L46.6695 40.7569ZM47.4764 39.8493L47.3956 39.0148L43.4142 39.4002L43.495 40.2348L47.4764 39.8493ZM46.0113 37.3516L44.423 38.3477L46.5483 41.7364L48.1366 40.7403L46.0113 37.3516ZM48.5721 41.051L48.9938 39.6063L45.154 38.4855L44.7324 39.9303L48.5721 41.051ZM47.4551 37.9451L45.8399 38.6631L47.4646 42.3182L49.0798 41.6003L47.4551 37.9451ZM50.149 38.7313L49.5388 38.2288L46.9961 41.3166L47.6063 41.8191L50.149 38.7313ZM49.6805 37.7297L48.0653 38.4476L49.69 42.1028L51.3052 41.3848L49.6805 37.7297ZM52.3772 38.1392L51.2107 37.6905L49.7749 41.424L50.9415 41.8726L52.3772 38.1392ZM52.4622 37.4603L50.847 38.1783L52.4717 41.8335L54.0869 41.1155L52.4622 37.4603ZM50.9093 37.3969L51.3051 39.6361L55.244 38.9398L54.8482 36.7007L50.9093 37.3969ZM56.1905 35.2425C55.696 35.1374 55.0459 34.9967 54.4122 34.9358C53.7988 34.8769 52.9535 34.8629 52.1321 35.1934L53.6254 38.9042C53.5613 38.93 53.6443 38.8805 54.0297 38.9175C54.3947 38.9526 54.8138 39.0392 55.3584 39.1551L56.1905 35.2425ZM57.1235 35.662C57.3231 35.5085 57.4967 35.4721 57.5366 35.4652C57.5716 35.4592 57.542 35.4688 57.4128 35.4593C57.2893 35.4503 57.1264 35.428 56.9101 35.3887C56.6937 35.3494 56.462 35.3003 56.1905 35.2425L55.3584 39.155C55.8499 39.2596 56.5105 39.404 57.1208 39.4486C57.6614 39.4882 58.6905 39.5029 59.5618 38.8329L57.1235 35.662ZM58.512 34.0394C57.9828 34.842 57.4815 35.3868 57.1235 35.662L59.5618 38.8329C60.3958 38.1916 61.1818 37.2567 61.8514 36.2413L58.512 34.0394ZM55.1819 54.9568C57.0068 52.9826 58.6985 49.8638 59.9505 46.4262C61.2132 42.9592 62.0977 38.9791 62.1812 35.1843L58.1822 35.0964C58.1101 38.3706 57.3366 41.9148 56.192 45.0574C55.0368 48.2294 53.5721 50.8055 52.2446 52.2416L55.1819 54.9568ZM18.0044 64.5687C19.8024 65.6285 22.6005 65.9509 25.5077 65.9071C28.534 65.8615 32.0941 65.4068 35.7165 64.5813C42.8651 62.9522 50.7356 59.7668 55.1819 54.9568L52.2446 52.2416C48.6268 56.1553 41.7234 59.1098 34.8277 60.6813C31.428 61.456 28.1485 61.8669 25.4474 61.9076C22.6273 61.9501 20.8104 61.5795 20.0357 61.1228L18.0044 64.5687ZM9.03191 59.3315C8.8341 61.3217 8.83361 61.3216 8.83315 61.3216C8.83302 61.3216 8.83257 61.3215 8.83231 61.3215C8.83179 61.3214 8.83134 61.3214 8.83096 61.3214C8.8302 61.3213 8.82974 61.3212 8.82956 61.3212C8.82919 61.3212 8.82998 61.3213 8.83189 61.3215C8.83572 61.3219 8.84407 61.3228 8.85679 61.3243C8.88224 61.3272 8.92517 61.3324 8.98449 61.3404C9.10318 61.3563 9.28719 61.3831 9.52782 61.4248C10.0095 61.5082 10.7153 61.6505 11.5762 61.8824C13.3031 62.3477 15.6236 63.1653 18.0045 64.5687L20.0356 61.1228C17.2711 59.4933 14.5975 58.5538 12.6167 58.0201C11.6237 57.7526 10.7972 57.585 10.2101 57.4834C9.91637 57.4325 9.68184 57.3981 9.51559 57.3758C9.43245 57.3646 9.36631 57.3566 9.31831 57.351C9.2943 57.3482 9.27483 57.346 9.26002 57.3444C9.25261 57.3436 9.24637 57.343 9.24132 57.3425C9.23879 57.3422 9.23656 57.342 9.23462 57.3418C9.23365 57.3417 9.23276 57.3416 9.23194 57.3415C9.23154 57.3415 9.23098 57.3414 9.23077 57.3414C9.23024 57.3413 9.22972 57.3413 9.03191 59.3315ZM22.0672 65.925C21.2363 64.8825 20.0193 63.8509 18.7773 62.9281C17.5097 61.9862 16.1028 61.0756 14.8058 60.2867C13.5051 59.4956 12.2932 58.8138 11.4073 58.3301C10.9638 58.0879 10.6003 57.8945 10.3463 57.7609C10.2193 57.6941 10.1196 57.6422 10.0508 57.6066C10.0164 57.5888 9.98976 57.575 9.97128 57.5655C9.96204 57.5608 9.95484 57.5571 9.94975 57.5545C9.9472 57.5532 9.94518 57.5522 9.94369 57.5514C9.94295 57.551 9.94234 57.5507 9.94186 57.5505C9.94162 57.5503 9.94137 57.5502 9.94125 57.5502C9.94102 57.55 9.94083 57.5499 9.03191 59.3315C8.12298 61.113 8.12286 61.1129 8.12277 61.1129C8.12278 61.1129 8.12273 61.1129 8.12275 61.1129C8.12281 61.1129 8.123 61.113 8.12333 61.1132C8.12397 61.1135 8.12515 61.1141 8.12684 61.115C8.13023 61.1167 8.1357 61.1195 8.1432 61.1234C8.15819 61.1311 8.18127 61.143 8.21199 61.1589C8.27344 61.1907 8.36542 61.2385 8.48429 61.3011C8.7221 61.4261 9.06712 61.6097 9.49041 61.8408C10.3383 62.3038 11.4937 62.954 12.7271 63.7042C13.9642 64.4566 15.2583 65.2967 16.3917 66.1389C17.5509 67.0001 18.4352 67.7859 18.9391 68.4181L22.0672 65.925ZM53.3527 60.1941C51.8495 61.4554 49.2798 62.6674 46.0278 63.6989C42.8244 64.7149 39.146 65.4985 35.5853 65.9974C32.0189 66.497 28.6397 66.7014 26.034 66.5881C24.7253 66.5312 23.6786 66.3967 22.9268 66.208C22.0733 65.9939 21.967 65.7993 22.0672 65.925L18.9391 68.4181C19.7067 69.3812 20.9419 69.8339 21.9533 70.0877C23.0664 70.3671 24.408 70.5212 25.8602 70.5843C28.7765 70.7111 32.4097 70.4814 36.1403 69.9587C39.8768 69.4352 43.7801 68.6082 47.2372 67.5117C50.6456 66.4305 53.815 65.0278 55.9238 63.2583L53.3527 60.1941ZM60.5956 29.9455C61.9537 33.3738 62.2581 39.2221 61.0654 45.2286C59.875 51.2232 57.2887 56.8914 53.3527 60.1941L55.9238 63.2583C60.8356 59.1369 63.7077 52.4592 64.9888 46.0076C66.2675 39.5678 66.0564 32.8695 64.3144 28.4723L60.5956 29.9455ZM59.4215 25.5839C60.2599 26.1788 60.674 27.2526 60.469 28.9722L64.4409 29.4456C64.7336 26.9896 64.2617 24.1138 61.7365 22.3218L59.4215 25.5839ZM58.266 22.8929C58.3104 23.221 58.3624 23.6174 58.4334 23.9419C58.4693 24.1064 58.5277 24.3385 58.6291 24.5775C58.7155 24.7813 58.9331 25.2373 59.4215 25.5839L61.7365 22.3218C61.9515 22.4744 62.0879 22.641 62.1668 22.7553C62.2458 22.8698 62.2903 22.9655 62.3115 23.0157C62.3339 23.0683 62.3441 23.103 62.346 23.1094C62.3483 23.1172 62.3463 23.1115 62.3411 23.0876C62.3299 23.0364 62.3148 22.9534 62.2948 22.8212C62.2751 22.6906 62.2549 22.5414 62.23 22.357L58.266 22.8929ZM45.3332 13.0706C51.6011 13.3249 54.596 15.2537 56.1271 17.1192C57.7215 19.062 58.0501 21.2957 58.266 22.8929L62.23 22.357C62.0128 20.751 61.597 17.4791 59.2191 14.5816C56.7778 11.607 52.5724 9.36103 45.4953 9.07389L45.3332 13.0706ZM42.2243 7.12548C42.0629 7.14111 41.629 7.19448 41.1935 7.49392C40.9477 7.66297 40.6834 7.92387 40.5033 8.29918C40.3216 8.67788 40.2808 9.05802 40.3103 9.37728C40.3623 9.93991 40.6295 10.3222 40.7257 10.4528C40.8522 10.6247 40.984 10.7541 41.0718 10.8347C41.3888 11.1256 41.8265 11.401 42.1593 11.6002C42.9027 12.0451 43.8764 12.5463 44.5351 12.8686L46.2934 9.27585C45.6749 8.97312 44.8161 8.52859 44.2134 8.16787C43.8731 7.96423 43.7593 7.87192 43.7764 7.88766C43.7893 7.89948 43.8619 7.96589 43.9469 8.08143C44.0017 8.15576 44.2452 8.48842 44.2933 9.00901C44.3209 9.30725 44.2831 9.66828 44.1095 10.0299C43.9376 10.3881 43.6868 10.6339 43.4599 10.7899C43.0621 11.0634 42.6878 11.0993 42.6098 11.1069L42.2243 7.12548ZM39.7561 6.2845C40.6072 6.01411 41.2175 5.90454 41.6355 5.8793C42.058 5.8538 42.1987 5.91928 42.1832 5.91239C42.1303 5.88887 42.0304 5.81063 41.9723 5.69606C41.9325 5.61752 41.9607 5.6168 41.9575 5.76436C41.9503 6.09136 41.8027 6.60179 41.5539 7.08409C41.4364 7.31188 41.3338 7.45955 41.2833 7.52101C41.2556 7.5548 41.2778 7.52079 41.3543 7.45974C41.377 7.44159 41.6902 7.1772 42.2243 7.12548L42.6098 11.1069C43.2483 11.0451 43.6868 10.7159 43.8492 10.5863C44.0653 10.4139 44.2413 10.2218 44.375 10.059C44.6473 9.72729 44.8975 9.3275 45.1087 8.91802C45.5174 8.1258 45.9312 7.0025 45.9565 5.85225C45.9832 4.63572 45.5339 3.02503 43.809 2.25769C42.3776 1.62096 40.5564 1.83325 38.545 2.47225L39.7561 6.2845ZM38.7264 4.28298C38.6549 4.24644 38.4781 4.13949 38.3152 3.91072C38.2339 3.79652 38.1664 3.66593 38.119 3.52331C38.0719 3.38156 38.0503 3.24506 38.0453 3.12219C38.0358 2.88355 38.0892 2.71422 38.1167 2.64175C38.145 2.56741 38.1687 2.53569 38.1602 2.54829C38.154 2.5576 38.1362 2.58212 38.1033 2.61951C38.0716 2.65559 38.0357 2.69272 37.9994 2.72768C37.9637 2.76214 37.9331 2.78929 37.9141 2.80559C37.9049 2.81352 37.8992 2.81823 37.898 2.81925C37.8973 2.81975 37.8979 2.81929 37.8997 2.8178C37.9007 2.81706 37.9019 2.81605 37.9035 2.81478C37.9043 2.81415 37.9052 2.81344 37.9062 2.81267C37.9066 2.81229 37.9071 2.81189 37.9077 2.81147C37.9079 2.81126 37.9084 2.81093 37.9085 2.81082C37.9089 2.81049 37.9093 2.81016 39.1506 4.37838C40.3918 5.9466 40.3923 5.94625 40.3927 5.9459C40.3929 5.94577 40.3933 5.94542 40.3936 5.94517C40.3943 5.94467 40.3949 5.94415 40.3956 5.94361C40.397 5.94252 40.3984 5.94135 40.4 5.94009C40.4031 5.93758 40.4067 5.93471 40.4107 5.93151C40.4186 5.9251 40.4282 5.91731 40.4393 5.90821C40.4614 5.89004 40.4896 5.86644 40.5228 5.83792C40.5885 5.78132 40.6764 5.70302 40.7757 5.60729C40.9622 5.42752 41.2422 5.13558 41.4858 4.77098C41.6958 4.45678 42.0758 3.8028 42.0421 2.9619C41.9991 1.89028 41.3341 1.12344 40.5463 0.720925L38.7264 4.28298ZM36.3908 7.94071C36.5773 6.69366 37.2841 5.67942 38.0723 5.0291C38.4666 4.70386 38.8232 4.51875 39.0558 4.43988C39.3902 4.3265 39.1697 4.50944 38.7264 4.28298L40.5463 0.720925C39.5302 0.201846 38.4386 0.425486 37.7714 0.651728C37.0024 0.912477 36.227 1.3659 35.5267 1.94369C34.1259 3.09944 32.7937 4.94928 32.4348 7.34903L36.3908 7.94071Z" fill="#4D0F04" mask="url(#path-9-outside-1_70_152)"/>
<path d="M31.8094 12.7211C32.1501 11.3585 33.5126 11.3585 33.8533 11.6992C34.1939 12.0398 33.4445 12.9936 31.8094 12.7211Z" fill="#4D0F04" stroke="#4D0F04" stroke-linecap="round"/>
<path d="M50.2039 13.9858C50.8284 14.1097 52.1115 14.5556 52.2477 15.3483" stroke="#4D0F04" stroke-linecap="round"/>
<path d="M46.7975 14.6671C47.422 14.791 48.7051 15.2369 48.8414 16.0296" stroke="#4D0F04" stroke-linecap="round"/>
<path d="M57.5226 34.6645C57.9568 34.6554 58.9075 34.819 59.2359 35.5463" stroke="#4D0F04" stroke-linecap="round"/>
<path d="M34.533 16.5719C34.4293 16.15 34.0252 15.2741 33.2378 15.1452" stroke="#4D0F04" stroke-linecap="round"/>
<path d="M58.3792 32.3803C58.7956 32.5041 59.6509 32.9501 59.7418 33.7428" stroke="#4D0F04" stroke-linecap="round"/>
<path d="M36.5176 15.1532C36.2902 14.7831 35.6381 14.0723 34.8488 14.1897" stroke="#4D0F04" stroke-linecap="round"/>
<path d="M60.1404 30.7779C60.4502 31.0824 60.9969 31.8772 60.7057 32.6201" stroke="#4D0F04" stroke-linecap="round"/>
<path d="M50.8852 16.7109C51.3015 16.8348 52.1569 17.2807 52.2477 18.0735" stroke="#4D0F04" stroke-linecap="round"/>
</g>
<path d="M96.392 26.264L96.356 27.488C94.436 28.52 92.036 29.324 89.156 29.9C91.22 30.452 93.212 30.728 95.132 30.728H95.888C97.208 32.672 98.06 35.096 98.444 38H89.12C88.88 36.32 88.388 34.88 87.644 33.68C86.924 32.456 86.036 31.628 84.98 31.196C84.956 31.604 84.944 32.42 84.944 33.644C84.944 34.868 85.016 36.32 85.16 38H77.312C76.616 34.52 76.268 31.292 76.268 28.316C76.268 25.316 76.436 22.544 76.772 20H95.564C96.116 22.424 96.392 24.512 96.392 26.264ZM85.736 22.412C85.448 24.524 85.232 26.6 85.088 28.64C86.408 28.448 87.488 27.98 88.328 27.236C87.872 25.628 87.008 24.02 85.736 22.412ZM124.258 37.712V38H115.906C115.81 36.68 115.606 35.264 115.294 33.752C113.614 35.432 111.934 36.848 110.254 38H101.866C101.698 37.016 101.614 35.72 101.614 34.112C101.614 32.48 101.854 30.848 102.334 29.216C104.062 28.712 105.718 27.86 107.302 26.66C108.91 25.46 110.074 24.164 110.794 22.772C110.122 21.716 109.438 20.792 108.742 20H120.694C123.07 25.208 124.258 31.112 124.258 37.712ZM114.646 31.124C114.046 29.06 113.23 27.044 112.198 25.076C111.07 28.388 110.422 31.52 110.254 34.472C112.03 33.512 113.494 32.396 114.646 31.124ZM141.898 22.34C141.274 26.132 140.962 29.228 140.962 31.628C140.962 34.028 141.058 36.152 141.25 38H133.402C132.586 34.184 132.178 30.08 132.178 25.688C132.178 24.944 132.202 23.828 132.25 22.34C130.21 22.94 128.962 24.32 128.506 26.48L124.942 26.264L126.238 20H150.178C149.698 22.64 149.146 24.8 148.522 26.48L144.886 26.264C144.982 25.88 145.03 25.496 145.03 25.112C145.03 24.176 144.742 23.48 144.166 23.024C143.59 22.568 142.834 22.34 141.898 22.34Z" fill="#FDDCC3"/>
<path d="M80.4432 58.2237C79.2699 58.2237 78.2607 57.9751 77.4155 57.478C76.5753 56.9759 75.929 56.2798 75.4766 55.3899C75.0291 54.5 74.8054 53.4759 74.8054 52.3175C74.8054 51.1442 75.0316 50.1151 75.484 49.2301C75.9414 48.3402 76.5902 47.6467 77.4304 47.1495C78.2706 46.6474 79.2699 46.3963 80.4283 46.3963C81.4276 46.3963 82.3026 46.5778 83.0533 46.9407C83.804 47.3036 84.3981 47.8132 84.8356 48.4695C85.2731 49.1257 85.5142 49.8963 85.5589 50.7812H82.5611C82.4766 50.2095 82.2528 49.7496 81.8899 49.4016C81.532 49.0487 81.0621 48.8722 80.4805 48.8722C79.9883 48.8722 79.5582 49.0064 79.1903 49.2749C78.8274 49.5384 78.544 49.9237 78.3402 50.4308C78.1364 50.9379 78.0344 51.5518 78.0344 52.2727C78.0344 53.0036 78.1339 53.625 78.3327 54.1371C78.5366 54.6491 78.8224 55.0394 79.1903 55.3079C79.5582 55.5763 79.9883 55.7106 80.4805 55.7106C80.8434 55.7106 81.169 55.636 81.4574 55.4869C81.7507 55.3377 81.9918 55.1214 82.1808 54.8381C82.3746 54.5497 82.5014 54.2042 82.5611 53.8015H85.5589C85.5092 54.6765 85.2706 55.4471 84.843 56.1133C84.4205 56.7745 83.8363 57.2915 83.0906 57.6644C82.3448 58.0373 81.4624 58.2237 80.4432 58.2237ZM93.4431 58.2237C92.2649 58.2237 91.2507 57.9851 90.4005 57.5078C89.5553 57.0256 88.9041 56.3445 88.4467 55.4645C87.9893 54.5795 87.7606 53.533 87.7606 52.3249C87.7606 51.1467 87.9893 50.1126 88.4467 49.2227C88.9041 48.3327 89.5479 47.6392 90.3781 47.142C91.2134 46.6449 92.1928 46.3963 93.3163 46.3963C94.072 46.3963 94.7755 46.5181 95.4268 46.7617C96.083 47.0004 96.6548 47.3608 97.142 47.843C97.6342 48.3253 98.017 48.9318 98.2904 49.6626C98.5639 50.3885 98.7006 51.2386 98.7006 52.2131V53.0856H89.0283V51.1168H95.7102C95.7102 50.6594 95.6107 50.2543 95.4119 49.9013C95.213 49.5483 94.9371 49.2724 94.5841 49.0735C94.2361 48.8697 93.8309 48.7678 93.3685 48.7678C92.8863 48.7678 92.4587 48.8796 92.0859 49.1033C91.718 49.3221 91.4296 49.6179 91.2208 49.9908C91.012 50.3587 90.9051 50.7688 90.9002 51.2212V53.093C90.9002 53.6598 91.0046 54.1495 91.2134 54.5621C91.4271 54.9748 91.7279 55.293 92.1157 55.5167C92.5035 55.7404 92.9634 55.8523 93.4953 55.8523C93.8483 55.8523 94.1715 55.8026 94.4648 55.7031C94.7581 55.6037 95.0092 55.4545 95.218 55.2557C95.4268 55.0568 95.5859 54.8132 95.6953 54.5249L98.6335 54.7188C98.4843 55.4247 98.1786 56.0412 97.7162 56.5682C97.2588 57.0902 96.6672 57.4979 95.9413 57.7912C95.2205 58.0795 94.3877 58.2237 93.4431 58.2237ZM104.581 51.3778V58H101.404V46.5455H104.431V48.5664H104.566C104.819 47.9002 105.244 47.3732 105.841 46.9854C106.437 46.5927 107.161 46.3963 108.011 46.3963C108.806 46.3963 109.5 46.5703 110.092 46.9183C110.683 47.2663 111.143 47.7635 111.471 48.4098C111.799 49.0511 111.963 49.8168 111.963 50.7067V58H108.787V51.2734C108.792 50.5724 108.613 50.0256 108.25 49.6328C107.887 49.2351 107.387 49.0362 106.751 49.0362C106.323 49.0362 105.945 49.1282 105.617 49.3121C105.294 49.4961 105.04 49.7646 104.857 50.1175C104.678 50.4656 104.586 50.8857 104.581 51.3778ZM121.19 46.5455V48.9318H114.292V46.5455H121.19ZM115.858 43.8011H119.035V54.4801C119.035 54.7734 119.079 55.0021 119.169 55.1662C119.258 55.3253 119.383 55.4371 119.542 55.5018C119.706 55.5664 119.895 55.5987 120.109 55.5987C120.258 55.5987 120.407 55.5863 120.556 55.5614C120.705 55.5316 120.82 55.5092 120.899 55.4943L121.399 57.8583C121.24 57.908 121.016 57.9652 120.728 58.0298C120.439 58.0994 120.089 58.1417 119.676 58.1566C118.91 58.1864 118.239 58.0845 117.663 57.8509C117.091 57.6172 116.646 57.2543 116.328 56.7621C116.009 56.2699 115.853 55.6484 115.858 54.8977V43.8011ZM123.889 58V46.5455H126.969V48.544H127.089C127.297 47.8331 127.648 47.2962 128.14 46.9332C128.632 46.5653 129.199 46.3814 129.84 46.3814C129.999 46.3814 130.171 46.3913 130.355 46.4112C130.539 46.4311 130.7 46.4585 130.84 46.4933V49.3121C130.69 49.2674 130.484 49.2276 130.221 49.1928C129.957 49.158 129.716 49.1406 129.497 49.1406C129.03 49.1406 128.612 49.2425 128.244 49.4464C127.882 49.6452 127.593 49.9237 127.379 50.2816C127.171 50.6396 127.066 51.0522 127.066 51.5195V58H123.889ZM136.05 58.2163C135.319 58.2163 134.668 58.0895 134.096 57.8359C133.525 57.5774 133.072 57.1971 132.739 56.695C132.411 56.1879 132.247 55.5565 132.247 54.8008C132.247 54.1644 132.364 53.63 132.598 53.1974C132.831 52.7649 133.149 52.4169 133.552 52.1534C133.955 51.8899 134.412 51.6911 134.924 51.5568C135.441 51.4226 135.983 51.3281 136.55 51.2734C137.216 51.2038 137.753 51.1392 138.161 51.0795C138.568 51.0149 138.864 50.9205 139.048 50.7962C139.232 50.6719 139.324 50.4879 139.324 50.2443V50.1996C139.324 49.7273 139.175 49.3619 138.877 49.1033C138.583 48.8448 138.166 48.7156 137.624 48.7156C137.052 48.7156 136.597 48.8423 136.259 49.0959C135.921 49.3445 135.697 49.6577 135.588 50.0355L132.65 49.7969C132.799 49.1009 133.092 48.4993 133.53 47.9922C133.967 47.4801 134.531 47.0874 135.223 46.8139C135.919 46.5355 136.724 46.3963 137.639 46.3963C138.275 46.3963 138.884 46.4709 139.466 46.62C140.052 46.7692 140.572 47.0004 141.024 47.3136C141.482 47.6268 141.842 48.0295 142.106 48.5217C142.369 49.0089 142.501 49.593 142.501 50.2741V58H139.488V56.4116H139.399C139.215 56.7695 138.969 57.0852 138.66 57.3587C138.352 57.6271 137.982 57.8384 137.549 57.9925C137.117 58.1417 136.617 58.2163 136.05 58.2163ZM136.96 56.0238C137.427 56.0238 137.84 55.9318 138.198 55.7479C138.556 55.5589 138.837 55.3054 139.041 54.9872C139.245 54.669 139.346 54.3086 139.346 53.9059V52.6903C139.247 52.755 139.11 52.8146 138.936 52.8693C138.767 52.919 138.576 52.9663 138.362 53.011C138.148 53.0508 137.935 53.0881 137.721 53.1229C137.507 53.1527 137.313 53.18 137.139 53.2049C136.766 53.2596 136.441 53.3466 136.162 53.4659C135.884 53.5852 135.667 53.7468 135.513 53.9506C135.359 54.1495 135.282 54.3981 135.282 54.6964C135.282 55.1289 135.439 55.4595 135.752 55.6882C136.07 55.9119 136.473 56.0238 136.96 56.0238ZM148.772 42.7273V58H145.596V42.7273H148.772Z" fill="#FDDCC3"/>
<defs>
<clipPath id="clip0_70_152">
<rect width="72" height="76" fill="white"/>
</clipPath>
</defs>
</svg>
