<svg width="159" height="84" viewBox="0 0 159 84" fill="none" xmlns="http://www.w3.org/2000/svg">
<path d="M104.392 22.264L104.356 23.488C102.436 24.52 100.036 25.324 97.156 25.9C99.22 26.452 101.212 26.728 103.132 26.728H103.888C105.208 28.672 106.06 31.096 106.444 34H97.12C96.88 32.32 96.388 30.88 95.644 29.68C94.924 28.456 94.036 27.628 92.98 27.196C92.956 27.604 92.944 28.42 92.944 29.644C92.944 30.868 93.016 32.32 93.16 34H85.312C84.616 30.52 84.268 27.292 84.268 24.316C84.268 21.316 84.436 18.544 84.772 16H103.564C104.116 18.424 104.392 20.512 104.392 22.264ZM93.736 18.412C93.448 20.524 93.232 22.6 93.088 24.64C94.408 24.448 95.488 23.98 96.328 23.236C95.872 21.628 95.008 20.02 93.736 18.412ZM132.258 33.712V34H123.906C123.81 32.68 123.606 31.264 123.294 29.752C121.614 31.432 119.934 32.848 118.254 34H109.866C109.698 33.016 109.614 31.72 109.614 30.112C109.614 28.48 109.854 26.848 110.334 25.216C112.062 24.712 113.718 23.86 115.302 22.66C116.91 21.46 118.074 20.164 118.794 18.772C118.122 17.716 117.438 16.792 116.742 16H128.694C131.07 21.208 132.258 27.112 132.258 33.712ZM122.646 27.124C122.046 25.06 121.23 23.044 120.198 21.076C119.07 24.388 118.422 27.52 118.254 30.472C120.03 29.512 121.494 28.396 122.646 27.124ZM149.898 18.34C149.274 22.132 148.962 25.228 148.962 27.628C148.962 30.028 149.058 32.152 149.25 34H141.402C140.586 30.184 140.178 26.08 140.178 21.688C140.178 20.944 140.202 19.828 140.25 18.34C138.21 18.94 136.962 20.32 136.506 22.48L132.942 22.264L134.238 16H158.178C157.698 18.64 157.146 20.8 156.522 22.48L152.886 22.264C152.982 21.88 153.03 21.496 153.03 21.112C153.03 20.176 152.742 19.48 152.166 19.024C151.59 18.568 150.834 18.34 149.898 18.34Z" fill="#390702"/>
<path d="M90.4432 52.2237C89.2699 52.2237 88.2607 51.9751 87.4155 51.478C86.5753 50.9759 85.929 50.2798 85.4766 49.3899C85.0291 48.5 84.8054 47.4759 84.8054 46.3175C84.8054 45.1442 85.0316 44.1151 85.484 43.2301C85.9414 42.3402 86.5902 41.6467 87.4304 41.1495C88.2706 40.6474 89.2699 40.3963 90.4283 40.3963C91.4276 40.3963 92.3026 40.5778 93.0533 40.9407C93.804 41.3036 94.3981 41.8132 94.8356 42.4695C95.2731 43.1257 95.5142 43.8963 95.5589 44.7812H92.5611C92.4766 44.2095 92.2528 43.7496 91.8899 43.4016C91.532 43.0487 91.0621 42.8722 90.4805 42.8722C89.9883 42.8722 89.5582 43.0064 89.1903 43.2749C88.8274 43.5384 88.544 43.9237 88.3402 44.4308C88.1364 44.9379 88.0344 45.5518 88.0344 46.2727C88.0344 47.0036 88.1339 47.625 88.3327 48.1371C88.5366 48.6491 88.8224 49.0394 89.1903 49.3079C89.5582 49.5763 89.9883 49.7106 90.4805 49.7106C90.8434 49.7106 91.169 49.636 91.4574 49.4869C91.7507 49.3377 91.9918 49.1214 92.1808 48.8381C92.3746 48.5497 92.5014 48.2042 92.5611 47.8015H95.5589C95.5092 48.6765 95.2706 49.4471 94.843 50.1133C94.4205 50.7745 93.8363 51.2915 93.0906 51.6644C92.3448 52.0373 91.4624 52.2237 90.4432 52.2237ZM102.603 52.2237C101.425 52.2237 100.411 51.9851 99.5605 51.5078C98.7153 51.0256 98.0641 50.3445 97.6067 49.4645C97.1493 48.5795 96.9206 47.533 96.9206 46.3249C96.9206 45.1467 97.1493 44.1126 97.6067 43.2227C98.0641 42.3327 98.7079 41.6392 99.5381 41.142C100.373 40.6449 101.353 40.3963 102.476 40.3963C103.232 40.3963 103.936 40.5181 104.587 40.7617C105.243 41.0004 105.815 41.3608 106.302 41.843C106.794 42.3253 107.177 42.9318 107.45 43.6626C107.724 44.3885 107.861 45.2386 107.861 46.2131V47.0856H98.1883V45.1168H104.87C104.87 44.6594 104.771 44.2543 104.572 43.9013C104.373 43.5483 104.097 43.2724 103.744 43.0735C103.396 42.8697 102.991 42.7678 102.529 42.7678C102.046 42.7678 101.619 42.8796 101.246 43.1033C100.878 43.3221 100.59 43.6179 100.381 43.9908C100.172 44.3587 100.065 44.7688 100.06 45.2212V47.093C100.06 47.6598 100.165 48.1495 100.373 48.5621C100.587 48.9748 100.888 49.293 101.276 49.5167C101.663 49.7404 102.123 49.8523 102.655 49.8523C103.008 49.8523 103.331 49.8026 103.625 49.7031C103.918 49.6037 104.169 49.4545 104.378 49.2557C104.587 49.0568 104.746 48.8132 104.855 48.5249L107.793 48.7188C107.644 49.4247 107.339 50.0412 106.876 50.5682C106.419 51.0902 105.827 51.4979 105.101 51.7912C104.38 52.0795 103.548 52.2237 102.603 52.2237ZM112.901 45.3778V52H109.724V40.5455H112.751V42.5664H112.886C113.139 41.9002 113.564 41.3732 114.161 40.9854C114.757 40.5927 115.481 40.3963 116.331 40.3963C117.126 40.3963 117.82 40.5703 118.412 40.9183C119.003 41.2663 119.463 41.7635 119.791 42.4098C120.119 43.0511 120.283 43.8168 120.283 44.7067V52H117.107V45.2734C117.112 44.5724 116.933 44.0256 116.57 43.6328C116.207 43.2351 115.707 43.0362 115.071 43.0362C114.643 43.0362 114.265 43.1282 113.937 43.3121C113.614 43.4961 113.36 43.7646 113.177 44.1175C112.998 44.4656 112.906 44.8857 112.901 45.3778ZM128.67 40.5455V42.9318H121.772V40.5455H128.67ZM123.338 37.8011H126.515V48.4801C126.515 48.7734 126.559 49.0021 126.649 49.1662C126.738 49.3253 126.863 49.4371 127.022 49.5018C127.186 49.5664 127.375 49.5987 127.589 49.5987C127.738 49.5987 127.887 49.5863 128.036 49.5614C128.185 49.5316 128.3 49.5092 128.379 49.4943L128.879 51.8583C128.72 51.908 128.496 51.9652 128.208 52.0298C127.919 52.0994 127.569 52.1417 127.156 52.1566C126.39 52.1864 125.719 52.0845 125.143 51.8509C124.571 51.6172 124.126 51.2543 123.808 50.7621C123.489 50.2699 123.333 49.6484 123.338 48.8977V37.8011ZM130.529 52V40.5455H133.609V42.544H133.729C133.937 41.8331 134.288 41.2962 134.78 40.9332C135.272 40.5653 135.839 40.3814 136.48 40.3814C136.639 40.3814 136.811 40.3913 136.995 40.4112C137.179 40.4311 137.34 40.4585 137.48 40.4933V43.3121C137.33 43.2674 137.124 43.2276 136.861 43.1928C136.597 43.158 136.356 43.1406 136.137 43.1406C135.67 43.1406 135.252 43.2425 134.884 43.4464C134.522 43.6452 134.233 43.9237 134.019 44.2816C133.811 44.6396 133.706 45.0522 133.706 45.5195V52H130.529ZM141.85 52.2163C141.119 52.2163 140.468 52.0895 139.896 51.8359C139.325 51.5774 138.872 51.1971 138.539 50.695C138.211 50.1879 138.047 49.5565 138.047 48.8008C138.047 48.1644 138.164 47.63 138.398 47.1974C138.631 46.7649 138.949 46.4169 139.352 46.1534C139.755 45.8899 140.212 45.6911 140.724 45.5568C141.241 45.4226 141.783 45.3281 142.35 45.2734C143.016 45.2038 143.553 45.1392 143.961 45.0795C144.368 45.0149 144.664 44.9205 144.848 44.7962C145.032 44.6719 145.124 44.4879 145.124 44.2443V44.1996C145.124 43.7273 144.975 43.3619 144.677 43.1033C144.383 42.8448 143.966 42.7156 143.424 42.7156C142.852 42.7156 142.397 42.8423 142.059 43.0959C141.721 43.3445 141.497 43.6577 141.388 44.0355L138.45 43.7969C138.599 43.1009 138.892 42.4993 139.33 41.9922C139.767 41.4801 140.331 41.0874 141.023 40.8139C141.719 40.5355 142.524 40.3963 143.439 40.3963C144.075 40.3963 144.684 40.4709 145.266 40.62C145.852 40.7692 146.372 41.0004 146.824 41.3136C147.282 41.6268 147.642 42.0295 147.906 42.5217C148.169 43.0089 148.301 43.593 148.301 44.2741V52H145.288V50.4116H145.199C145.015 50.7695 144.769 51.0852 144.46 51.3587C144.152 51.6271 143.782 51.8384 143.349 51.9925C142.917 52.1417 142.417 52.2163 141.85 52.2163ZM142.76 50.0238C143.227 50.0238 143.64 49.9318 143.998 49.7479C144.356 49.5589 144.637 49.3054 144.841 48.9872C145.045 48.669 145.146 48.3086 145.146 47.9059V46.6903C145.047 46.755 144.91 46.8146 144.736 46.8693C144.567 46.919 144.376 46.9663 144.162 47.011C143.948 47.0508 143.735 47.0881 143.521 47.1229C143.307 47.1527 143.113 47.18 142.939 47.2049C142.566 47.2596 142.241 47.3466 141.962 47.4659C141.684 47.5852 141.467 47.7468 141.313 47.9506C141.159 48.1495 141.082 48.3981 141.082 48.6964C141.082 49.1289 141.239 49.4595 141.552 49.6882C141.87 49.9119 142.273 50.0238 142.76 50.0238ZM153.732 36.7273V52H150.556V36.7273H153.732Z" fill="#390702"/>
<ellipse cx="40.8421" cy="35.6275" rx="32.2434" ry="32.6535" fill="#EFA443"/>
<mask id="mask0_24_361" style="mask-type:alpha" maskUnits="userSpaceOnUse" x="22" y="21" width="37" height="43">
<path d="M23.755 57.0888L28.3275 26.3622C28.796 23.2138 32.2595 21.5466 34.9936 23.1533L54.4944 34.6132C57.2285 36.2199 57.5177 40.0925 55.051 42.0666L30.9777 61.3333C27.7961 63.8797 23.1506 61.1497 23.755 57.0888Z" fill="white" stroke="#4D0F04" stroke-width="3"/>
</mask>
<g mask="url(#mask0_24_361)">
<path d="M59.0211 46.3374C59.0211 59.4208 48.0983 70.0517 34.5935 70.0517C21.0887 70.0517 10.1658 59.4208 10.1658 46.3374C10.1658 33.2539 21.0887 22.6231 34.5935 22.6231C48.0983 22.6231 59.0211 33.2539 59.0211 46.3374Z" fill="#FDDCC3" stroke="#4D0F04"/>
<path d="M28.9975 48.9134C24.9277 48.2951 20.1795 54.6664 19.8404 56.6413C19.586 58.6163 20.9596 60.8659 26.4539 62.3085C31.9481 63.7511 31.7955 59.8184 31.2868 56.6413C31.202 55.1816 33.0673 49.5316 28.9975 48.9134Z" fill="#4D0F04" stroke="#4D0F04"/>
<path d="M29.5062 27.0175C33.5761 26.3992 36.0491 31.4554 36.3882 33.4303C36.6426 35.4053 37.0354 40.7732 31.5411 42.2158C26.0469 43.6584 28.2344 37.4073 28.7431 34.2302C28.8279 32.7705 25.4364 27.6357 29.5062 27.0175Z" fill="#4D0F04" stroke="#4D0F04"/>
<path d="M46.4624 40.7697C43.6837 37.6955 40.0074 39.5644 38.5166 40.8831C37.0917 42.2558 35.0853 46.1569 38.4589 50.7795C41.8324 55.4021 45.8092 54.8882 45.7701 50.8436C45.7309 46.799 49.2412 43.8439 46.4624 40.7697Z" fill="#4D0F04" stroke="#4D0F04"/>
<path d="M23.755 57.0888L28.3275 26.3622C28.796 23.2138 32.2595 21.5466 34.9936 23.1533L54.4944 34.6132C57.2285 36.2199 57.5177 40.0925 55.051 42.0666L30.9777 61.3333C27.7961 63.8797 23.1506 61.1497 23.755 57.0888Z" stroke="#4D0F04" stroke-width="3"/>
</g>
<rect x="0.551999" y="2.06023" width="39.613" height="4.70382" rx="2.35191" transform="matrix(0.863268 0.504746 -0.495269 0.86874 29.8389 13.8718)" fill="#EDB18C" stroke="#4D0F04" stroke-width="3" stroke-linejoin="round"/>
<path fill-rule="evenodd" clip-rule="evenodd" d="M38.871 5.83055C38.2639 5.71754 36.7949 6.0341 35.7758 8.20446C35.1702 9.49402 34.3744 10.4267 33.6477 11.2782C32.8456 12.2182 32.1278 13.0593 31.8432 14.1727C31.5958 15.1404 32.826 15.1564 34.205 15.1744C34.9911 15.1846 35.8255 15.1955 36.4621 15.3837C37.9131 15.4139 40.9067 15.362 41.2725 14.912C41.7299 14.3496 44.5595 15.5906 40.0268 16.2938C38.8943 16.9225 36.8711 18.5702 37.8381 20.1317L38.7773 19.2632L38.8509 20.0324C38.9951 19.7594 39.4862 19.1937 40.2964 19.1142C41.1066 19.0348 43.3836 19.3292 44.4208 19.4863C44.2874 18.9817 46.1195 18.5433 46.1195 18.5433C46.1195 18.5433 45.9426 21.676 46.4408 24.2152C45.2975 25.6213 44.9179 26.8785 48.1914 29.0421L45.6106 28.7775L43.5526 31.3086L44.3856 32.0033L45.8312 31.0851L45.9047 31.8543L46.8439 30.9858C47.8239 30.5447 50.1728 29.9866 51.7279 31.2834L51.5808 29.745L53.9004 32.6232C52.4279 32.8996 53.1403 33.484 53.3661 33.6694C53.4355 33.7263 53.459 33.7455 53.3592 33.7067C52.9345 33.5413 51.6142 33.2739 51.0071 33.1609L48.8755 34.9227L48.9491 35.6919L50.3946 34.7738L50.0108 36.1054L51.4809 35.4437L52.0362 35.9068L53.5063 35.2451L54.568 35.6586L56.0381 34.9968L55.6779 32.9329C56.3671 32.6521 57.3677 32.8675 58.3134 33.0712C59.2801 33.2794 60.1896 33.4753 60.6509 33.1161C61.1933 32.6937 61.7791 32.0117 62.3247 31.1739C62.1831 37.6896 59.3065 45.0446 56.4374 48.1879C49.0979 56.2288 29.5444 59.5063 24.8613 56.7108C20.1782 53.9152 15.7706 53.4715 15.7706 53.4715C15.7706 53.4715 23.7814 57.6106 26.2111 60.6979C28.6409 63.7853 50.7045 61.2659 57.2793 55.6788C65.3321 48.8358 67.2153 32.9197 64.3937 25.7067C64.6202 23.7823 64.2169 21.9621 62.6863 20.862C62.5338 20.7525 62.4738 20.3029 62.385 19.6381C61.9908 16.6856 61.03 9.48873 48.884 8.98966C47.7216 8.41349 45.5485 7.24627 46.1562 7.18669C46.9157 7.11222 50.1251 0.586274 43.1831 2.81973C43.1831 2.81973 44.6679 1.62962 43.6253 1.09018C42.5827 0.550747 39.3675 2.4692 38.871 5.83055Z" fill="#390702"/>
<path d="M35.7758 8.20446L34.8706 7.7794L34.8706 7.7794L35.7758 8.20446ZM38.871 5.83055L38.688 6.81366L39.7086 7.00365L39.8603 5.97665L38.871 5.83055ZM33.6477 11.2782L34.4084 11.9274L34.4084 11.9274L33.6477 11.2782ZM31.8432 14.1727L32.812 14.4204L32.812 14.4204L31.8432 14.1727ZM34.205 15.1744L34.192 16.1743L34.192 16.1743L34.205 15.1744ZM36.4621 15.3837L36.1786 16.3426L36.3072 16.3806L36.4413 16.3834L36.4621 15.3837ZM41.2725 14.912L40.4966 14.2811L40.4966 14.2811L41.2725 14.912ZM40.0268 16.2938L39.8735 15.3057L39.6973 15.333L39.5414 15.4195L40.0268 16.2938ZM37.8381 20.1317L36.988 20.6582L37.6266 21.6893L38.5171 20.8659L37.8381 20.1317ZM38.7773 19.2632L39.7728 19.168L39.5807 17.1583L38.0984 18.529L38.7773 19.2632ZM38.8509 20.0324L37.8554 20.1275L38.1734 23.454L39.735 20.4997L38.8509 20.0324ZM40.2964 19.1142L40.1988 18.119L40.1988 18.119L40.2964 19.1142ZM44.4208 19.4863L44.271 20.475L45.777 20.7031L45.3876 19.2306L44.4208 19.4863ZM46.1195 18.5433L47.1179 18.5997L47.1937 17.258L45.8868 17.5708L46.1195 18.5433ZM46.4408 24.2152L47.2167 24.8461L47.5124 24.4825L47.4221 24.0226L46.4408 24.2152ZM48.1914 29.0421L48.0894 30.0369L48.7428 28.2079L48.1914 29.0421ZM45.6106 28.7775L45.7126 27.7828L45.1754 27.7277L44.8347 28.1467L45.6106 28.7775ZM43.5526 31.3086L42.7767 30.6777L42.1536 31.444L42.9121 32.0765L43.5526 31.3086ZM44.3856 32.0033L43.7452 32.7713L44.3057 33.2387L44.9218 32.8474L44.3856 32.0033ZM45.8312 31.0851L46.8266 30.99L46.6715 29.3668L45.295 30.241L45.8312 31.0851ZM45.9047 31.8543L44.9093 31.9495L45.1014 33.9592L46.5836 32.5885L45.9047 31.8543ZM46.8439 30.9858L46.4334 30.074L46.2847 30.1409L46.165 30.2516L46.8439 30.9858ZM51.7279 31.2834L51.0874 32.0514L52.9547 33.6086L52.7233 31.1882L51.7279 31.2834ZM51.5808 29.745L52.3594 29.1175L50.2682 26.5226L50.5853 29.8402L51.5808 29.745ZM53.9004 32.6232L54.0848 33.606L55.7282 33.2976L54.679 31.9957L53.9004 32.6232ZM53.3661 33.6694L54.0004 32.8963L54.0004 32.8962L53.3661 33.6694ZM53.3592 33.7067L53.7221 32.7749L53.7221 32.7748L53.3592 33.7067ZM51.0071 33.1609L51.1901 32.1778L50.7304 32.0922L50.37 32.3901L51.0071 33.1609ZM48.8755 34.9227L48.2384 34.1519L47.8296 34.4898L47.8801 35.0179L48.8755 34.9227ZM48.9491 35.6919L47.9536 35.7871L48.1088 37.4103L49.4852 36.536L48.9491 35.6919ZM50.3946 34.7738L51.3555 35.0507L52.0864 32.5145L49.8585 33.9296L50.3946 34.7738ZM50.0108 36.1054L49.0499 35.8285L48.4518 37.9039L50.4213 37.0173L50.0108 36.1054ZM51.4809 35.4437L52.1213 34.6757L51.6409 34.275L51.0704 34.5318L51.4809 35.4437ZM52.0362 35.9068L51.3958 36.6748L51.8762 37.0755L52.4467 36.8187L52.0362 35.9068ZM53.5063 35.2451L53.8692 34.3133L53.4783 34.161L53.0958 34.3332L53.5063 35.2451ZM54.568 35.6586L54.2051 36.5904L54.596 36.7426L54.9785 36.5705L54.568 35.6586ZM56.0381 34.9968L56.4486 35.9087L57.1567 35.5899L57.0232 34.8249L56.0381 34.9968ZM55.6779 32.9329L55.3005 32.0069L54.5542 32.311L54.6928 33.1049L55.6779 32.9329ZM58.3134 33.0712L58.1029 34.0488L58.1029 34.0488L58.3134 33.0712ZM60.6509 33.1161L61.2653 33.9051L61.2653 33.9051L60.6509 33.1161ZM62.3247 31.1739L63.3244 31.1956L63.4006 27.6886L61.4866 30.6282L62.3247 31.1739ZM56.4374 48.1879L55.6988 47.5137L55.6988 47.5137L56.4374 48.1879ZM24.8613 56.7108L25.3739 55.8521L25.3739 55.8521L24.8613 56.7108ZM15.7706 53.4715L15.8707 52.4765L15.3115 54.3599L15.7706 53.4715ZM57.2793 55.6788L57.9269 56.4408L57.9269 56.4408L57.2793 55.6788ZM64.3937 25.7067L63.4006 25.5898L63.3713 25.8381L63.4624 26.071L64.3937 25.7067ZM62.6863 20.862L62.1027 21.6741L62.1027 21.6741L62.6863 20.862ZM62.385 19.6381L63.3762 19.5058L63.3762 19.5058L62.385 19.6381ZM48.884 8.98966L48.44 9.88564L48.6305 9.98008L48.843 9.98881L48.884 8.98966ZM46.1562 7.18669L46.2537 8.18192L46.2537 8.18192L46.1562 7.18669ZM43.1831 2.81973L42.5577 2.03946L43.4894 3.77168L43.1831 2.81973ZM43.6253 1.09018L43.1657 1.97835L43.1657 1.97835L43.6253 1.09018ZM36.6809 8.62951C37.1181 7.69853 37.6134 7.24221 37.9857 7.02271C38.1755 6.91085 38.3425 6.85475 38.4703 6.82926C38.5344 6.81646 38.587 6.81169 38.6263 6.81088C38.6457 6.81047 38.661 6.81106 38.6719 6.81189C38.6829 6.81272 38.6882 6.8137 38.688 6.81366L39.054 4.84744C37.9059 4.63371 36.0396 5.29007 34.8706 7.7794L36.6809 8.62951ZM34.4084 11.9274C35.1318 11.0796 36.0115 10.0551 36.6809 8.62951L34.8706 7.7794C34.3289 8.93298 33.6169 9.77372 32.887 10.6291L34.4084 11.9274ZM32.812 14.4204C33.0295 13.5698 33.5775 12.9011 34.4084 11.9274L32.887 10.6291C32.1137 11.5353 31.2261 12.5489 30.8743 13.925L32.812 14.4204ZM34.218 14.1745C33.8673 14.1699 33.5579 14.1656 33.282 14.1483C33.0005 14.1307 32.8087 14.1021 32.6868 14.0676C32.5501 14.0288 32.6275 14.0182 32.7176 14.1398C32.8427 14.3087 32.802 14.4595 32.812 14.4204L30.8743 13.925C30.7607 14.3698 30.781 14.8854 31.1103 15.3301C31.4046 15.7274 31.8293 15.9033 32.1416 15.9918C32.7482 16.1637 33.5589 16.1661 34.192 16.1743L34.218 14.1745ZM36.7456 14.4247C35.9484 14.189 34.9588 14.1841 34.218 14.1745L34.192 16.1743C35.0234 16.1851 35.7027 16.2019 36.1786 16.3426L36.7456 14.4247ZM40.4966 14.2811C40.6274 14.1203 40.7554 14.0944 40.6724 14.1252C40.6256 14.1425 40.5332 14.1689 40.3832 14.1975C40.0868 14.254 39.6793 14.2985 39.2073 14.3302C38.2701 14.393 37.19 14.3986 36.483 14.3839L36.4413 16.3834C37.1852 16.399 38.3274 16.3937 39.3412 16.3257C39.8447 16.2919 40.3449 16.2409 40.758 16.1621C40.9628 16.123 41.1756 16.0717 41.3682 16.0002C41.5246 15.9422 41.8262 15.8162 42.0484 15.5429L40.4966 14.2811ZM40.1801 17.282C41.3393 17.1022 42.1614 16.8717 42.6903 16.5726C42.9509 16.4252 43.2567 16.1969 43.4319 15.8384C43.641 15.4105 43.5868 14.9589 43.3769 14.6114C43.1985 14.3159 42.9378 14.1367 42.7436 14.0335C42.5353 13.9228 42.3086 13.8492 42.0915 13.8087C41.8774 13.7688 41.6268 13.7526 41.3735 13.7944C41.1367 13.8334 40.7689 13.9463 40.4966 14.2811L42.0484 15.5429C41.8905 15.7371 41.7111 15.7657 41.6989 15.7677C41.6702 15.7725 41.6803 15.7665 41.7249 15.7748C41.7666 15.7826 41.7968 15.7952 41.8053 15.7998C41.828 15.8118 41.7443 15.7767 41.6649 15.6452C41.554 15.4616 41.5208 15.1938 41.635 14.9602C41.7152 14.796 41.8101 14.7727 41.7056 14.8318C41.5046 14.9455 40.9806 15.1339 39.8735 15.3057L40.1801 17.282ZM38.6883 19.6052C38.5264 19.3438 38.5208 19.0157 38.9383 18.4719C39.354 17.9305 40.0186 17.4421 40.5121 17.1682L39.5414 15.4195C38.9024 15.7742 37.9892 16.4239 37.3519 17.2539C36.7165 18.0815 36.1828 19.358 36.988 20.6582L38.6883 19.6052ZM38.0984 18.529L37.1592 19.3975L38.5171 20.8659L39.4563 19.9974L38.0984 18.529ZM39.8463 19.9372L39.7728 19.168L37.7819 19.3583L37.8554 20.1275L39.8463 19.9372ZM40.1988 18.119C38.9656 18.2399 38.2211 19.084 37.9668 19.5651L39.735 20.4997C39.7319 20.5055 39.7459 20.4791 39.7847 20.4336C39.8213 20.3907 39.8709 20.3414 39.9321 20.2945C40.0532 20.2017 40.2058 20.1279 40.394 20.1095L40.1988 18.119ZM44.5706 18.4975C44.04 18.4172 43.1957 18.3022 42.377 18.2169C41.5969 18.1357 40.7222 18.0677 40.1988 18.119L40.394 20.1095C40.6808 20.0813 41.3497 20.1208 42.1699 20.2062C42.9515 20.2875 43.7643 20.3982 44.271 20.475L44.5706 18.4975ZM46.1195 18.5433C45.8868 17.5708 45.8867 17.5708 45.8865 17.5708C45.8865 17.5708 45.8863 17.5709 45.8862 17.5709C45.886 17.571 45.8857 17.571 45.8854 17.5711C45.8848 17.5712 45.8841 17.5714 45.8833 17.5716C45.8817 17.572 45.8797 17.5725 45.8772 17.5731C45.8723 17.5743 45.8656 17.5759 45.8573 17.578C45.8407 17.5821 45.8177 17.5879 45.7891 17.5954C45.7321 17.6102 45.6525 17.6316 45.558 17.6589C45.3716 17.7127 45.1151 17.7929 44.8558 17.8943C44.6117 17.9898 44.2983 18.1294 44.0391 18.3193C43.9107 18.4134 43.7374 18.5611 43.6053 18.7744C43.4607 19.0079 43.3508 19.3515 43.454 19.7419L45.3876 19.2306C45.4575 19.4949 45.3756 19.7145 45.3056 19.8274C45.2483 19.9201 45.1962 19.9508 45.2208 19.9329C45.2676 19.8986 45.3872 19.834 45.5845 19.7568C45.7665 19.6856 45.9597 19.6246 46.1127 19.5804C46.1879 19.5588 46.2503 19.542 46.293 19.5309C46.3143 19.5253 46.3305 19.5212 46.3407 19.5187C46.3458 19.5174 46.3494 19.5165 46.3514 19.5161C46.3523 19.5158 46.3529 19.5157 46.3531 19.5156C46.3532 19.5156 46.3531 19.5156 46.353 19.5157C46.3529 19.5157 46.3528 19.5157 46.3527 19.5157C46.3526 19.5157 46.3525 19.5158 46.3525 19.5158C46.3524 19.5158 46.3523 19.5158 46.1195 18.5433ZM47.4221 24.0226C47.1896 22.8375 47.1108 21.487 47.0932 20.4107C47.0845 19.8772 47.0908 19.4208 47.0993 19.0989C47.1036 18.938 47.1083 18.8112 47.112 18.7255C47.1138 18.6827 47.1154 18.6502 47.1164 18.6289C47.117 18.6182 47.1174 18.6104 47.1176 18.6055C47.1178 18.6031 47.1179 18.6013 47.1179 18.6004C47.1179 18.5999 47.1179 18.5996 47.118 18.5995C47.118 18.5994 47.118 18.5994 47.118 18.5994C47.118 18.5995 47.118 18.5995 47.118 18.5995C47.1179 18.5996 47.1179 18.5997 46.1195 18.5433C45.1211 18.4869 45.1211 18.487 45.1211 18.4871C45.1211 18.4872 45.1211 18.4873 45.1211 18.4874C45.1211 18.4877 45.1211 18.4879 45.121 18.4883C45.121 18.4889 45.121 18.4898 45.1209 18.4908C45.1208 18.4928 45.1206 18.4956 45.1205 18.4992C45.1201 18.5063 45.1196 18.5164 45.1189 18.5293C45.1176 18.5552 45.1158 18.5925 45.1138 18.6402C45.1097 18.7358 45.1046 18.8735 45.1 19.0461C45.0909 19.3908 45.0842 19.8763 45.0935 20.4434C45.1119 21.5683 45.1938 23.0537 45.4596 24.4078L47.4221 24.0226ZM48.7428 28.2079C47.129 27.1412 46.7141 26.4741 46.6354 26.1248C46.5755 25.859 46.6608 25.5298 47.2167 24.8461L45.665 23.5843C45.0776 24.3067 44.4014 25.3092 44.6843 26.5644C44.9483 27.7361 45.9803 28.7794 47.64 29.8764L48.7428 28.2079ZM45.5086 29.7723L48.0894 30.0369L48.2934 28.0473L45.7126 27.7828L45.5086 29.7723ZM44.3284 31.9394L46.3865 29.4084L44.8347 28.1467L42.7767 30.6777L44.3284 31.9394ZM45.0261 31.2353L44.193 30.5406L42.9121 32.0765L43.7452 32.7713L45.0261 31.2353ZM45.295 30.241L43.8495 31.1592L44.9218 32.8474L46.3673 31.9293L45.295 30.241ZM46.9002 31.7592L46.8266 30.99L44.8357 31.1803L44.9093 31.9495L46.9002 31.7592ZM46.165 30.2516L45.2258 31.1201L46.5836 32.5885L47.5228 31.72L46.165 30.2516ZM52.3683 30.5154C51.3365 29.655 50.0845 29.4457 49.0342 29.4835C47.9852 29.5213 47.0263 29.8071 46.4334 30.074L47.2544 31.8977C47.6415 31.7234 48.347 31.5096 49.1062 31.4822C49.8642 31.4549 50.5641 31.615 51.0874 32.0514L52.3683 30.5154ZM50.5853 29.8402L50.7324 31.3786L52.7233 31.1882L52.5762 29.6498L50.5853 29.8402ZM54.679 31.9957L52.3594 29.1175L50.8022 30.3725L53.1217 33.2507L54.679 31.9957ZM54.0004 32.8962C53.94 32.8466 53.9115 32.8212 53.8954 32.803C53.8893 32.7961 53.9023 32.8091 53.9208 32.8423C53.9387 32.8744 53.9775 32.9534 53.9905 33.0718C54.0048 33.2027 53.9832 33.3493 53.9143 33.4836C53.8499 33.6089 53.7703 33.6732 53.7407 33.6941C53.7131 33.7136 53.7161 33.7049 53.7788 33.6827C53.8392 33.6613 53.937 33.6338 54.0848 33.606L53.7159 31.6404C53.2985 31.7187 52.8991 31.8401 52.5872 32.0603C52.2203 32.3193 51.9435 32.751 52.0023 33.289C52.0479 33.7063 52.2838 34.0001 52.3991 34.1301C52.5341 34.2823 52.6794 34.3994 52.7319 34.4425L54.0004 32.8962ZM52.9963 34.6385C53.0189 34.6473 53.0871 34.6741 53.1626 34.6936C53.167 34.6947 53.3267 34.742 53.5249 34.7218C53.6144 34.7127 53.9413 34.6696 54.1941 34.3662C54.492 34.0087 54.4355 33.6125 54.3859 33.443C54.3387 33.282 54.2621 33.1729 54.2364 33.1372C54.2017 33.0888 54.1696 33.0532 54.1519 33.0342C54.1163 32.996 54.0842 32.9674 54.0711 32.9558C54.0434 32.9313 54.0117 32.9055 54.0004 32.8963L52.7319 34.4424C52.7553 34.4617 52.7526 34.4596 52.7456 34.4535C52.743 34.4511 52.7192 34.4303 52.6896 34.3987C52.6749 34.3829 52.6452 34.3501 52.6123 34.3043C52.5884 34.271 52.513 34.1641 52.4664 34.0048C52.4173 33.8371 52.3606 33.4423 52.6576 33.0859C52.9096 32.7834 53.235 32.741 53.3222 32.7321C53.4404 32.7201 53.5326 32.7326 53.5669 32.7377C53.6106 32.7442 53.6442 32.7524 53.6617 32.7569C53.7157 32.7708 53.7495 32.7855 53.7221 32.7749L52.9963 34.6385ZM50.8241 34.144C51.1191 34.1989 51.5896 34.2918 52.0354 34.3905C52.5116 34.4959 52.8689 34.5889 52.9963 34.6385L53.7221 32.7748C53.4248 32.6591 52.9096 32.5356 52.4677 32.4378C51.9954 32.3332 51.5021 32.2359 51.1901 32.1778L50.8241 34.144ZM49.5126 35.6935L51.6442 33.9317L50.37 32.3901L48.2384 34.1519L49.5126 35.6935ZM49.9445 35.5967L49.871 34.8275L47.8801 35.0179L47.9536 35.7871L49.9445 35.5967ZM49.8585 33.9296L48.4129 34.8478L49.4852 36.536L50.9307 35.6179L49.8585 33.9296ZM50.9717 36.3823L51.3555 35.0507L49.4337 34.4968L49.0499 35.8285L50.9717 36.3823ZM51.0704 34.5318L49.6003 35.1935L50.4213 37.0173L51.8913 36.3555L51.0704 34.5318ZM52.6767 35.1388L52.1213 34.6757L50.8404 36.2117L51.3958 36.6748L52.6767 35.1388ZM53.0958 34.3332L51.6258 34.9949L52.4467 36.8187L53.9168 36.1569L53.0958 34.3332ZM54.9309 34.7268L53.8692 34.3133L53.1434 36.1769L54.2051 36.5904L54.9309 34.7268ZM55.6276 34.085L54.1576 34.7467L54.9785 36.5705L56.4486 35.9087L55.6276 34.085ZM54.6928 33.1049L55.053 35.1688L57.0232 34.8249L56.663 32.761L54.6928 33.1049ZM58.5239 32.0936C58.0638 31.9945 57.5188 31.8759 56.9963 31.8251C56.4839 31.7752 55.8686 31.7754 55.3005 32.0069L56.0552 33.859C56.1764 33.8096 56.406 33.7771 56.8026 33.8157C57.1892 33.8533 57.6173 33.9442 58.1029 34.0488L58.5239 32.0936ZM60.0365 32.3271C60.116 32.2652 60.1026 32.3356 59.7456 32.3092C59.4229 32.2852 59.0274 32.2021 58.5239 32.0936L58.1029 34.0488C58.5662 34.1486 59.1087 34.2674 59.5977 34.3037C60.0525 34.3374 60.7245 34.3262 61.2653 33.9051L60.0365 32.3271ZM61.4866 30.6282C60.9756 31.4132 60.4603 31.9971 60.0365 32.3271L61.2653 33.9051C61.9263 33.3903 62.5827 32.6103 63.1627 31.7195L61.4866 30.6282ZM57.176 48.8621C58.7336 47.1556 60.2258 44.3956 61.3449 41.2839C62.4693 38.1573 63.2509 34.5819 63.3244 31.1956L61.3249 31.1522C61.2569 34.2815 60.5294 37.6415 59.4629 40.6071C58.391 43.5877 57.0103 46.0769 55.6988 47.5137L57.176 48.8621ZM24.3487 57.5694C25.777 58.422 28.125 58.7292 30.7539 58.6891C33.4426 58.6481 36.6262 58.2379 39.8781 57.4874C46.3343 55.9974 53.2998 53.1086 57.176 48.8621L55.6988 47.5137C52.2354 51.3081 45.7545 54.0786 39.4283 55.5386C36.289 56.2632 33.2474 56.6508 30.7234 56.6893C28.1395 56.7288 26.2872 56.3973 25.3739 55.8521L24.3487 57.5694ZM15.7706 53.4715C15.6704 54.4665 15.6702 54.4665 15.67 54.4664C15.6699 54.4664 15.6697 54.4664 15.6696 54.4664C15.6694 54.4664 15.6693 54.4664 15.6692 54.4664C15.669 54.4664 15.6692 54.4664 15.6695 54.4664C15.6703 54.4665 15.6721 54.4667 15.675 54.467C15.6807 54.4676 15.6905 54.4687 15.7044 54.4703C15.7321 54.4736 15.7759 54.479 15.8347 54.487C15.9523 54.5029 16.13 54.5292 16.3597 54.5695C16.8195 54.6501 17.4863 54.7865 18.2965 55.0075C19.9196 55.4504 22.1034 56.2291 24.3487 57.5694L25.3739 55.8521C22.936 54.3968 20.5745 53.5559 18.823 53.0781C17.946 52.8388 17.2182 52.6895 16.7051 52.5995C16.4485 52.5545 16.2452 52.5243 16.1035 52.5051C16.0327 52.4955 15.9772 52.4886 15.938 52.484C15.9185 52.4817 15.903 52.48 15.8917 52.4788C15.8861 52.4782 15.8815 52.4777 15.878 52.4773C15.8763 52.4771 15.8748 52.477 15.8736 52.4768C15.873 52.4768 15.8724 52.4767 15.8719 52.4767C15.8717 52.4766 15.8714 52.4766 15.8713 52.4766C15.871 52.4766 15.8707 52.4765 15.7706 53.4715ZM26.997 60.0795C26.3085 59.2047 25.2696 58.3052 24.156 57.4673C23.0298 56.6199 21.7724 55.7952 20.6042 55.0755C19.4341 54.3548 18.3426 53.7329 17.5441 53.2914C17.1446 53.0704 16.8175 52.8942 16.5897 52.7728C16.4757 52.7121 16.3865 52.6651 16.3254 52.6331C16.2949 52.6171 16.2713 52.6048 16.2552 52.5964C16.2472 52.5922 16.241 52.589 16.2367 52.5868C16.2345 52.5857 16.2329 52.5848 16.2317 52.5842C16.2311 52.5839 16.2306 52.5836 16.2303 52.5834C16.2301 52.5834 16.2299 52.5833 16.2298 52.5832C16.2297 52.5832 16.2296 52.5831 15.7706 53.4715C15.3115 54.3599 15.3115 54.3599 15.3115 54.3599C15.3115 54.3599 15.3115 54.3599 15.3116 54.36C15.3117 54.36 15.312 54.3602 15.3124 54.3604C15.3131 54.3608 15.3144 54.3614 15.3161 54.3623C15.3195 54.3641 15.3248 54.3668 15.332 54.3706C15.3464 54.378 15.3681 54.3894 15.3968 54.4044C15.4543 54.4345 15.5395 54.4795 15.6494 54.538C15.8691 54.655 16.1869 54.8263 16.5763 55.0416C17.3558 55.4726 18.4189 56.0784 19.5553 56.7784C20.6934 57.4795 21.8943 58.2684 22.9535 59.0654C24.0253 59.8719 24.8989 60.6475 25.4253 61.3164L26.997 60.0795ZM56.6318 54.9168C55.1394 56.1849 52.6781 57.3413 49.687 58.3022C46.72 59.2552 43.3266 59.9864 40.0503 60.4512C36.7711 60.9165 33.6442 61.11 31.21 61.0028C29.9899 60.9491 28.9777 60.8211 28.2203 60.6286C27.4131 60.4235 27.0849 60.1913 26.997 60.0795L25.4253 61.3164C25.9448 61.9765 26.8377 62.3408 27.7277 62.567C28.6677 62.8059 29.8292 62.944 31.122 63.0009C33.7135 63.115 36.969 62.9084 40.3313 62.4314C43.6965 61.9539 47.2036 61.2005 50.2987 60.2063C53.3696 59.2199 56.1318 57.9662 57.9269 56.4408L56.6318 54.9168ZM63.4624 26.071C64.7794 29.4376 65.0368 35.01 63.9331 40.6391C62.8303 46.2633 60.416 51.7011 56.6318 54.9168L57.9269 56.4408C62.1954 52.8135 64.7491 46.8718 65.8957 41.0239C67.0414 35.1809 66.8296 29.1888 65.325 25.3424L63.4624 26.071ZM62.1027 21.6741C63.2145 22.4731 63.6059 23.8446 63.4006 25.5898L65.3869 25.8236C65.6344 23.72 65.2193 21.451 63.2699 20.05L62.1027 21.6741ZM61.3938 19.7705C61.436 20.0867 61.4787 20.4119 61.5343 20.6693C61.5623 20.7991 61.6022 20.9544 61.665 21.1044C61.7201 21.2359 61.8421 21.4869 62.1027 21.6741L63.2699 20.05C63.3686 20.121 63.4283 20.1962 63.4596 20.2422C63.491 20.2883 63.5059 20.3226 63.5097 20.3318C63.5156 20.3458 63.5064 20.3267 63.4892 20.2473C63.4545 20.0863 63.4227 19.8542 63.3762 19.5058L61.3938 19.7705ZM48.843 9.98881C54.7097 10.2299 57.683 12.0718 59.2645 14.0235C60.8792 16.0159 61.1969 18.2954 61.3938 19.7705L63.3762 19.5058C63.179 18.0283 62.8191 15.2331 60.8184 12.7642C58.7845 10.2545 55.2043 8.24851 48.9251 7.9905L48.843 9.98881ZM46.0586 6.19147C45.9594 6.20118 45.7287 6.23225 45.5024 6.38979C45.1989 6.60119 45.02 6.96075 45.0554 7.34857C45.0816 7.63567 45.2172 7.836 45.2738 7.91382C45.345 8.01174 45.4225 8.08995 45.4818 8.145C45.7015 8.34921 46.0334 8.56505 46.338 8.74966C46.9859 9.1423 47.8486 9.59255 48.44 9.88564L49.3281 8.09367C48.757 7.8106 47.952 7.38915 47.3746 7.03925C47.0666 6.85258 46.8965 6.72944 46.8433 6.68003C46.8344 6.67168 46.8581 6.69182 46.8915 6.73784C46.9103 6.76375 47.0244 6.91835 47.0471 7.16671C47.079 7.51579 46.9145 7.8436 46.6453 8.03107C46.4534 8.16469 46.2769 8.17965 46.2537 8.18192L46.0586 6.19147ZM43.4894 3.77168C45.1722 3.23027 45.9637 3.32203 46.2724 3.46111C46.4373 3.53539 46.5677 3.66737 46.5579 4.11604C46.5476 4.59362 46.3571 5.19487 46.0972 5.70494C45.9706 5.95349 45.8464 6.14283 45.7544 6.25636C45.7071 6.3147 45.6863 6.33064 45.6957 6.32306C45.7012 6.31861 45.7285 6.29681 45.777 6.2719C45.8223 6.24861 45.9198 6.20507 46.0586 6.19147L46.2537 8.18192C46.5976 8.1482 46.8438 7.96667 46.9527 7.87862C47.0892 7.76836 47.2084 7.63863 47.308 7.51577C47.5098 7.26688 47.7067 6.95161 47.8793 6.61278C48.2179 5.94808 48.5383 5.04348 48.5575 4.15944C48.5773 3.2465 48.2559 2.16111 47.0939 1.63761C46.0757 1.17891 44.6651 1.29246 42.8769 1.86779L43.4894 3.77168ZM43.1657 1.97835C43.1879 1.98979 43.1411 1.9707 43.0876 1.89457C43.029 1.8112 43.0002 1.71333 42.9968 1.62757C42.9939 1.55332 43.0106 1.51447 43.0074 1.52284C43.0046 1.53028 42.9923 1.5584 42.9606 1.60642C42.8951 1.70557 42.7975 1.81489 42.7002 1.90985C42.6546 1.95442 42.6149 1.99012 42.588 2.01355C42.5747 2.02516 42.5649 2.03343 42.5594 2.03795C42.5567 2.04021 42.5552 2.0415 42.5548 2.04177C42.5547 2.04191 42.5548 2.04179 42.5553 2.04141C42.5555 2.04122 42.5558 2.04096 42.5562 2.04063C42.5564 2.04047 42.5567 2.04029 42.5569 2.0401C42.557 2.04 42.5572 2.03984 42.5573 2.03979C42.5575 2.03963 42.5577 2.03946 43.1831 2.81973C43.8086 3.60001 43.8088 3.59983 43.809 3.59965C43.8091 3.59958 43.8093 3.59939 43.8095 3.59926C43.8098 3.59899 43.8102 3.5987 43.8106 3.5984C43.8113 3.59778 43.8122 3.59709 43.8131 3.59633C43.815 3.5948 43.8173 3.59296 43.8199 3.59083C43.8251 3.58657 43.8318 3.58111 43.8397 3.57451C43.8555 3.56134 43.8765 3.54352 43.9018 3.52153C43.952 3.47777 44.0202 3.41628 44.0974 3.34085C44.246 3.1958 44.4544 2.97387 44.6298 2.70807C44.789 2.46683 45.0151 2.05065 44.9953 1.54843C44.9709 0.933056 44.5988 0.467951 44.0848 0.202017L43.1657 1.97835ZM39.8603 5.97665C40.0665 4.58065 40.8414 3.46939 41.6845 2.76496C42.1064 2.41247 42.5166 2.18648 42.8372 2.07639C43.2089 1.94873 43.2733 2.03398 43.1657 1.97835L44.0848 0.202017C43.456 -0.12333 42.7274 -0.000565768 42.1876 0.184809C41.5966 0.387757 40.9765 0.75032 40.4021 1.23018C39.2529 2.19045 38.172 3.71909 37.8818 5.68445L39.8603 5.97665Z" fill="#390702"/>
<path d="M36.5016 10.5094C36.8116 9.25353 38.0518 9.25354 38.3618 9.56752C38.6718 9.88149 37.9897 10.7606 36.5016 10.5094Z" fill="#FDDCC3" stroke="#FDDCC3" stroke-linecap="round"/>
<path d="M53.2433 11.6752C53.8117 11.7893 54.9795 12.2004 55.1035 12.9311" stroke="#FDDCC3" stroke-linecap="round"/>
<path d="M50.1431 12.3031C50.7115 12.4173 51.8792 12.8283 52.0033 13.559" stroke="#FDDCC3" stroke-linecap="round"/>
<path d="M59.9045 30.7352C60.2997 30.7269 61.165 30.8777 61.4639 31.548" stroke="#FDDCC3" stroke-linecap="round"/>
<path d="M38.9804 14.0588C38.8861 13.67 38.5183 12.8627 37.8016 12.7438" stroke="#FDDCC3" stroke-linecap="round"/>
<path d="M60.6842 28.6299C61.0631 28.744 61.8417 29.155 61.9243 29.8858" stroke="#FDDCC3" stroke-linecap="round"/>
<path d="M40.7867 12.7512C40.5798 12.4101 39.9862 11.7549 39.2679 11.8631" stroke="#FDDCC3" stroke-linecap="round"/>
<path d="M62.2871 27.1529C62.569 27.4336 63.0666 28.1661 62.8015 28.8509" stroke="#FDDCC3" stroke-linecap="round"/>
<path d="M53.8635 14.187C54.2424 14.3012 55.0209 14.7122 55.1036 15.4429" stroke="#FDDCC3" stroke-linecap="round"/>
</svg>
