<svg width="110" height="64" viewBox="0 0 110 64" fill="none" xmlns="http://www.w3.org/2000/svg">
<circle cx="37.5" cy="32.3516" r="31.5" fill="#EFA443"/>
<path d="M22.392 28.1156L22.356 29.3396C20.436 30.3716 18.036 31.1756 15.156 31.7516C17.22 32.3036 19.212 32.5796 21.132 32.5796H21.888C23.208 34.5236 24.06 36.9476 24.444 39.8516H15.12C14.88 38.1716 14.388 36.7316 13.644 35.5316C12.924 34.3076 12.036 33.4796 10.98 33.0476C10.956 33.4556 10.944 34.2716 10.944 35.4956C10.944 36.7196 11.016 38.1716 11.16 39.8516H3.312C2.616 36.3716 2.268 33.1436 2.268 30.1676C2.268 27.1676 2.436 24.3956 2.772 21.8516H21.564C22.116 24.2756 22.392 26.3636 22.392 28.1156ZM11.736 24.2636C11.448 26.3756 11.232 28.4516 11.088 30.4916C12.408 30.2996 13.488 29.8316 14.328 29.0876C13.872 27.4796 13.008 25.8716 11.736 24.2636ZM50.258 39.5636V39.8516H41.906C41.81 38.5316 41.606 37.1156 41.294 35.6036C39.614 37.2836 37.934 38.6996 36.254 39.8516H27.866C27.698 38.8676 27.614 37.5716 27.614 35.9636C27.614 34.3316 27.854 32.6996 28.334 31.0676C30.062 30.5636 31.718 29.7116 33.302 28.5116C34.91 27.3116 36.074 26.0156 36.794 24.6236C36.122 23.5676 35.438 22.6436 34.742 21.8516H46.694C49.07 27.0596 50.258 32.9636 50.258 39.5636ZM40.646 32.9756C40.046 30.9116 39.23 28.8956 38.198 26.9276C37.07 30.2396 36.422 33.3716 36.254 36.3236C38.03 35.3636 39.494 34.2476 40.646 32.9756ZM67.8983 24.1916C67.2743 27.9836 66.9623 31.0796 66.9623 33.4796C66.9623 35.8796 67.0583 38.0036 67.2503 39.8516H59.4023C58.5863 36.0356 58.1783 31.9316 58.1783 27.5396C58.1783 26.7956 58.2023 25.6796 58.2503 24.1916C56.2103 24.7916 54.9623 26.1716 54.5063 28.3316L50.9423 28.1156L52.2383 21.8516H76.1783C75.6983 24.4916 75.1463 26.6516 74.5223 28.3316L70.8863 28.1156C70.9823 27.7316 71.0303 27.3476 71.0303 26.9636C71.0303 26.0276 70.7423 25.3316 70.1663 24.8756C69.5903 24.4196 68.8343 24.1916 67.8983 24.1916Z" fill="#390702"/>
<path d="M72.6818 46.9795C72.0114 46.9795 71.4347 46.8374 70.9517 46.5533C70.4716 46.2664 70.1023 45.8687 69.8438 45.3601C69.5881 44.8516 69.4602 44.2664 69.4602 43.6045C69.4602 42.934 69.5895 42.3459 69.848 41.8403C70.1094 41.3317 70.4801 40.9354 70.9602 40.6513C71.4403 40.3644 72.0114 40.2209 72.6733 40.2209C73.2443 40.2209 73.7443 40.3246 74.1733 40.532C74.6023 40.7394 74.9418 41.0306 75.1918 41.4056C75.4418 41.7806 75.5795 42.2209 75.6051 42.7266H73.892C73.8438 42.3999 73.7159 42.1371 73.5085 41.9383C73.304 41.7366 73.0355 41.6357 72.7031 41.6357C72.4219 41.6357 72.1761 41.7124 71.9659 41.8658C71.7585 42.0164 71.5966 42.2366 71.4801 42.5263C71.3636 42.8161 71.3054 43.167 71.3054 43.5789C71.3054 43.9965 71.3622 44.3516 71.4759 44.6442C71.5923 44.9369 71.7557 45.1599 71.9659 45.3133C72.1761 45.4667 72.4219 45.5434 72.7031 45.5434C72.9105 45.5434 73.0966 45.5008 73.2614 45.4155C73.429 45.3303 73.5668 45.2067 73.6747 45.0448C73.7855 44.88 73.858 44.6826 73.892 44.4525H75.6051C75.5767 44.9525 75.4403 45.3928 75.196 45.7735C74.9545 46.1513 74.6207 46.4468 74.1946 46.6599C73.7685 46.8729 73.2642 46.9795 72.6818 46.9795ZM79.6304 46.9795C78.9571 46.9795 78.3775 46.8431 77.8917 46.5704C77.4088 46.2948 77.0366 45.9056 76.7752 45.4028C76.5139 44.8971 76.3832 44.2991 76.3832 43.6087C76.3832 42.9354 76.5139 42.3445 76.7752 41.836C77.0366 41.3275 77.4045 40.9312 77.8789 40.6471C78.3562 40.363 78.9159 40.2209 79.5579 40.2209C79.9897 40.2209 80.3917 40.2905 80.7639 40.4297C81.1389 40.5661 81.4656 40.7721 81.744 41.0476C82.0252 41.3232 82.244 41.6698 82.4002 42.0874C82.5565 42.5022 82.6346 42.988 82.6346 43.5448V44.0434H77.1076V42.9184H80.9258C80.9258 42.657 80.869 42.4255 80.7554 42.2238C80.6417 42.0221 80.484 41.8644 80.2823 41.7508C80.0835 41.6343 79.8519 41.5761 79.5877 41.5761C79.3122 41.5761 79.0679 41.64 78.8548 41.7678C78.6446 41.8928 78.4798 42.0619 78.3605 42.2749C78.2412 42.4851 78.1801 42.7195 78.1772 42.978V44.0476C78.1772 44.3715 78.2369 44.6513 78.3562 44.8871C78.4784 45.1229 78.6502 45.3047 78.8718 45.4326C79.0934 45.5604 79.3562 45.6244 79.6602 45.6244C79.8619 45.6244 80.0465 45.5959 80.2142 45.5391C80.3818 45.4823 80.5252 45.3971 80.6446 45.2834C80.7639 45.1698 80.8548 45.0306 80.9173 44.8658L82.5963 44.9766C82.511 45.38 82.3363 45.7323 82.0721 46.0334C81.8108 46.3317 81.4727 46.5647 81.0579 46.7323C80.646 46.8971 80.1701 46.9795 79.6304 46.9795ZM85.5146 43.0675V46.8516H83.6993V40.3062H85.4294V41.461H85.5061C85.651 41.0803 85.8939 40.7792 86.2348 40.5576C86.5757 40.3332 86.989 40.2209 87.4748 40.2209C87.9294 40.2209 88.3257 40.3204 88.6638 40.5192C89.0018 40.7181 89.2646 41.0022 89.4521 41.3715C89.6396 41.738 89.7334 42.1755 89.7334 42.684V46.8516H87.918V43.0079C87.9209 42.6073 87.8186 42.2948 87.6112 42.0704C87.4038 41.8431 87.1183 41.7295 86.7547 41.7295C86.5104 41.7295 86.2944 41.782 86.1069 41.8871C85.9223 41.9922 85.7774 42.1457 85.6723 42.3474C85.57 42.5462 85.5175 42.7863 85.5146 43.0675ZM94.5257 40.3062V41.6698H90.5839V40.3062H94.5257ZM91.4788 38.738H93.2941V44.8403C93.2941 45.0079 93.3197 45.1386 93.3708 45.2323C93.422 45.3232 93.493 45.3871 93.5839 45.4241C93.6776 45.461 93.7856 45.4795 93.9078 45.4795C93.993 45.4795 94.0782 45.4724 94.1634 45.4582C94.2487 45.4411 94.314 45.4283 94.3595 45.4198L94.645 46.7707C94.5541 46.7991 94.4262 46.8317 94.2614 46.8687C94.0967 46.9084 93.8964 46.9326 93.6606 46.9411C93.2231 46.9582 92.8396 46.8999 92.51 46.7664C92.1833 46.6329 91.9291 46.4255 91.7472 46.1442C91.5654 45.863 91.4759 45.5079 91.4788 45.0789V38.738ZM95.5882 46.8516V40.3062H97.3481V41.4482H97.4163C97.5356 41.042 97.7359 40.7351 98.0172 40.5278C98.2984 40.3175 98.6223 40.2124 98.9888 40.2124C99.0797 40.2124 99.1777 40.2181 99.2828 40.2295C99.3879 40.2408 99.4802 40.2565 99.5598 40.2763V41.8871C99.4745 41.8616 99.3566 41.8388 99.2061 41.819C99.0555 41.7991 98.9177 41.7891 98.7927 41.7891C98.5257 41.7891 98.287 41.8474 98.0768 41.9638C97.8694 42.0775 97.7047 42.2366 97.5825 42.4411C97.4632 42.6457 97.4035 42.8815 97.4035 43.1485V46.8516H95.5882ZM102.057 46.9752C101.64 46.9752 101.268 46.9028 100.941 46.7579C100.614 46.6101 100.356 46.3928 100.165 46.1059C99.9778 45.8161 99.884 45.4553 99.884 45.0235C99.884 44.6599 99.9508 44.3545 100.084 44.1073C100.218 43.8601 100.4 43.6613 100.63 43.5107C100.86 43.3601 101.121 43.2465 101.414 43.1698C101.709 43.0931 102.019 43.0391 102.343 43.0079C102.724 42.9681 103.03 42.9312 103.263 42.8971C103.496 42.8601 103.665 42.8062 103.77 42.7351C103.875 42.6641 103.928 42.559 103.928 42.4198V42.3942C103.928 42.1244 103.843 41.9155 103.672 41.7678C103.505 41.6201 103.266 41.5462 102.956 41.5462C102.63 41.5462 102.37 41.6187 102.177 41.7636C101.983 41.9056 101.856 42.0846 101.793 42.3005L100.114 42.1641C100.199 41.7664 100.367 41.4226 100.617 41.1329C100.867 40.8403 101.189 40.6158 101.584 40.4596C101.982 40.3005 102.442 40.2209 102.965 40.2209C103.329 40.2209 103.677 40.2636 104.009 40.3488C104.344 40.434 104.641 40.5661 104.9 40.7451C105.161 40.9241 105.367 41.1542 105.518 41.4354C105.668 41.7138 105.743 42.0476 105.743 42.4369V46.8516H104.022V45.944H103.971C103.866 46.1485 103.725 46.3289 103.549 46.4851C103.373 46.6386 103.161 46.7593 102.914 46.8474C102.667 46.9326 102.381 46.9752 102.057 46.9752ZM102.577 45.7224C102.844 45.7224 103.08 45.6698 103.285 45.5647C103.489 45.4567 103.65 45.3119 103.766 45.13C103.883 44.9482 103.941 44.7422 103.941 44.5121V43.8175C103.884 43.8545 103.806 43.8886 103.706 43.9198C103.61 43.9482 103.5 43.9752 103.378 44.0008C103.256 44.0235 103.134 44.0448 103.012 44.0647C102.89 44.0817 102.779 44.0974 102.679 44.1116C102.466 44.1428 102.28 44.1925 102.121 44.2607C101.962 44.3289 101.839 44.4212 101.75 44.5377C101.662 44.6513 101.618 44.7934 101.618 44.9638C101.618 45.211 101.708 45.3999 101.887 45.5306C102.069 45.6584 102.299 45.7224 102.577 45.7224ZM108.847 38.1244V46.8516H107.032V38.1244H108.847Z" fill="#390702"/>
</svg>
