<svg xmlns="http://www.w3.org/2000/svg" version="1.1" xmlns:xlink="http://www.w3.org/1999/xlink" xmlns:svgjs="http://svgjs.dev/svgjs" width="128" height="112"><svg width="128" height="112" viewBox="0 0 128 112" fill="none" xmlns="http://www.w3.org/2000/svg">
<g clip-path="url(#clip0_11_57)">
<circle cx="63.4033" cy="57" r="52" fill="#EFA443"></circle>
<mask id="SvgjsMask1007" style="mask-type:alpha" maskUnits="userSpaceOnUse" x="33" y="34" width="63" height="77">
<path d="M35.0345 103.32L44.5695 40.0514C45.0427 36.9116 48.5313 35.2362 51.2778 36.8299L91.9422 60.4267C94.6887 62.0204 94.9651 65.8806 92.4738 67.8494L42.2744 107.521C39.0726 110.052 34.4264 107.355 35.0345 103.32Z" fill="white" stroke="#4D0F04" stroke-width="3"></path>
</mask>
<g mask="url(#mask0_11_57)">
<path d="M94.4917 77.1989C94.4917 98.1999 76.7365 115.26 54.7901 115.26C32.8436 115.26 15.0884 98.1999 15.0884 77.1989C15.0884 56.1979 32.8436 39.1381 54.7901 39.1381C76.7365 39.1381 94.4917 56.1979 94.4917 77.1989Z" fill="#FDDCC3" stroke="#4D0F04"></path>
<path d="M45.7652 81.3011C39.2016 80.3166 31.5442 90.4627 30.9972 93.6078C30.587 96.7528 32.8022 100.335 41.663 102.633C50.5238 104.93 50.2776 98.6672 49.4572 93.6078C49.3204 91.2832 52.3287 82.2857 45.7652 81.3011Z" fill="#4D0F04" stroke="#4D0F04"></path>
<path d="M46.5857 46.4323C53.1492 45.4478 57.1375 53.4996 57.6844 56.6447C58.0947 59.7897 58.7282 68.3381 49.8674 70.6354C41.0066 72.9326 44.5345 62.9779 45.355 57.9185C45.4917 55.5939 40.0221 47.4169 46.5857 46.4323Z" fill="#4D0F04" stroke="#4D0F04"></path>
<path d="M73.9315 68.3325C69.4501 63.4369 63.5213 66.413 61.117 68.513C58.819 70.699 55.5832 76.9115 61.0238 84.2729C66.4644 91.6343 72.878 90.8158 72.8149 84.375C72.7517 77.9341 78.4128 73.2281 73.9315 68.3325Z" fill="#4D0F04" stroke="#4D0F04"></path>
<path d="M35.0345 103.32L44.5695 40.0514C45.0427 36.9116 48.5313 35.2362 51.2778 36.8299L91.9422 60.4267C94.6887 62.0204 94.9651 65.8806 92.4738 67.8494L42.2744 107.521C39.0726 110.052 34.4264 107.355 35.0345 103.32Z" stroke="#4D0F04" stroke-width="3"></path>
</g>
<rect x="45.904" y="27.5601" width="65.5046" height="9.30663" rx="4.65332" transform="rotate(30 45.904 27.5601)" fill="#EDB18C" stroke="#4D0F04" stroke-width="3" stroke-linejoin="round"></rect>
<path fill-rule="evenodd" clip-rule="evenodd" d="M61.2549 10.0967C60.2758 9.91671 57.9067 10.4208 56.2631 13.8771C55.2865 15.9307 54.003 17.4159 52.831 18.772C51.5375 20.2688 50.3799 21.6084 49.9209 23.3814C49.5219 24.9224 51.506 24.9479 53.7299 24.9765C54.9976 24.9928 56.3433 25.0102 57.37 25.3098C59.7101 25.358 64.5378 25.2753 65.1279 24.5587C65.8654 23.663 70.4289 25.6394 63.1188 26.7593C61.2924 27.7604 58.0295 30.3842 59.5891 32.8709L61.1038 31.4879L61.2224 32.7128C61.4551 32.2781 62.247 31.3772 63.5536 31.2507C64.8602 31.1242 68.5325 31.5929 70.2052 31.8431C69.9901 31.0397 72.9448 30.3415 72.9448 30.3415C72.9448 30.3415 72.6594 35.3303 73.463 39.3739C71.6191 41.6131 71.0069 43.6152 76.2862 47.0606L72.124 46.6393L68.805 50.6699L70.1485 51.7762L72.4798 50.3141L72.5984 51.5391L74.113 50.156C75.6936 49.4535 79.4816 48.5647 81.9895 50.6298L81.7524 48.18L85.4932 52.7635C83.1185 53.2036 84.2674 54.1343 84.6317 54.4294C84.7436 54.5201 84.7814 54.5508 84.6205 54.4889C83.9356 54.2255 81.8062 53.7997 80.8271 53.6197L77.3895 56.4254L77.5081 57.6503L79.8394 56.1882L79.2204 58.3088L81.5912 57.255L82.4869 57.9926L84.8577 56.9387L86.57 57.5972L88.9408 56.5434L88.3599 53.2567C89.4715 52.8094 91.0851 53.1526 92.6103 53.4769C94.1694 53.8085 95.6361 54.1204 96.38 53.5484C97.2548 52.8757 98.1996 51.7897 99.0794 50.4555C98.8511 60.8316 94.2119 72.5443 89.5848 77.5499C77.748 90.355 46.2136 95.5744 38.6609 91.1224C31.1083 86.6705 24 85.964 24 85.964C24 85.964 36.9194 92.5554 40.8379 97.4719C44.7564 102.388 80.339 98.3764 90.9425 89.479C103.93 78.5817 106.967 53.2357 102.416 41.7491C102.781 38.6845 102.131 35.7859 99.6625 34.034C99.4166 33.8595 99.3198 33.1436 99.1767 32.085C98.541 27.3831 96.9915 15.9223 77.4032 15.1275C75.5285 14.21 72.0239 12.3512 73.0039 12.2563C74.2288 12.1377 79.4047 1.74526 68.2092 5.302C68.2092 5.302 70.6037 3.40677 68.9222 2.54773C67.2408 1.68869 62.0555 4.74378 61.2549 10.0967Z" fill="#390702"></path>
<path d="M56.2631 13.8771L55.36 13.4476L55.36 13.4476L56.2631 13.8771ZM61.2549 10.0967L61.0741 11.0802L62.091 11.2671L62.2439 10.2446L61.2549 10.0967ZM52.831 18.772L53.5877 19.4259L53.5877 19.4259L52.831 18.772ZM49.9209 23.3814L50.889 23.632L50.889 23.632L49.9209 23.3814ZM53.7299 24.9765L53.7427 23.9766L53.7427 23.9766L53.7299 24.9765ZM57.37 25.3098L57.0898 26.2698L57.2169 26.3069L57.3494 26.3096L57.37 25.3098ZM65.1279 24.5587L64.3559 23.923L64.3559 23.923L65.1279 24.5587ZM63.1188 26.7593L62.9674 25.7708L62.7929 25.7975L62.6381 25.8823L63.1188 26.7593ZM59.5891 32.8709L58.742 33.4023L59.3786 34.4173L60.2634 33.6094L59.5891 32.8709ZM61.1038 31.4879L62.0991 31.3915L61.9064 29.4008L60.4295 30.7494L61.1038 31.4879ZM61.2224 32.7128L60.227 32.8092L60.5453 36.0966L62.104 33.1847L61.2224 32.7128ZM70.2052 31.8431L70.0573 32.8321L71.5657 33.0577L71.1712 31.5844L70.2052 31.8431ZM72.9448 30.3415L73.9432 30.3986L74.0198 29.0599L72.7149 29.3683L72.9448 30.3415ZM73.463 39.3739L74.235 40.0095L74.5362 39.6437L74.4438 39.1789L73.463 39.3739ZM76.2862 47.0606L76.1855 48.0555L76.8327 46.2232L76.2862 47.0606ZM72.124 46.6393L72.2247 45.6444L71.6922 45.5905L71.352 46.0036L72.124 46.6393ZM68.805 50.6699L68.033 50.0342L67.3973 50.8062L68.1693 51.4419L68.805 50.6699ZM70.1485 51.7762L69.5128 52.5482L70.0692 53.0064L70.6798 52.6234L70.1485 51.7762ZM72.4798 50.3141L73.4751 50.2178L73.3192 48.6073L71.9485 49.467L72.4798 50.3141ZM72.5984 51.5391L71.603 51.6354L71.7958 53.6261L73.2727 52.2775L72.5984 51.5391ZM74.113 50.156L73.7069 49.2422L73.5586 49.3081L73.4387 49.4175L74.113 50.156ZM81.9895 50.6298L81.3539 51.4018L83.2175 52.9365L82.9849 50.5335L81.9895 50.6298ZM81.7524 48.18L82.5271 47.5477L80.4387 44.9889L80.757 48.2763L81.7524 48.18ZM85.4932 52.7635L85.6755 53.7467L87.3354 53.4391L86.2679 52.1312L85.4932 52.7635ZM84.6317 54.4294L85.2612 53.6524L85.2612 53.6524L84.6317 54.4294ZM84.6205 54.4889L84.9795 53.5555L84.9795 53.5555L84.6205 54.4889ZM80.8271 53.6197L81.0079 52.6362L80.5531 52.5526L80.1948 52.845L80.8271 53.6197ZM77.3895 56.4254L76.7572 55.6506L76.3426 55.989L76.3941 56.5217L77.3895 56.4254ZM77.5081 57.6503L76.5127 57.7467L76.6687 59.3572L78.0394 58.4975L77.5081 57.6503ZM79.8394 56.1882L80.7993 56.4684L81.5363 53.9435L79.308 55.341L79.8394 56.1882ZM79.2204 58.3088L78.2605 58.0286L77.6563 60.0984L79.6266 59.2226L79.2204 58.3088ZM81.5912 57.255L82.2269 56.483L81.7498 56.0902L81.185 56.3412L81.5912 57.255ZM82.4869 57.9926L81.8512 58.7645L82.3283 59.1574L82.8931 58.9063L82.4869 57.9926ZM84.8577 56.9387L85.2166 56.0054L84.83 55.8567L84.4515 56.0249L84.8577 56.9387ZM86.57 57.5972L86.2111 58.5306L86.5977 58.6793L86.9762 58.511L86.57 57.5972ZM88.9408 56.5434L89.347 57.4572L90.0617 57.1396L89.9256 56.3694L88.9408 56.5434ZM88.3599 53.2567L87.9866 52.329L87.2339 52.6319L87.3751 53.4308L88.3599 53.2567ZM92.6103 53.4769L92.4023 54.455L92.4023 54.455L92.6103 53.4769ZM96.38 53.5484L95.7704 52.7556L95.7704 52.7556L96.38 53.5484ZM99.0794 50.4555L100.079 50.4775L100.155 47.0068L98.2445 49.905L99.0794 50.4555ZM89.5848 77.5499L88.8505 76.8711L88.8505 76.8711L89.5848 77.5499ZM38.6609 91.1224L39.1687 90.261L39.1687 90.261L38.6609 91.1224ZM24 85.964L24.0989 84.9689L23.5455 86.8548L24 85.964ZM90.9425 89.479L91.5853 90.2451L90.9425 89.479ZM102.416 41.7491L101.423 41.6308L101.393 41.8821L101.486 42.1174L102.416 41.7491ZM99.6625 34.034L99.0838 34.8496L99.0838 34.8496L99.6625 34.034ZM99.1767 32.085L98.1857 32.219L98.1857 32.219L99.1767 32.085ZM77.4032 15.1275L76.9637 16.0257L77.1526 16.1181L77.3627 16.1267L77.4032 15.1275ZM73.0039 12.2563L73.1002 13.2516L73.1002 13.2516L73.0039 12.2563ZM68.2092 5.302L67.5886 4.51789L68.512 6.25506L68.2092 5.302ZM68.9222 2.54773L68.4673 3.43824L68.4673 3.43824L68.9222 2.54773ZM57.1662 14.3065C58.6563 11.1732 60.627 10.998 61.0741 11.0802L61.4357 9.11315C59.9246 8.8354 57.1572 9.66845 55.36 13.4476L57.1662 14.3065ZM53.5877 19.4259C54.7561 18.0738 56.1247 16.4966 57.1662 14.3065L55.36 13.4476C54.4483 15.3647 53.2499 16.758 52.0744 18.1181L53.5877 19.4259ZM50.889 23.632C51.2794 22.1237 52.2643 20.9572 53.5877 19.4259L52.0744 18.1181C50.8107 19.5805 49.4803 21.0931 48.9528 23.1308L50.889 23.632ZM53.7427 23.9766C52.575 23.9616 51.6795 23.9421 51.1112 23.7831C50.8348 23.7058 50.8061 23.6381 50.835 23.6768C50.9013 23.7652 50.8425 23.8113 50.889 23.632L48.9528 23.1308C48.7997 23.722 48.8394 24.3492 49.235 24.8767C49.5932 25.3544 50.1246 25.5839 50.5724 25.7092C51.4524 25.9553 52.6608 25.9629 53.717 25.9765L53.7427 23.9766ZM57.6502 24.3499C56.4647 24.0038 54.9657 23.9924 53.7427 23.9766L53.717 25.9765C55.0296 25.9933 56.222 26.0165 57.0898 26.2698L57.6502 24.3499ZM64.3559 23.923C64.4597 23.797 64.5347 23.802 64.377 23.8598C64.2563 23.904 64.0697 23.9536 63.8108 24.0024C63.2962 24.0993 62.6101 24.1722 61.8391 24.2232C60.3037 24.325 58.5424 24.3337 57.3906 24.31L57.3494 26.3096C58.5377 26.3341 60.3602 26.3256 61.9713 26.2189C62.7735 26.1657 63.5512 26.0865 64.181 25.9679C64.4941 25.9089 64.7998 25.8349 65.0652 25.7376C65.2936 25.6539 65.6486 25.4995 65.8998 25.1944L64.3559 23.923ZM63.2702 27.7477C65.1232 27.4639 66.3564 27.1099 67.108 26.6901C67.4791 26.4828 67.8514 26.1949 68.0576 25.7783C68.2995 25.2895 68.2375 24.7791 67.9943 24.3814C67.784 24.0375 67.4679 23.8167 67.2083 23.6805C66.934 23.5366 66.6295 23.4381 66.3342 23.3837C66.0418 23.3299 65.7128 23.311 65.3924 23.3632C65.0896 23.4125 64.6644 23.5484 64.3559 23.923L65.8998 25.1944C65.7757 25.3451 65.6545 25.3468 65.7139 25.3372C65.7557 25.3304 65.8471 25.3277 65.9721 25.3507C66.094 25.3731 66.2037 25.412 66.2792 25.4516C66.3695 25.499 66.3388 25.5077 66.2881 25.4249C66.2045 25.2882 66.1764 25.0704 66.2652 24.8911C66.3182 24.784 66.3503 24.8225 66.1328 24.944C65.7071 25.1817 64.7695 25.4947 62.9674 25.7708L63.2702 27.7477ZM60.4363 32.3396C59.9854 31.6207 60.1342 30.8228 60.8736 29.8718C61.6109 28.9237 62.7584 28.0972 63.5995 27.6362L62.6381 25.8823C61.6528 26.4225 60.2557 27.4084 59.2948 28.6442C58.3361 29.877 57.6333 31.6345 58.742 33.4023L60.4363 32.3396ZM60.4295 30.7494L58.9148 32.1325L60.2634 33.6094L61.7781 32.2263L60.4295 30.7494ZM62.2177 32.6164L62.0991 31.3915L60.1084 31.5842L60.227 32.8092L62.2177 32.6164ZM63.4573 30.2553C61.733 30.4223 60.6862 31.5956 60.3407 32.2409L62.104 33.1847C62.2239 32.9607 62.7611 32.3321 63.65 32.246L63.4573 30.2553ZM70.3532 30.8541C69.505 30.7273 68.1532 30.5454 66.8444 30.4109C65.5737 30.2803 64.2274 30.1808 63.4573 30.2553L63.65 32.246C64.1865 32.1941 65.3296 32.2657 66.6399 32.4004C67.912 32.5312 69.2327 32.7088 70.0573 32.8321L70.3532 30.8541ZM72.9448 30.3415C72.7149 29.3683 72.7147 29.3683 72.7146 29.3684C72.7145 29.3684 72.7143 29.3684 72.7142 29.3684C72.7139 29.3685 72.7136 29.3686 72.7133 29.3687C72.7126 29.3688 72.7117 29.369 72.7106 29.3693C72.7085 29.3698 72.7056 29.3705 72.7021 29.3713C72.695 29.373 72.6852 29.3754 72.6728 29.3785C72.6481 29.3845 72.6131 29.3933 72.5693 29.4045C72.4819 29.427 72.3588 29.4597 72.2123 29.5014C71.9222 29.5842 71.5282 29.7059 71.134 29.8582C70.755 30.0046 70.3094 30.2041 69.9565 30.4592C69.7815 30.5858 69.5701 30.7677 69.414 31.0166C69.2449 31.2862 69.1236 31.6698 69.2393 32.1018L71.1712 31.5844C71.2331 31.8156 71.157 32.0017 71.1083 32.0793C71.0726 32.1362 71.0568 32.1318 71.1285 32.0799C71.2692 31.9781 71.5219 31.8524 71.8547 31.7238C72.1722 31.6012 72.5035 31.4981 72.7607 31.4248C72.8879 31.3885 72.9939 31.3604 73.0672 31.3416C73.1038 31.3322 73.1321 31.3251 73.1505 31.3206C73.1597 31.3183 73.1665 31.3167 73.1706 31.3157C73.1727 31.3152 73.1741 31.3149 73.1748 31.3147C73.1751 31.3146 73.1753 31.3146 73.1753 31.3146C73.1753 31.3146 73.1753 31.3146 73.1752 31.3146C73.1751 31.3146 73.175 31.3146 73.175 31.3146C73.1749 31.3147 73.1748 31.3147 72.9448 30.3415ZM74.4438 39.1789C74.059 37.2426 73.9311 35.0528 73.9024 33.3247C73.8882 32.4655 73.8985 31.7302 73.9124 31.2109C73.9194 30.9514 73.9272 30.7462 73.9332 30.6069C73.9362 30.5373 73.9388 30.4841 73.9405 30.4489C73.9414 30.4313 73.9421 30.4182 73.9426 30.4097C73.9428 30.4055 73.943 30.4025 73.9431 30.4006C73.9431 30.3997 73.9432 30.399 73.9432 30.3987C73.9432 30.3985 73.9432 30.3984 73.9432 30.3984C73.9432 30.3984 73.9432 30.3985 73.9432 30.3985C73.9432 30.3985 73.9432 30.3986 72.9448 30.3415C71.9465 30.2844 71.9464 30.2845 71.9464 30.2846C71.9464 30.2847 71.9464 30.2848 71.9464 30.285C71.9464 30.2853 71.9464 30.2856 71.9464 30.2861C71.9463 30.287 71.9462 30.2881 71.9462 30.2896C71.946 30.2926 71.9458 30.2967 71.9455 30.3021C71.9449 30.3128 71.9441 30.3282 71.9431 30.3481C71.9411 30.3879 71.9383 30.4459 71.9351 30.5206C71.9286 30.6699 71.9204 30.886 71.9131 31.1574C71.8986 31.6998 71.8879 32.4645 71.9027 33.3579C71.9322 35.1351 72.0634 37.4615 72.4822 39.5688L74.4438 39.1789ZM76.8327 46.2232C74.2138 44.514 73.3602 43.3395 73.1784 42.5424C73.0163 41.8323 73.3273 41.1118 74.235 40.0095L72.6911 38.7382C71.7548 39.8752 70.8378 41.2753 71.2285 42.9874C71.5993 44.6126 73.0794 46.1619 75.7396 47.8981L76.8327 46.2232ZM72.0233 47.6342L76.1855 48.0555L76.3869 46.0657L72.2247 45.6444L72.0233 47.6342ZM69.5769 51.3056L72.896 47.275L71.352 46.0036L68.033 50.0342L69.5769 51.3056ZM70.7842 51.0043L69.4407 49.8979L68.1693 51.4419L69.5128 52.5482L70.7842 51.0043ZM71.9485 49.467L69.6172 50.9291L70.6798 52.6234L73.0111 51.1613L71.9485 49.467ZM73.5937 51.4427L73.4751 50.2178L71.4844 50.4105L71.603 51.6354L73.5937 51.4427ZM73.4387 49.4175L71.9241 50.8006L73.2727 52.2775L74.7873 50.8945L73.4387 49.4175ZM82.6252 49.8579C81.1174 48.6162 79.2694 48.2987 77.668 48.3557C76.0669 48.4126 74.5994 48.8455 73.7069 49.2422L74.5192 51.0698C75.2072 50.764 76.424 50.4012 77.7391 50.3544C79.0537 50.3076 80.3538 50.5783 81.3539 51.4018L82.6252 49.8579ZM80.757 48.2763L80.9942 50.7262L82.9849 50.5335L82.7477 48.0836L80.757 48.2763ZM86.2679 52.1312L82.5271 47.5477L80.9776 48.8123L84.7185 53.3958L86.2679 52.1312ZM85.2612 53.6524C85.166 53.5753 85.0846 53.5073 85.0226 53.4383C84.9936 53.406 84.9858 53.3916 84.9885 53.3964C84.9906 53.4002 85.0193 53.4506 85.0293 53.5408C85.0407 53.6441 85.0229 53.7624 84.9682 53.8676C84.9185 53.9632 84.8649 53.997 84.8775 53.9883C84.8919 53.9782 84.9517 53.9414 85.0892 53.8934C85.2242 53.8462 85.4144 53.7951 85.6755 53.7467L85.311 51.7802C84.669 51.8992 84.1288 52.0721 83.7337 52.3476C83.284 52.6611 82.9744 53.1556 83.0414 53.7608C83.0946 54.2419 83.3735 54.5953 83.5347 54.7747C83.7163 54.977 83.9152 55.136 84.0022 55.2064L85.2612 53.6524ZM84.2616 55.4222C84.2995 55.4368 84.3778 55.4668 84.4593 55.4876C84.4672 55.4896 84.6273 55.536 84.8245 55.5161C84.912 55.5073 85.2384 55.4656 85.4924 55.1644C85.7952 54.8055 85.7384 54.4049 85.6872 54.2321C85.6389 54.0693 85.5605 53.9591 85.5341 53.9228C85.4985 53.8738 85.4653 53.8374 85.4466 53.8175C85.4089 53.7777 85.3741 53.7469 85.3578 53.7327C85.3236 53.7028 85.283 53.6701 85.2612 53.6524L84.0022 55.2064C84.0363 55.2341 84.0424 55.2392 84.0417 55.2386C84.04 55.2371 84.035 55.2327 84.028 55.2262C84.0215 55.2201 84.0088 55.208 83.9929 55.1912C83.979 55.1765 83.9498 55.1447 83.917 55.0996C83.8936 55.0674 83.8171 54.9606 83.7696 54.8006C83.7193 54.6306 83.6622 54.2323 83.9636 53.875C84.2163 53.5753 84.5402 53.5346 84.624 53.5262C84.7401 53.5145 84.8302 53.5266 84.863 53.5315C84.9049 53.5377 84.9368 53.5453 84.9524 53.5493C84.9993 53.5612 85.022 53.5719 84.9795 53.5555L84.2616 55.4222ZM80.6463 54.6032C81.1275 54.6917 81.8934 54.8409 82.6205 54.9999C83.378 55.1655 84.0034 55.3229 84.2616 55.4222L84.9795 53.5555C84.5528 53.3914 83.771 53.2042 83.0477 53.0461C82.2942 52.8813 81.5059 52.7277 81.0079 52.6362L80.6463 54.6032ZM78.0218 57.2001L81.4594 54.3944L80.1948 52.845L76.7572 55.6506L78.0218 57.2001ZM78.5034 57.5539L78.3848 56.329L76.3941 56.5217L76.5127 57.7467L78.5034 57.5539ZM79.308 55.341L76.9768 56.8031L78.0394 58.4975L80.3707 57.0353L79.308 55.341ZM80.1803 58.589L80.7993 56.4684L78.8794 55.908L78.2605 58.0286L80.1803 58.589ZM81.185 56.3412L78.8142 57.395L79.6266 59.2226L81.9974 58.1688L81.185 56.3412ZM83.1226 57.2206L82.2269 56.483L80.9555 58.0269L81.8512 58.7645L83.1226 57.2206ZM84.4515 56.0249L82.0807 57.0788L82.8931 58.9063L85.2639 57.8525L84.4515 56.0249ZM86.9289 56.6639L85.2166 56.0054L84.4988 57.8721L86.2111 58.5306L86.9289 56.6639ZM88.5346 55.6296L86.1638 56.6834L86.9762 58.511L89.347 57.4572L88.5346 55.6296ZM87.3751 53.4308L87.9561 56.7175L89.9256 56.3694L89.3446 53.0827L87.3751 53.4308ZM92.8183 52.4988C92.0682 52.3393 91.2258 52.1589 90.4256 52.082C89.6356 52.0061 88.7637 52.0163 87.9866 52.329L88.7332 54.1844C89.0676 54.0498 89.5583 54.0079 90.2343 54.0729C90.9002 54.1368 91.6271 54.2902 92.4023 54.455L92.8183 52.4988ZM95.7704 52.7556C95.7074 52.8041 95.4811 52.8986 94.8738 52.8542C94.3015 52.8122 93.6176 52.6688 92.8183 52.4988L92.4023 54.455C93.162 54.6166 93.9911 54.7949 94.7278 54.8488C95.4297 54.9002 96.3087 54.8647 96.9896 54.3411L95.7704 52.7556ZM98.2445 49.905C97.3998 51.186 96.5262 52.1745 95.7704 52.7556L96.9896 54.3411C97.9833 53.5769 98.9994 52.3934 99.9142 51.0059L98.2445 49.905ZM90.3191 78.2287C92.757 75.5914 95.1304 71.2761 96.9213 66.3588C98.7175 61.4268 99.9621 55.7957 100.079 50.4775L98.0796 50.4335C97.9683 55.4914 96.7792 60.9046 95.042 65.6744C93.2995 70.4589 91.0397 74.5028 88.8505 76.8711L90.3191 78.2287ZM38.1531 91.9839C40.2971 93.2477 43.9294 93.7442 48.1546 93.6805C52.4393 93.6159 57.5292 92.9697 62.7385 91.7825C73.109 89.4192 84.1936 84.8553 90.3191 78.2287L88.8505 76.8711C83.1392 83.0496 72.5382 87.498 62.2941 89.8325C57.1961 90.9943 52.2465 91.6186 48.1244 91.6807C43.9428 91.7437 40.8011 91.2232 39.1687 90.261L38.1531 91.9839ZM24 85.964C23.9011 86.9591 23.9009 86.9591 23.9007 86.9591C23.9006 86.9591 23.9005 86.959 23.9004 86.959C23.9003 86.959 23.9003 86.959 23.9004 86.959C23.9006 86.959 23.9012 86.9591 23.9022 86.9592C23.9043 86.9594 23.9081 86.9598 23.9136 86.9604C23.9245 86.9616 23.9422 86.9635 23.9663 86.9663C24.0146 86.972 24.0888 86.981 24.1874 86.9942C24.3846 87.0206 24.6792 87.0637 25.0581 87.1293C25.8162 87.2605 26.9106 87.4817 28.2381 87.8393C30.8958 88.5553 34.4727 89.8145 38.1531 91.9839L39.1687 90.261C35.2965 87.9785 31.543 86.6584 28.7584 85.9082C27.3648 85.5327 26.21 85.299 25.3993 85.1586C24.9938 85.0884 24.674 85.0415 24.453 85.0119C24.3424 84.9971 24.2566 84.9866 24.1971 84.9797C24.1673 84.9762 24.1441 84.9737 24.1277 84.9719C24.1194 84.971 24.1129 84.9703 24.1081 84.9698C24.1057 84.9696 24.1038 84.9694 24.1022 84.9692C24.1014 84.9692 24.1008 84.9691 24.1002 84.969C24.1 84.969 24.0996 84.969 24.0995 84.969C24.0992 84.9689 24.0989 84.9689 24 85.964ZM41.6199 96.8487C40.5585 95.517 38.9332 94.1217 37.1502 92.797C35.3545 91.4627 33.344 90.1602 31.4692 89.0199C29.5925 87.8785 27.841 86.893 26.5591 86.193C25.9178 85.8429 25.3933 85.5638 25.0283 85.3718C24.8458 85.2758 24.7032 85.2016 24.6058 85.1512C24.557 85.1259 24.5196 85.1067 24.4942 85.0936C24.4815 85.0871 24.4718 85.0821 24.4651 85.0787C24.4618 85.077 24.4592 85.0757 24.4574 85.0748C24.4566 85.0743 24.4559 85.074 24.4554 85.0737C24.4551 85.0736 24.4549 85.0735 24.4548 85.0734C24.4546 85.0733 24.4545 85.0732 24 85.964C23.5455 86.8548 23.5455 86.8548 23.5455 86.8548C23.5456 86.8548 23.5457 86.8548 23.5458 86.8549C23.5461 86.8551 23.5466 86.8553 23.5473 86.8557C23.5486 86.8563 23.5508 86.8574 23.5537 86.8589C23.5595 86.8619 23.5683 86.8664 23.5802 86.8725C23.6039 86.8847 23.6395 86.903 23.6863 86.9273C23.7801 86.9758 23.9188 87.048 24.0973 87.1419C24.4542 87.3296 24.9695 87.6038 25.6006 87.9484C26.8636 88.638 28.5868 89.6077 30.4298 90.7286C32.2747 91.8507 34.2288 93.1179 35.9574 94.4024C37.699 95.6963 39.158 96.9687 40.0559 98.0952L41.6199 96.8487ZM90.2998 88.713C87.8003 90.8103 83.7381 92.6816 78.889 94.2197C74.0642 95.7501 68.5561 96.9212 63.2446 97.6654C57.9302 98.4099 52.8471 98.7222 48.8722 98.5494C46.8817 98.4628 45.2027 98.2559 43.9243 97.9351C42.5951 97.6016 41.8927 97.191 41.6199 96.8487L40.0559 98.0952C40.7626 98.982 42.0294 99.5216 43.4376 99.8749C44.8966 100.241 46.7231 100.458 48.7853 100.547C52.9155 100.727 58.1256 100.402 63.5221 99.646C68.9215 98.8896 74.5421 97.6967 79.4937 96.1261C84.421 94.5632 88.783 92.5965 91.5853 90.2451L90.2998 88.713ZM101.486 42.1174C103.666 47.6185 104.067 56.6141 102.275 65.6403C100.484 74.6605 96.5493 83.469 90.2998 88.713L91.5853 90.2451C98.3228 84.5917 102.4 75.2786 104.237 66.0298C106.072 56.787 105.717 47.3663 103.346 41.3808L101.486 42.1174ZM99.0838 34.8496C101.131 36.3021 101.767 38.7503 101.423 41.6308L103.409 41.8674C103.796 38.6188 103.132 35.2696 100.241 33.2185L99.0838 34.8496ZM98.1857 32.219C98.2551 32.732 98.3207 33.2227 98.4042 33.6046C98.4462 33.7967 98.5014 34.0044 98.5824 34.1952C98.6559 34.3684 98.7991 34.6475 99.0838 34.8496L100.241 33.2185C100.403 33.3333 100.442 33.4575 100.424 33.4143C100.413 33.3887 100.389 33.3185 100.358 33.1775C100.296 32.8931 100.241 32.4965 100.168 31.951L98.1857 32.219ZM77.3627 16.1267C86.9545 16.5158 91.9364 19.5005 94.6242 22.7755C97.3437 26.0891 97.8682 29.8702 98.1857 32.219L100.168 31.951C99.8495 29.5979 99.2814 25.2976 96.1702 21.5067C93.0272 17.6771 87.4402 14.5339 77.4438 14.1283L77.3627 16.1267ZM72.9075 11.261C72.7864 11.2727 72.5406 11.3078 72.3046 11.4701C72.1725 11.5609 72.034 11.6987 71.9399 11.8946C71.8451 12.0922 71.8232 12.2916 71.8389 12.4614C71.8668 12.763 72.0119 12.9782 72.08 13.0707C72.1633 13.1839 72.2579 13.2791 72.3381 13.3527C72.6416 13.6313 73.1274 13.947 73.6195 14.2415C74.6427 14.8538 76.0162 15.562 76.9637 16.0257L77.8428 14.2293C76.9155 13.7754 75.5994 13.0955 74.6465 12.5253C74.1507 12.2286 73.8269 12.0044 73.6904 11.8792C73.6605 11.8518 73.6682 11.8545 73.6906 11.885C73.6979 11.8949 73.8082 12.0373 73.8304 12.2772C73.8433 12.4162 73.8258 12.5874 73.743 12.7599C73.661 12.9308 73.5421 13.0463 73.4378 13.1181C73.3388 13.1862 73.2502 13.2173 73.2008 13.2315C73.1494 13.2462 73.1129 13.2504 73.1002 13.2516L72.9075 11.261ZM68.512 6.25506C71.2586 5.38249 72.7285 5.46536 73.4473 5.78511C74.0193 6.03955 74.283 6.53371 74.2645 7.37893C74.2452 8.25729 73.8997 9.3031 73.4571 10.161C73.2393 10.5833 73.0172 10.922 72.8358 11.1431C72.7438 11.2551 72.6805 11.3146 72.6512 11.3379C72.595 11.3828 72.6909 11.2819 72.9075 11.261L73.1002 13.2516C73.47 13.2159 73.7499 13.0199 73.8986 12.9012C74.0742 12.7611 74.2367 12.5886 74.3817 12.4121C74.674 12.0559 74.9698 11.5911 75.2346 11.078C75.7571 10.0651 76.2356 8.71286 76.264 7.42288C76.2931 6.09975 75.8282 4.65527 74.2602 3.95776C72.839 3.32555 70.7576 3.44314 67.9064 4.34894L68.512 6.25506ZM68.4673 3.43824C68.6369 3.5249 68.5264 3.51622 68.521 3.38056C68.5202 3.36027 68.5202 3.45885 68.3649 3.69133C68.2263 3.89861 68.0355 4.10623 67.863 4.27255C67.7798 4.35278 67.7071 4.41738 67.6566 4.46081C67.6315 4.48241 67.6123 4.49846 67.6003 4.50827C67.5944 4.51316 67.5903 4.51647 67.5883 4.51811C67.5873 4.51893 67.5868 4.51933 67.5868 4.5193C67.5868 4.51928 67.587 4.51916 67.5873 4.51892C67.5874 4.51881 67.5876 4.51866 67.5878 4.51849C67.5879 4.5184 67.5881 4.51825 67.5882 4.51821C67.5884 4.51806 67.5886 4.51789 68.2092 5.302C68.8298 6.08611 68.83 6.08593 68.8303 6.08575C68.8304 6.08568 68.8306 6.08548 68.8308 6.08534C68.8312 6.08505 68.8316 6.08474 68.832 6.08439C68.8329 6.0837 68.8339 6.08288 68.835 6.08195C68.8374 6.08009 68.8403 6.07776 68.8438 6.07497C68.8507 6.06938 68.8598 6.06194 68.871 6.05275C68.8933 6.03437 68.9239 6.00887 68.961 5.97697C69.0349 5.9134 69.1361 5.82322 69.2511 5.71235C69.4751 5.49646 69.7778 5.17659 70.0277 4.80268C70.2607 4.45397 70.5441 3.91767 70.5194 3.30042C70.49 2.5678 70.0483 2.00008 69.3772 1.65721L68.4673 3.43824ZM62.2439 10.2446C62.6011 7.85632 63.9412 5.96322 65.3947 4.76408C66.1214 4.16446 66.8476 3.76291 67.4486 3.55913C68.1004 3.33809 68.4117 3.40987 68.4673 3.43824L69.3772 1.65721C68.592 1.25607 67.6246 1.38759 66.8063 1.66505C65.9371 1.95977 65.0017 2.49548 64.1218 3.22137C62.3621 4.67324 60.7093 6.98413 60.2659 9.94875L62.2439 10.2446Z" fill="#390702"></path>
<path d="M57.4337 17.5477C57.9337 15.5477 59.9337 15.5477 60.4337 16.0477C60.9337 16.5477 59.8337 17.9477 57.4337 17.5477Z" fill="#FDDCC3" stroke="#FDDCC3" stroke-linecap="round"></path>
<path d="M84.4337 19.4041C85.3503 19.5859 87.2337 20.2405 87.4337 21.4041" stroke="#FDDCC3" stroke-linecap="round"></path>
<path d="M79.4337 20.4041C80.3503 20.5859 82.2337 21.2405 82.4337 22.4041" stroke="#FDDCC3" stroke-linecap="round"></path>
<path d="M95.1762 49.7569C95.8137 49.7436 97.2091 49.9838 97.6911 51.0513" stroke="#FDDCC3" stroke-linecap="round"></path>
<path d="M61.4313 23.2C61.2792 22.5808 60.686 21.2952 59.5302 21.1058" stroke="#FDDCC3" stroke-linecap="round"></path>
<path d="M96.4337 46.4041C97.0448 46.5859 98.3003 47.2405 98.4337 48.4041" stroke="#FDDCC3" stroke-linecap="round"></path>
<path d="M64.3444 21.1177C64.0106 20.5744 63.0534 19.5311 61.8949 19.7035" stroke="#FDDCC3" stroke-linecap="round"></path>
<path d="M99.0188 44.0521C99.4735 44.4991 100.276 45.6657 99.8485 46.7561" stroke="#FDDCC3" stroke-linecap="round"></path>
<path d="M85.4337 23.4041C86.0448 23.5859 87.3003 24.2405 87.4337 25.4041" stroke="#FDDCC3" stroke-linecap="round"></path>
</g>
<defs>
<clipPath id="SvgjsClipPath1006">
<rect width="128" height="112" fill="white"></rect>
</clipPath>
</defs>
</svg><style>@media (prefers-color-scheme: light) { :root { filter: none; } }
@media (prefers-color-scheme: dark) { :root { filter: none; } }
</style></svg>